<svg width="24" height="24" viewBox="0 0 24 24" fill="none" xmlns="http://www.w3.org/2000/svg">
<path d="M19.63 3.65C19.5138 3.55602 19.3781 3.48928 19.2327 3.45467C19.0873 3.42006 18.9361 3.41846 18.79 3.45C17.7214 3.67395 16.6183 3.6768 15.5486 3.45839C14.4789 3.23997 13.4652 2.80492 12.57 2.18C12.4026 2.06388 12.2037 2.00165 12 2.00165C11.7963 2.00165 11.5974 2.06388 11.43 2.18C10.5348 2.80492 9.52108 3.23997 8.45137 3.45839C7.38166 3.6768 6.27857 3.67395 5.21001 3.45C5.06394 3.41846 4.91267 3.42006 4.76731 3.45467C4.62194 3.48928 4.48618 3.55602 4.37001 3.65C4.25399 3.74412 4.16053 3.86304 4.0965 3.99802C4.03247 4.133 3.9995 4.28061 4.00001 4.43V11.88C3.99912 13.3138 4.34078 14.727 4.99654 16.002C5.6523 17.277 6.60319 18.3768 7.77001 19.21L11.42 21.81C11.5894 21.9306 11.7921 21.9954 12 21.9954C12.2079 21.9954 12.4106 21.9306 12.58 21.81L16.23 19.21C17.3968 18.3768 18.3477 17.277 19.0035 16.002C19.6592 14.727 20.0009 13.3138 20 11.88V4.43C20.0005 4.28061 19.9675 4.133 19.9035 3.99802C19.8395 3.86304 19.746 3.74412 19.63 3.65V3.65ZM18 11.88C18.0008 12.9948 17.7353 14.0936 17.2257 15.085C16.716 16.0765 15.977 16.9319 15.07 17.58L12 19.77L8.93001 17.58C8.02304 16.9319 7.28399 16.0765 6.77435 15.085C6.26472 14.0936 5.99924 12.9948 6.00001 11.88V5.58C8.09643 5.75944 10.196 5.27303 12 4.19C13.804 5.27303 15.9036 5.75944 18 5.58V11.88Z" fill="black"/>
<path d="M12 16C11.4583 16 10.9563 15.8667 10.494 15.6C10.0313 15.3333 9.66667 14.9667 9.4 14.5H8V13.5H9.05C9.025 13.3333 9.0105 13.1667 9.0065 13C9.00217 12.8333 9 12.6667 9 12.5H8V11.5H9C9 11.3333 9.00217 11.1667 9.0065 11C9.0105 10.8333 9.025 10.6667 9.05 10.5H8V9.5H9.4C9.51667 9.30833 9.648 9.12917 9.794 8.9625C9.93967 8.79583 10.1083 8.65 10.3 8.525L9.5 7.7L10.2 7L11.275 8.075C11.5083 8 11.7458 7.9625 11.9875 7.9625C12.2292 7.9625 12.4667 8 12.7 8.075L13.8 7L14.5 7.7L13.675 8.525C13.8667 8.65 14.0397 8.79367 14.194 8.956C14.348 9.11867 14.4833 9.3 14.6 9.5H16V10.5H14.95C14.975 10.6667 14.9897 10.8333 14.994 11C14.998 11.1667 15 11.3333 15 11.5H16V12.5H15C15 12.6667 14.998 12.8333 14.994 13C14.9897 13.1667 14.975 13.3333 14.95 13.5H16V14.5H14.6C14.3333 14.9667 13.9688 15.3333 13.5065 15.6C13.0438 15.8667 12.5417 16 12 16ZM12 15C12.55 15 13.0208 14.8042 13.4125 14.4125C13.8042 14.0208 14 13.55 14 13V11C14 10.45 13.8042 9.97917 13.4125 9.5875C13.0208 9.19583 12.55 9 12 9C11.45 9 10.9792 9.19583 10.5875 9.5875C10.1958 9.97917 10 10.45 10 11V13C10 13.55 10.1958 14.0208 10.5875 14.4125C10.9792 14.8042 11.45 15 12 15ZM11 13.5H13V12.5H11V13.5ZM11 11.5H13V10.5H11V11.5Z" fill="black"/>
</svg>
