<svg width="24" height="24" viewBox="0 0 24 24" fill="none" xmlns="http://www.w3.org/2000/svg">
<path fill-rule="evenodd" clip-rule="evenodd" d="M12.3517 18.8484C12.1267 18.6234 12.0004 18.3182 12.0004 18C12.0004 17.6818 12.1267 17.3766 12.3517 17.1516L17.5033 12L12.3517 6.84839C12.2371 6.7377 12.1457 6.60528 12.0828 6.45888C12.0199 6.31247 11.9868 6.15501 11.9854 5.99568C11.984 5.83634 12.0144 5.67832 12.0747 5.53085C12.135 5.38337 12.2242 5.24939 12.3368 5.13672C12.4495 5.02405 12.5835 4.93494 12.731 4.87461C12.8784 4.81427 13.0364 4.78391 13.1958 4.78529C13.3551 4.78668 13.5126 4.81978 13.659 4.88267C13.8054 4.94556 13.9378 5.03698 14.0485 5.15159L20.0485 11.1516C20.2735 11.3766 20.3998 11.6818 20.3998 12C20.3998 12.3182 20.2735 12.6234 20.0485 12.8484L14.0485 18.8484C13.8235 19.0734 13.5183 19.1997 13.2001 19.1997C12.8819 19.1997 12.5767 19.0734 12.3517 18.8484Z" fill="black"/>
<path fill-rule="evenodd" clip-rule="evenodd" d="M5.15164 18.8484C4.92667 18.6233 4.80029 18.3182 4.80029 18C4.80029 17.6818 4.92667 17.3766 5.15164 17.1516L10.3032 12L5.15164 6.84838C4.93305 6.62206 4.81209 6.31894 4.81483 6.0043C4.81756 5.68966 4.94376 5.38869 5.16625 5.1662C5.38874 4.94371 5.68972 4.81751 6.00436 4.81477C6.31899 4.81204 6.62211 4.93299 6.84844 5.15158L12.8484 11.1516C13.0734 11.3766 13.1998 11.6818 13.1998 12C13.1998 12.3182 13.0734 12.6233 12.8484 12.8484L6.84844 18.8484C6.6234 19.0733 6.31823 19.1997 6.00004 19.1997C5.68184 19.1997 5.37667 19.0733 5.15164 18.8484V18.8484Z" fill="black"/>
</svg>
