<svg width="24" height="24" viewBox="0 0 24 24" fill="none" xmlns="http://www.w3.org/2000/svg">
<path d="M9 1.5C8.20435 1.5 7.44129 1.81607 6.87868 2.37868C6.31607 2.94129 6 3.70435 6 4.5V7.8105C6.49032 7.6717 6.99248 7.5788 7.5 7.533V4.5C7.5 4.10218 7.65804 3.72064 7.93934 3.43934C8.22064 3.15804 8.60218 3 9 3H13.5V6.75C13.5 7.34674 13.7371 7.91903 14.159 8.34099C14.581 8.76295 15.1533 9 15.75 9H19.5V19.5C19.5 19.8978 19.342 20.2794 19.0607 20.5607C18.7794 20.842 18.3978 21 18 21H14.6145C14.1436 21.5698 13.5988 22.0743 12.9945 22.5H18C18.7956 22.5 19.5587 22.1839 20.1213 21.6213C20.6839 21.0587 21 20.2956 21 19.5V8.121C20.9995 7.52446 20.7621 6.95255 20.34 6.531L15.969 2.1585C15.5472 1.73697 14.9753 1.50013 14.379 1.5H9ZM19.1895 7.5H15.75C15.5511 7.5 15.3603 7.42098 15.2197 7.28033C15.079 7.13968 15 6.94891 15 6.75V3.3105L19.1895 7.5ZM8.25 22.5C7.36358 22.5 6.48583 22.3254 5.66689 21.9862C4.84794 21.647 4.10382 21.1498 3.47703 20.523C2.85023 19.8962 2.35303 19.1521 2.01381 18.3331C1.67459 17.5142 1.5 16.6364 1.5 15.75C1.5 14.8636 1.67459 13.9858 2.01381 13.1669C2.35303 12.3479 2.85023 11.6038 3.47703 10.977C4.10382 10.3502 4.84794 9.85303 5.66689 9.51381C6.48583 9.17459 7.36358 9 8.25 9C10.0402 9 11.7571 9.71116 13.023 10.977C14.2888 12.2429 15 13.9598 15 15.75C15 17.5402 14.2888 19.2571 13.023 20.523C11.7571 21.7888 10.0402 22.5 8.25 22.5V22.5ZM10.5 12V12.228C9.64227 11.7324 8.64487 11.5338 7.66272 11.6632C6.68057 11.7926 5.76862 12.2426 5.0685 12.9435C4.93188 13.085 4.85629 13.2744 4.85799 13.4711C4.8597 13.6677 4.93858 13.8558 5.07764 13.9949C5.21669 14.1339 5.4048 14.2128 5.60145 14.2145C5.7981 14.2162 5.98755 14.1406 6.129 14.004C6.58927 13.5438 7.18673 13.2457 7.83126 13.1548C8.47578 13.0639 9.13238 13.185 9.702 13.5H9C8.80109 13.5 8.61032 13.579 8.46967 13.7197C8.32902 13.8603 8.25 14.0511 8.25 14.25C8.25 14.4489 8.32902 14.6397 8.46967 14.7803C8.61032 14.921 8.80109 15 9 15H11.25C11.4489 15 11.6397 14.921 11.7803 14.7803C11.921 14.6397 12 14.4489 12 14.25V12C12 11.8011 11.921 11.6103 11.7803 11.4697C11.6397 11.329 11.4489 11.25 11.25 11.25C11.0511 11.25 10.8603 11.329 10.7197 11.4697C10.579 11.6103 10.5 11.8011 10.5 12ZM8.172 19.875C8.776 19.8853 9.3759 19.7739 9.9359 19.5474C10.4959 19.3209 11.0046 18.9839 11.4315 18.5565C11.5031 18.4873 11.5603 18.4046 11.5996 18.3131C11.6389 18.2216 11.6596 18.1231 11.6604 18.0236C11.6613 17.924 11.6423 17.8252 11.6046 17.733C11.5669 17.6409 11.5112 17.5571 11.4408 17.4867C11.3704 17.4163 11.2866 17.3606 11.1945 17.3229C11.1023 17.2852 11.0035 17.2662 10.9039 17.2671C10.8044 17.2679 10.7059 17.2886 10.6144 17.3279C10.5229 17.3672 10.4402 17.4244 10.371 17.496C9.91073 17.9562 9.31327 18.2543 8.66874 18.3452C8.02422 18.4361 7.36762 18.315 6.798 18H7.5C7.69891 18 7.88968 17.921 8.03033 17.7803C8.17098 17.6397 8.25 17.4489 8.25 17.25C8.25 17.0511 8.17098 16.8603 8.03033 16.7197C7.88968 16.579 7.69891 16.5 7.5 16.5H5.25C5.05109 16.5 4.86032 16.579 4.71967 16.7197C4.57902 16.8603 4.5 17.0511 4.5 17.25V19.5C4.5 19.6989 4.57902 19.8897 4.71967 20.0303C4.86032 20.171 5.05109 20.25 5.25 20.25C5.44891 20.25 5.63968 20.171 5.78033 20.0303C5.92098 19.8897 6 19.6989 6 19.5V19.272C6.66172 19.6524 7.40887 19.8593 8.172 19.8735V19.875Z" fill="black"/>
</svg>
