<svg width="24" height="24" viewBox="0 0 24 24" fill="none" xmlns="http://www.w3.org/2000/svg">
<path d="M12.653 11.5388V7.3847C12.653 6.61971 12.0102 6 11.2166 6C10.423 6 9.78011 6.61971 9.78011 7.3847V10.6153V15.375L7.20675 14.1019C6.62127 13.8122 5.90839 13.92 5.44351 14.3681C4.82788 14.9616 4.85706 15.9319 5.50673 16.4907L10.1993 20.5247C10.5562 20.8303 11.0162 21 11.4938 21H15.9996C16.9109 21 17.7006 20.3897 17.898 19.5319L18.9416 15.0038C19.246 13.6819 18.3288 12.3863 16.941 12.1791L12.653 11.5388Z" stroke="black" stroke-width="1.2" stroke-linecap="round" stroke-linejoin="round"/>
<path d="M6 7C6 4.23903 8.23899 2 11 2C13.761 2 16 4.23903 16 7" stroke="black" stroke-width="1.5" stroke-linecap="round" stroke-linejoin="round"/>
</svg>
