<svg width="24" height="24" viewBox="0 0 24 24" fill="none" xmlns="http://www.w3.org/2000/svg">
<path d="M9 1.5C8.20435 1.5 7.44129 1.81607 6.87868 2.37868C6.31607 2.94129 6 3.70435 6 4.5V7.8105C6.49032 7.6717 6.99248 7.57881 7.5 7.533V4.5C7.5 4.10218 7.65804 3.72064 7.93934 3.43934C8.22064 3.15804 8.60218 3 9 3H13.5V6.75C13.5 7.34674 13.7371 7.91903 14.159 8.34099C14.581 8.76295 15.1533 9 15.75 9H19.5V19.5C19.5 19.8978 19.342 20.2794 19.0607 20.5607C18.7794 20.842 18.3978 21 18 21H14.6145C14.1436 21.5698 13.5988 22.0743 12.9945 22.5H18C18.7956 22.5 19.5587 22.1839 20.1213 21.6213C20.6839 21.0587 21 20.2956 21 19.5V8.121C20.9995 7.52446 20.7621 6.95255 20.34 6.531L15.969 2.1585C15.5472 1.73697 14.9753 1.50013 14.379 1.5H9ZM19.1895 7.5H15.75C15.5511 7.5 15.3603 7.42098 15.2197 7.28033C15.079 7.13968 15 6.94891 15 6.75V3.3105L19.1895 7.5Z" fill="black"/>
<path d="M8 9C8.21217 9 8.41565 9.08676 8.56567 9.2412C8.7157 9.39565 8.79998 9.60511 8.79998 9.82352V11.5743C9.37666 11.7274 9.90041 12.0431 10.3123 12.4859C10.7242 12.9287 11.0078 13.4811 11.1314 14.0808C11.2549 14.6805 11.2134 15.3039 11.0115 15.8806C10.8097 16.4574 10.4555 16.9648 9.98876 17.3456L11.9311 21.842C12.0172 22.0417 12.0228 22.2683 11.9466 22.4722C11.8704 22.6761 11.7186 22.8404 11.5247 22.9291C11.3308 23.0178 11.1106 23.0235 10.9126 22.945C10.7145 22.8666 10.5549 22.7104 10.4687 22.5107L8.52799 18.0143C8.17839 18.0741 7.82161 18.0741 7.47201 18.0143L5.53126 22.5107C5.44512 22.7104 5.28547 22.8666 5.08744 22.945C4.8894 23.0235 4.6692 23.0178 4.47528 22.9291C4.28136 22.8404 4.1296 22.6761 4.05339 22.4722C3.97717 22.2683 3.98275 22.0417 4.06889 21.842L6.00965 17.3456C5.54294 16.9647 5.18878 16.4572 4.98702 15.8803C4.78526 15.3034 4.74391 14.68 4.86761 14.0802C4.99132 13.4805 5.27518 12.9282 5.68724 12.4854C6.0993 12.0427 6.62322 11.7272 7.20002 11.5743V9.82352C7.20002 9.60511 7.2843 9.39565 7.43433 9.2412C7.58435 9.08676 7.78783 9 8 9Z" fill="black"/>
</svg>
