<?xml version="1.0" standalone="no"?>
<!DOCTYPE svg PUBLIC "-//W3C//DTD SVG 1.1//EN" "http://www.w3.org/Graphics/SVG/1.1/DTD/svg11.dtd" >
<svg xmlns="http://www.w3.org/2000/svg">
<metadata>Generated by IcoMoon</metadata>
<defs>
<font id="icomoon" horiz-adv-x="1024">
<font-face units-per-em="1024" ascent="960" descent="-64" />
<missing-glyph horiz-adv-x="1024" />
<glyph unicode="&#x20;" horiz-adv-x="512" d="" />
<glyph unicode="&#xe900;" glyph-name="analog" d="M853.333-21.333h-384c-72.533 0-128 55.467-128 128v384c0 72.533 55.467 128 128 128h384c72.533 0 128-55.467 128-128v-384c0-72.533-55.467-128-128-128zM469.333 533.333c-25.6 0-42.667-17.067-42.667-42.667v-384c0-25.6 17.067-42.667 42.667-42.667h384c25.6 0 42.667 17.067 42.667 42.667v384c0 25.6-17.067 42.667-42.667 42.667h-384zM213.333 277.333h-42.667c-34.133 0-68.267 12.8-89.6 38.4-25.6 21.333-38.4 55.467-38.4 89.6v384c0 34.133 12.8 68.267 38.4 89.6 21.333 25.6 55.467 38.4 89.6 38.4h384c34.133 0 68.267-12.8 89.6-38.4s38.4-55.467 38.4-89.6v-42.667c0-25.6-17.067-42.667-42.667-42.667s-42.667 17.067-42.667 42.667v42.667c0 12.8-4.267 21.333-12.8 29.867s-17.067 12.8-29.867 12.8h-384c-12.8 0-21.333-4.267-29.867-12.8s-12.8-17.067-12.8-29.867v-384c0-12.8 4.267-21.333 12.8-29.867s17.067-12.8 29.867-12.8h42.667c25.6 0 42.667-17.067 42.667-42.667s-17.067-42.667-42.667-42.667z" />
<glyph unicode="&#xe901;" glyph-name="antivirus" d="M837.547 804.267c-4.958 4.010-10.748 6.857-16.951 8.334s-12.655 1.545-18.889 0.199c-45.594-9.555-92.659-9.677-138.3-0.358s-88.892 27.881-127.087 54.545c-7.142 4.954-15.629 7.61-24.32 7.61s-17.178-2.655-24.32-7.61c-38.195-26.663-81.447-45.225-127.088-54.545s-92.706-9.197-138.298 0.358c-6.232 1.346-12.687 1.277-18.889-0.199s-11.995-4.324-16.951-8.334c-4.95-4.016-8.938-9.090-11.67-14.849s-4.139-12.057-4.117-18.431v-317.867c-0.038-61.175 14.54-121.472 42.519-175.872s68.55-101.325 118.335-136.875l155.733-110.933c7.228-5.146 15.876-7.91 24.747-7.91s17.519 2.765 24.747 7.91l155.733 110.933c49.783 35.55 90.355 82.475 118.336 136.875 27.977 54.4 42.556 114.697 42.517 175.872v317.867c0.021 6.374-1.387 12.672-4.117 18.431s-6.72 10.833-11.669 14.849v0zM768 453.12c0.034-47.565-11.294-94.447-33.037-136.747-21.747-42.304-53.278-78.801-91.977-106.453l-130.987-93.44-130.986 93.44c-38.697 27.652-70.23 64.149-91.975 106.453-21.744 42.3-33.071 89.182-33.039 136.747v268.8c89.447-7.656 179.029 13.097 256 59.307 76.971-46.209 166.554-66.963 256-59.307v-268.8zM512 277.333c-23.113 0-44.531 5.687-64.256 17.067-19.742 11.379-35.299 27.021-46.677 46.933h-59.733v42.667h44.8c-1.067 7.113-1.685 14.221-1.856 21.333-0.185 7.113-0.277 14.221-0.277 21.333h-42.667v42.667h42.667c0 7.113 0.093 14.221 0.277 21.333 0.171 7.113 0.789 14.221 1.856 21.333h-44.8v42.667h59.733c4.978 8.178 10.581 15.822 16.811 22.933 6.215 7.111 13.41 13.333 21.589 18.667l-34.133 35.2 29.867 29.867 45.867-45.867c9.954 3.2 20.087 4.8 30.4 4.8s20.446-1.6 30.4-4.8l46.933 45.867 29.867-29.867-35.2-35.2c8.179-5.333 15.561-11.463 22.144-18.389 6.571-6.941 12.343-14.677 17.323-23.211h59.733v-42.667h-44.8c1.067-7.113 1.694-14.221 1.877-21.333 0.171-7.113 0.256-14.221 0.256-21.333h42.667v-42.667h-42.667c0-7.113-0.085-14.221-0.256-21.333-0.183-7.113-0.811-14.221-1.877-21.333h44.8v-42.667h-59.733c-11.379-19.913-26.931-35.554-46.656-46.933-19.742-11.379-41.165-17.067-64.277-17.067zM512 320c23.467 0 43.554 8.354 60.267 25.067s25.067 36.8 25.067 60.267v85.333c0 23.467-8.354 43.555-25.067 60.267s-36.8 25.067-60.267 25.067c-23.467 0-43.554-8.355-60.267-25.067s-25.067-36.8-25.067-60.267v-85.333c0-23.467 8.354-43.554 25.067-60.267s36.8-25.067 60.267-25.067zM469.333 384h85.333v42.667h-85.333v-42.667zM469.333 469.333h85.333v42.667h-85.333v-42.667z" />
<glyph unicode="&#xe902;" glyph-name="browser" d="M238.089 663.040c23.682 0 42.88 17.766 42.88 39.68s-19.198 39.68-42.88 39.68c-23.682 0-42.88-17.765-42.88-39.68s19.198-39.68 42.88-39.68zM402.568 662.4c5.777-0.535 11.602 0.143 17.101 1.993s10.552 4.829 14.832 8.746c4.279 3.918 7.689 8.687 10.018 14.002 2.325 5.315 3.516 11.058 3.49 16.859 0 11.712-4.655 22.944-12.937 31.226s-19.512 12.934-31.224 12.934c-11.712 0-22.944-4.652-31.226-12.934s-12.934-19.514-12.934-31.226c-0.003-5.572 1.114-11.088 3.284-16.221s5.349-9.777 9.349-13.657c4-3.88 8.738-6.917 13.934-8.931s10.743-2.963 16.313-2.792v0zM567.671 662.4c23.684 0 42.88 18.052 42.88 40.32s-19.196 40.32-42.88 40.32c-23.68 0-42.88-18.052-42.88-40.32s19.2-40.32 42.88-40.32zM912 864h-800c-21.217 0-41.565-8.428-56.569-23.431s-23.431-35.351-23.431-56.569v-672c0-21.218 8.429-41.566 23.431-56.567 15.003-15.006 35.351-23.433 56.569-23.433h800c21.218 0 41.566 8.427 56.567 23.433 15.006 15.002 23.433 35.349 23.433 56.567v672c0 21.217-8.427 41.565-23.433 56.569-15.002 15.003-35.349 23.431-56.567 23.431zM112 784h800v-160h-800v160zM112 112v432h800v-432h-800z" />
<glyph unicode="&#xe903;" glyph-name="caret-down" d="M840.393 660h-656.799c-19.7 0-30.7-20.8-18.5-35l328.402-380.802c9.399-10.897 27.499-10.897 36.996 0l328.401 380.802c12.203 14.2 1.199 35-18.5 35z" />
<glyph unicode="&#xe904;" glyph-name="caret-up" d="M858.893 271.002l-328.401 380.799c-9.399 10.9-27.499 10.9-36.996 0l-328.402-380.799c-12.2-14.199-1.2-34.999 18.5-34.999h656.799c19.699 0 30.703 20.8 18.5 34.999z" />
<glyph unicode="&#xe905;" glyph-name="checkbox" d="M810.667 832h-597.333c-47.36 0-85.333-37.973-85.333-85.333v-597.333c0-22.63 8.99-44.335 24.994-60.339s37.708-24.994 60.34-24.994h597.333c22.63 0 44.335 8.99 60.339 24.994s24.994 37.709 24.994 60.339v597.333c0 22.632-8.99 44.337-24.994 60.34s-37.709 24.994-60.339 24.994zM810.667 746.667v-597.333h-597.333v597.333h597.333z" />
<glyph unicode="&#xe906;" glyph-name="checkbox-fill" d="M810.667 832h-597.333c-22.632 0-44.337-8.99-60.34-24.994s-24.994-37.708-24.994-60.34v-597.333c0-22.63 8.99-44.335 24.994-60.339s37.708-24.994 60.34-24.994h597.333c22.63 0 44.335 8.99 60.339 24.994s24.994 37.709 24.994 60.339v597.333c0 22.632-8.99 44.337-24.994 60.34s-37.709 24.994-60.339 24.994zM810.667 746.667v-597.333h-597.333v597.333h597.333zM426.667 234.667l-170.667 170.667 60.16 60.587 110.507-110.507 281.173 281.173 60.16-60.587z" />
<glyph unicode="&#xe907;" glyph-name="checkmark-circle" d="M414.301 478.293c-8.035 8.034-18.931 12.548-30.293 12.548s-22.259-4.514-30.293-12.548c-8.035-8.034-12.548-18.931-12.548-30.293s4.514-22.259 12.548-30.293l128-128c3.985-3.955 8.713-7.083 13.914-9.207 5.197-2.121 10.765-3.2 16.38-3.166 5.841 0.183 11.58 1.57 16.866 4.066 5.282 2.492 10.001 6.046 13.854 10.441l298.667 341.334c6.895 8.562 10.219 19.456 9.28 30.409s-6.067 21.122-14.323 28.385c-8.252 7.263-18.991 11.060-29.973 10.598-10.987-0.461-21.367-5.144-28.983-13.073l-265.387-307.2-97.707 96zM895.991 490.667c-11.315 0-22.17-4.497-30.17-12.497s-12.497-18.854-12.497-30.17c0-90.526-35.959-177.348-99.972-241.361-64.013-64.009-150.835-99.972-241.361-99.972-67.409 0.030-133.3 20.019-189.364 57.451-56.064 37.427-99.791 90.615-125.666 152.862s-32.739 130.761-19.729 196.902c13.011 66.142 45.315 126.951 92.839 174.758 31.604 32.026 69.277 57.428 110.816 74.717s86.111 26.121 131.103 25.976c27.285-0.171 54.468-3.318 81.067-9.387 5.568-1.722 11.426-2.285 17.22-1.655s11.396 2.439 16.461 5.317c5.069 2.878 9.489 6.763 12.996 11.416s6.025 9.975 7.398 15.638c1.374 5.663 1.57 11.547 0.58 17.289s-3.145 11.221-6.332 16.099c-3.187 4.878-7.339 9.050-12.203 12.262s-10.33 5.392-16.068 6.409c-33.143 7.798-67.068 11.805-101.12 11.947-84.292-0.438-166.571-25.836-236.445-72.988s-124.217-113.946-156.168-191.952c-31.951-78.006-40.079-163.728-23.359-246.352 16.72-82.62 57.539-158.438 117.306-217.882 79.219-79.253 186.609-123.9 298.666-124.16 113.161 0 221.683 44.954 301.7 124.966 80.013 80.017 124.966 188.54 124.966 301.7 0 11.315-4.493 22.17-12.497 30.17-8 8-18.854 12.497-30.17 12.497z" />
<glyph unicode="&#xe908;" glyph-name="chevron-double-left" d="M804.19 155.802c-9.6-9.6-22.622-14.989-36.198-14.989s-26.594 5.389-36.198 14.989l-256 256c-9.596 9.6-14.989 22.622-14.989 36.198s5.393 26.598 14.989 36.198l256 256c4.723 4.89 10.377 8.791 16.623 11.474s12.962 4.096 19.763 4.155c6.797 0.059 13.538-1.236 19.831-3.811s12.006-6.376 16.815-11.183c4.809-4.807 8.61-10.524 11.183-16.816 2.577-6.292 3.87-13.034 3.81-19.833-0.055-6.798-1.468-13.516-4.151-19.763s-6.583-11.896-11.477-16.619l-219.802-219.802 219.802-219.802c9.6-9.6 14.993-22.622 14.993-36.198s-5.393-26.598-14.993-36.198v0zM496.99 155.802c-9.6-9.6-22.622-14.989-36.198-14.989s-26.594 5.389-36.197 14.989l-256 256c-9.598 9.6-14.991 22.622-14.991 36.198s5.392 26.598 14.991 36.198l256 256c9.658 9.327 22.59 14.487 36.013 14.371 13.427-0.117 26.266-5.501 35.759-14.994s14.878-22.335 14.997-35.759c0.115-13.425-5.047-26.358-14.374-36.014l-219.8-219.802 219.8-219.802c9.6-9.6 14.993-22.622 14.993-36.198s-5.393-26.598-14.993-36.198v0z" />
<glyph unicode="&#xe909;" glyph-name="chevron-double-right" d="M527.006 155.802c-9.6 9.6-14.989 22.622-14.989 36.198s5.389 26.598 14.989 36.198l219.802 219.802-219.802 219.802c-4.89 4.723-8.789 10.373-11.473 16.619s-4.096 12.965-4.156 19.763c-0.060 6.799 1.237 13.541 3.81 19.833s6.379 12.009 11.183 16.816c4.809 4.807 10.526 8.609 16.819 11.183 6.289 2.575 13.030 3.87 19.831 3.811 6.797-0.059 13.517-1.472 19.763-4.155s11.895-6.584 16.619-11.474l256-256c9.6-9.6 14.989-22.622 14.989-36.198s-5.389-26.598-14.989-36.198l-256-256c-9.6-9.6-22.622-14.989-36.198-14.989s-26.598 5.389-36.198 14.989zM219.803 155.802c-9.599 9.604-14.991 22.622-14.991 36.198s5.392 26.598 14.991 36.198l219.8 219.802-219.8 219.802c-9.327 9.656-14.487 22.589-14.371 36.014s5.501 26.266 14.994 35.759c9.493 9.493 22.335 14.877 35.759 14.994s26.357-5.044 36.014-14.371l255.998-256.001c9.6-9.6 14.993-22.622 14.993-36.198s-5.393-26.594-14.993-36.198l-255.998-256c-9.602-9.596-22.622-14.989-36.198-14.989s-26.597 5.393-36.198 14.989v0z" />
<glyph unicode="&#xe90a;" glyph-name="chevron-l" d="M650.603 688.999c9.6-9.601 14.993-22.622 14.993-36.198s-5.393-26.597-14.993-36.198l-168.602-168.602 168.602-168.602c9.327-9.655 14.49-22.588 14.37-36.015-0.115-13.423-5.5-26.266-14.993-35.759s-22.332-14.878-35.759-14.993c-13.423-0.115-26.355 5.043-36.015 14.37l-204.799 204.8c-9.598 9.6-14.991 22.622-14.991 36.198s5.392 26.598 14.991 36.198l204.799 204.8c9.604 9.599 22.622 14.991 36.198 14.991s26.598-5.392 36.198-14.991v0z" />
<glyph unicode="&#xe90b;" glyph-name="chevron-r" d="M373.407 207.002c-9.598 9.6-14.991 22.622-14.991 36.198s5.392 26.598 14.991 36.198l168.6 168.602-168.6 168.602c-9.327 9.656-14.487 22.589-14.37 36.014s5.501 26.266 14.994 35.759c9.493 9.493 22.335 14.877 35.759 14.994s26.357-5.044 36.013-14.37l204.8-204.8c9.6-9.6 14.993-22.622 14.993-36.198s-5.393-26.598-14.993-36.198l-204.8-204.8c-9.6-9.6-22.621-14.989-36.197-14.989s-26.597 5.389-36.198 14.989z" />
<glyph unicode="&#xe90c;" glyph-name="close" d="M725.333 192c-12.8 0-21.333 4.267-29.867 12.8l-426.667 426.667c-17.067 17.067-17.067 42.667 0 59.733s42.667 17.067 59.733 0l426.667-426.667c17.067-17.067 17.067-42.667 0-59.733-8.533-8.533-17.067-12.8-29.867-12.8zM298.667 192c-12.8 0-21.333 4.267-29.867 12.8-17.067 17.067-17.067 42.667 0 59.733l426.667 426.667c17.067 17.067 42.667 17.067 59.733 0s17.067-42.667 0-59.733l-426.667-426.667c-8.533-8.533-17.067-12.8-29.867-12.8z" />
<glyph unicode="&#xe90d;" glyph-name="cloud" d="M746.667 213.333h-277.333c-25.6 0-42.667 17.067-42.667 42.667s17.067 42.667 42.667 42.667h277.333c34.133 0 149.333 8.533 149.333 128 0 136.533-136.533 157.867-153.6 162.133-17.067 0-29.867 12.8-34.133 29.867-12.8 46.933-55.467 128-192 128-140.8 0-174.933-81.067-196.267-162.133-4.267-17.067-21.333-29.867-42.667-29.867 0 0-149.333-8.533-149.333-136.533 0-110.933 123.733-119.467 149.333-119.467s42.667-17.067 42.667-42.667c0-25.6-17.067-42.667-42.667-42.667-115.2 0-234.667 64-234.667 204.8 0 149.333 119.467 209.067 200.533 221.867 25.6 68.267 85.333 192 268.8 192 174.933 0 243.2-102.4 268.8-166.4 81.067-17.067 200.533-85.333 200.533-238.933 0-149.333-119.467-213.333-234.667-213.333zM576 106.667c-12.8 0-21.333 4.267-29.867 12.8l-106.667 106.667c-17.067 17.067-17.067 42.667 0 59.733l106.667 106.667c17.067 17.067 42.667 17.067 59.733 0s17.067-42.667 0-59.733l-76.8-76.8 76.8-76.8c17.067-17.067 17.067-42.667 0-59.733-8.533-8.533-17.067-12.8-29.867-12.8z" />
<glyph unicode="&#xe90e;" glyph-name="crm" d="M310.384 515.994l-71.68-16.384c-9.933 33.792-32.87 51.712-68.71 53.76-50.79-2.97-77.619-38.298-80.691-105.984 2.97-67.686 29.901-104.038 80.691-109.056 40.858 1.024 64.717 25.395 71.68 73.216l71.68-22.426c-16.896-73.728-64.717-110.49-143.36-110.49-101.581 5.018-154.829 61.235-159.744 168.755 5.018 107.52 58.265 164.25 159.744 170.292 71.68-3.174 118.477-37.069 140.39-101.684zM641.95 284.467h-94.106l-80.691 126.976h-43.214v-128.41h-74.752v329.932h150.836c80.589-2.048 122.47-34.816 125.44-98.508 1.024-54.784-25.907-87.654-80.691-98.611l97.178-131.379zM488.145 554.803h-64.206v-88.064h64.206c39.834 0 59.187 14.438 58.266 43.315 1.946 30.72-17.51 45.67-58.266 44.748zM1013.769 283.034h-71.68v195.584c0 20.89 1.024 45.773 2.97 74.65h-1.536c-2.97-19.968-6.963-38.81-11.981-56.73l-61.133-213.504h-62.669l-61.235 219.443c-2.97 11.981-6.963 28.877-11.981 50.79h-1.536c0-5.939 0.512-14.438 1.536-25.395 1.024-29.901 1.536-51.302 1.536-64.205v-180.736h-70.144v330.035h110.49l58.163-216.474c1.024-5.939 2.458-17.92 4.506-35.84 0 2.97 0.512 6.963 1.536 11.981 0 12.902 1.024 20.89 2.97 23.859l58.266 216.576h111.923v-330.035z" />
<glyph unicode="&#xe90f;" glyph-name="designers" d="M692.907 468.907l66.987 66.987-160 160-66.987-66.987-176.64 176.213c-33.28 33.28-87.467 33.28-120.747 0l-81.067-81.067c-33.28-33.28-33.28-87.467 0-120.747l176.213-176.214-202.667-203.093v-160h160l203.093 203.093 176.213-176.213c40.533-40.533 95.147-25.6 120.747 0l81.067 81.067c33.28 33.28 33.28 87.467 0 120.747l-176.213 176.213zM391.68 487.68l-176.64 176.214 80.64 81.067 54.187-54.187-50.347-50.773 60.16-60.16 50.773 50.773 61.867-61.867-80.64-81.067zM727.893 151.040l-176.213 176.213 81.067 81.067 61.867-61.867-50.773-50.773 60.16-60.16 50.773 50.773 54.187-54.187-81.067-81.067zM883.627 659.627c3.955 3.947 7.095 8.636 9.233 13.798 2.142 5.161 3.243 10.694 3.243 16.282s-1.101 11.121-3.243 16.282c-2.138 5.162-5.278 9.85-9.233 13.798l-99.84 99.84c-20.053 20.053-47.787 12.373-60.16 0l-78.080-78.080 160-160 78.080 78.080z" />
<glyph unicode="&#xe910;" glyph-name="desktop" d="M928 820h-832c-17.7 0-32-14.3-32-32v-495.998c0-17.702 14.3-32 32-32h379.998v-112h-171.998c-8.8 0-16-7.202-16-16v-48c0-4.403 3.6-8.004 8-8.004h432c4.399 0 8 3.601 8 8.004v48c0 8.798-7.198 16-16 16h-171.998v112h379.998c17.698 0 32 14.298 32 32v495.998c0 17.7-14.302 32-32 32zM888 331.998h-752v416.002h752v-416.002z" />
<glyph unicode="&#xe911;" glyph-name="dev" d="M277.333 320h81.067c16.355 0 28.615 4.096 36.779 12.288 8.192 8.162 12.288 20.425 12.288 36.779v157.867c0 16.355-4.096 28.629-12.288 36.821-8.163 8.163-20.423 12.245-36.779 12.245h-81.067c-5.689 0-10.667-2.133-14.933-6.4s-6.4-9.245-6.4-14.933v-213.333c0-5.687 2.133-10.667 6.4-14.933s9.245-6.4 14.933-6.4zM464 320h80c7.113 0 12.983 2.317 17.621 6.955 4.608 4.608 6.912 10.466 6.912 17.579s-2.304 12.983-6.912 17.621c-4.638 4.608-10.509 6.912-17.621 6.912h-62.933v55.467h30.933c7.113 0 12.983 2.317 17.621 6.955 4.608 4.608 6.912 10.466 6.912 17.579s-2.304 12.983-6.912 17.621c-4.638 4.608-10.509 6.912-17.621 6.912h-30.933v53.333h62.933c7.113 0 12.983 2.317 17.621 6.955 4.608 4.608 6.912 10.467 6.912 17.579s-2.304 12.985-6.912 17.621c-4.638 4.608-10.509 6.912-17.621 6.912h-80c-8.533 0-16-3.2-22.4-9.6s-9.6-13.867-9.6-22.4v-192c0-8.533 3.2-16 9.6-22.4s13.867-9.6 22.4-9.6zM683.733 321.067c7.113 0 14.221 2.317 21.333 6.955 7.113 4.608 12.446 12.958 16 25.045l51.2 192c2.133 9.245 0.713 16.711-4.267 22.4s-11.379 8.533-19.2 8.533c-5.687 0-10.837-1.607-15.445-4.821-4.638-3.186-7.667-7.623-9.088-13.312l-40.533-156.8-40.533 156.8c-1.421 5.689-4.437 10.126-9.045 13.312-4.638 3.214-9.801 4.821-15.488 4.821-7.821 0-14.221-3.2-19.2-9.6s-6.4-13.511-4.267-21.333l51.2-192c3.554-12.087 9.246-20.437 17.067-25.045 7.821-4.638 14.579-6.955 20.267-6.955zM305.067 369.067v157.867h53.333v-157.867h-53.333zM213.333 64c-23.467 0-43.563 8.35-60.288 25.045-16.697 16.725-25.045 36.821-25.045 60.288v597.333c0 23.467 8.349 43.563 25.045 60.288 16.725 16.697 36.821 25.045 60.288 25.045h597.333c23.467 0 43.563-8.349 60.288-25.045 16.695-16.725 25.045-36.821 25.045-60.288v-597.333c0-23.467-8.35-43.563-25.045-60.288-16.725-16.695-36.821-25.045-60.288-25.045h-597.333zM213.333 149.333h597.333v597.333h-597.333v-597.333z" />
<glyph unicode="&#xe912;" glyph-name="document-edit" d="M320 896c-33.948 0-66.505-13.486-90.51-37.49s-37.49-56.562-37.49-90.51v-639.872c0-33.946 13.486-66.505 37.49-90.509s56.562-37.491 90.51-37.491h66.944l16 64h-82.944c-16.974 0-33.253 6.741-45.255 18.743s-18.745 28.284-18.745 45.257v639.872c0 16.974 6.743 33.253 18.745 45.255s28.281 18.745 45.255 18.745h192v-160c0-25.439 10.095-49.837 28.070-67.837 17.98-18 42.364-28.129 67.802-28.163h160v-92.16c19.226 13.133 41.054 21.973 64 25.92v103.808c-0.021 25.452-10.15 49.854-28.16 67.84l-186.432 186.496c-17.997 17.985-42.398 28.090-67.84 28.096h-229.44zM754.624 640h-146.624c-8.486 0-16.627 3.372-22.626 9.373-6.003 6.001-9.374 14.141-9.374 22.627v146.816l178.688-178.688-0.064-0.128zM831.872 444.16c-16.009-4.732-30.575-13.402-42.368-25.216l-274.304-274.304c-22.255-22.251-38.199-50.014-46.208-80.448l-0.576-2.112-19.328-77.504c-1.63-6.532-1.545-13.372 0.247-19.857 1.792-6.49 5.235-12.403 9.988-17.169s10.654-8.222 17.139-10.031c6.481-1.813 13.321-1.916 19.857-0.303l77.504 19.392c31.245 7.804 59.785 23.953 82.56 46.72l274.432 274.432c15.723 15.689 25.762 36.173 28.535 58.21s-1.882 44.369-13.231 63.462c-11.345 19.098-28.736 33.86-49.417 41.963-20.681 8.098-43.473 9.075-64.768 2.765h-0.064z" />
<glyph unicode="&#xe913;" glyph-name="document-sync" d="M384 896c-33.948 0-66.505-13.486-90.51-37.49s-37.49-56.562-37.49-90.51v-141.248c20.92 5.922 42.346 9.886 64 11.84v129.408c0 16.974 6.743 33.253 18.745 45.255s28.281 18.745 45.255 18.745h192v-160c0-25.461 10.116-49.879 28.117-67.882 18.005-18.004 42.423-28.118 67.883-28.118h160v-448c0-16.973-6.741-33.254-18.743-45.257s-28.284-18.743-45.257-18.743h-144.448c-20.092-24.311-43.337-45.837-69.12-64h213.568c33.946 0 66.505 13.487 90.509 37.491s37.491 56.563 37.491 90.509v485.504c-0.021 25.452-10.15 49.854-28.16 67.84l-186.496 186.56c-17.997 17.985-42.398 28.090-67.84 28.096h-229.504zM818.752 640h-146.752c-8.486 0-16.627 3.372-22.626 9.373-6.003 6.001-9.374 14.141-9.374 22.627v146.752l178.752-178.752zM352 0c-37.821 0-75.271 7.45-110.213 21.922s-66.691 35.686-93.434 62.43c-26.743 26.743-47.957 58.492-62.431 93.436-14.473 34.94-21.923 72.393-21.923 110.212s7.449 75.273 21.923 110.212c14.473 34.944 35.687 66.692 62.431 93.436s58.492 47.956 93.434 62.429c34.941 14.473 72.392 21.923 110.213 21.923 76.382 0 149.636-30.343 203.648-84.352 54.007-54.012 84.352-127.266 84.352-203.648s-30.345-149.636-84.352-203.648c-54.012-54.007-127.266-84.352-203.648-84.352v0zM448 448v-9.728c-36.596 21.146-79.152 29.619-121.057 24.098s-80.815-24.721-110.687-54.626c-5.829-6.037-9.054-14.118-8.982-22.511 0.073-8.388 3.439-16.414 9.372-22.349 5.933-5.931 13.959-9.297 22.349-9.37s16.474 3.153 22.509 8.981c19.638 19.635 45.13 32.354 72.63 36.233s55.514-1.289 79.818-14.729h-29.952c-8.487 0-16.626-3.371-22.627-9.374-6.001-5.999-9.373-14.14-9.373-22.626s3.372-16.627 9.373-22.626c6.001-6.003 14.141-9.374 22.627-9.374h96c8.486 0 16.627 3.371 22.626 9.374 6.003 5.999 9.374 14.14 9.374 22.626v96c0 8.486-3.371 16.627-9.374 22.626-5.999 6.003-14.14 9.374-22.626 9.374s-16.627-3.371-22.626-9.374c-6.003-5.999-9.374-14.14-9.374-22.626zM348.672 112c25.771-0.439 51.366 4.314 75.26 13.978s45.598 24.043 63.812 42.278c3.055 2.953 5.495 6.481 7.172 10.385s2.56 8.107 2.594 12.352c0.038 4.25-0.772 8.465-2.381 12.399-1.609 3.93-3.985 7.505-6.989 10.509s-6.579 5.38-10.509 6.989c-3.934 1.609-8.149 2.419-12.399 2.381-4.245-0.034-8.448-0.917-12.352-2.594s-7.433-4.117-10.385-7.172c-19.638-19.635-45.13-32.354-72.63-36.233s-55.514 1.289-79.818 14.729h29.952c8.487 0 16.626 3.371 22.627 9.374 6.001 5.999 9.373 14.14 9.373 22.626s-3.372 16.627-9.373 22.626c-6.001 6.003-14.141 9.374-22.627 9.374h-96c-8.487 0-16.626-3.371-22.627-9.374-6.001-5.999-9.373-14.14-9.373-22.626v-96c0-8.486 3.372-16.627 9.373-22.626 6.001-6.003 14.141-9.374 22.627-9.374s16.626 3.371 22.627 9.374c6.001 5.999 9.373 14.14 9.373 22.626v9.728c28.233-16.23 60.112-25.058 92.672-25.664v-0.064z" />
<glyph unicode="&#xe914;" glyph-name="edit" d="M426.667 64l170.667 170.667h256c23.467 0 43.563-8.35 60.288-25.045 16.695-16.725 25.045-36.821 25.045-60.288s-8.35-43.563-25.045-60.288c-16.725-16.695-36.821-25.045-60.288-25.045h-426.667zM780.8 579.2l-181.333 179.2 59.733 59.733c16.354 16.355 36.45 24.533 60.288 24.533 23.808 0 43.891-8.178 60.245-24.533l59.733-59.733c16.354-16.355 24.887-36.096 25.6-59.221 0.713-23.097-7.113-42.823-23.467-59.179l-60.8-60.8zM128 64c-12.089 0-22.215 4.096-30.379 12.288-8.192 8.162-12.288 18.291-12.288 30.379v120.533c0 5.687 1.067 11.191 3.2 16.512 2.133 5.346 5.333 10.155 9.6 14.421l439.467 439.467 181.333-181.333-439.467-439.467c-4.267-4.267-9.059-7.467-14.379-9.6-5.347-2.133-10.866-3.2-16.555-3.2h-120.533z" />
<glyph unicode="&#xe915;" glyph-name="external-link" d="M597.333 832v-85.333h153.173l-419.413-419.413 60.16-60.16 419.413 419.413v-153.173h85.333v298.667zM810.667 149.333h-597.333v597.333h298.667v85.333h-298.667c-22.632 0-44.337-8.99-60.34-24.994s-24.994-37.708-24.994-60.34v-597.333c0-22.63 8.99-44.335 24.994-60.339s37.708-24.994 60.34-24.994h597.333c22.63 0 44.335 8.99 60.339 24.994s24.994 37.709 24.994 60.339v298.667h-85.333v-298.667z" />
<glyph unicode="&#xe916;" glyph-name="file-text" d="M768-21.333h-512c-34.133 0-68.267 12.8-89.6 38.4-25.6 21.333-38.4 55.467-38.4 89.6v682.667c0 34.133 12.8 68.267 38.4 89.6 21.333 25.6 55.467 38.4 89.6 38.4h341.333c12.8 0 21.333-4.267 29.867-12.8l256-256c8.533-8.533 12.8-17.067 12.8-29.867v-512c0-34.133-12.8-68.267-38.4-89.6s-55.467-38.4-89.6-38.4zM256 832c-12.8 0-21.333-4.267-29.867-12.8s-12.8-17.067-12.8-29.867v-682.667c0-12.8 4.267-21.333 12.8-29.867s17.067-12.8 29.867-12.8h512c12.8 0 21.333 4.267 29.867 12.8s12.8 17.067 12.8 29.867v494.933l-230.4 230.4h-324.267zM853.333 576h-256c-25.6 0-42.667 17.067-42.667 42.667v256c0 25.6 17.067 42.667 42.667 42.667s42.667-17.067 42.667-42.667v-213.333h213.333c25.6 0 42.667-17.067 42.667-42.667s-17.067-42.667-42.667-42.667zM682.667 362.667h-341.333c-25.6 0-42.667 17.067-42.667 42.667s17.067 42.667 42.667 42.667h341.333c25.6 0 42.667-17.067 42.667-42.667s-17.067-42.667-42.667-42.667zM682.667 192h-341.333c-25.6 0-42.667 17.067-42.667 42.667s17.067 42.667 42.667 42.667h341.333c25.6 0 42.667-17.067 42.667-42.667s-17.067-42.667-42.667-42.667zM426.667 533.333h-85.333c-25.6 0-42.667 17.067-42.667 42.667s17.067 42.667 42.667 42.667h85.333c25.6 0 42.667-17.067 42.667-42.667s-17.067-42.667-42.667-42.667z" />
<glyph unicode="&#xe917;" glyph-name="filter" d="M384 746.666c-11.316 0-22.168-4.495-30.17-12.497s-12.497-18.854-12.497-30.17c0-11.316 4.495-22.168 12.497-30.17s18.854-12.497 30.17-12.497c11.316 0 22.168 4.495 30.17 12.497s12.497 18.854 12.497 30.17c0 11.316-4.495 22.168-12.497 30.17s-18.854 12.497-30.17 12.497zM263.253 746.666c8.815 24.983 25.162 46.616 46.788 61.918s47.466 23.52 73.958 23.52c26.492 0 52.331-8.217 73.958-23.52s37.973-36.936 46.788-61.918h305.92c11.315 0 22.17-4.495 30.17-12.497s12.497-18.854 12.497-30.17c0-11.316-4.497-22.168-12.497-30.17s-18.854-12.497-30.17-12.497h-305.92c-8.815-24.983-25.161-46.616-46.788-61.918s-47.466-23.52-73.958-23.52c-26.492 0-52.332 8.218-73.958 23.52s-37.973 36.936-46.788 61.918h-49.92c-11.316 0-22.168 4.495-30.17 12.497s-12.497 18.854-12.497 30.17c0 11.316 4.495 22.168 12.497 30.17s18.854 12.497 30.17 12.497h49.92zM640 490.667c-11.315 0-22.17-4.497-30.17-12.497s-12.497-18.854-12.497-30.17c0-11.315 4.497-22.17 12.497-30.17 8-8.004 18.854-12.497 30.17-12.497s22.17 4.493 30.17 12.497c8 8 12.497 18.854 12.497 30.17s-4.497 22.17-12.497 30.17c-8 8-18.854 12.497-30.17 12.497zM519.253 490.667c8.815 24.981 25.161 46.616 46.788 61.918s47.467 23.52 73.958 23.52c26.492 0 52.331-8.217 73.958-23.52s37.973-36.937 46.788-61.918h49.92c11.315 0 22.17-4.497 30.17-12.497s12.497-18.854 12.497-30.17c0-11.315-4.497-22.17-12.497-30.17-8-8.004-18.854-12.497-30.17-12.497h-49.92c-8.815-24.981-25.161-46.618-46.788-61.918-21.628-15.305-47.467-23.522-73.958-23.522s-52.331 8.218-73.958 23.522c-21.628 15.3-37.973 36.937-46.788 61.918h-305.92c-11.316 0-22.168 4.493-30.17 12.497-8.001 8-12.497 18.854-12.497 30.17s4.495 22.17 12.497 30.17c8.002 8 18.854 12.497 30.17 12.497h305.92zM384 234.667c-11.316 0-22.168-4.497-30.17-12.497s-12.497-18.854-12.497-30.17c0-11.315 4.495-22.17 12.497-30.17 8.002-8.004 18.854-12.497 30.17-12.497s22.168 4.493 30.17 12.497c8.001 8 12.497 18.854 12.497 30.17s-4.495 22.17-12.497 30.17c-8.002 8-18.854 12.497-30.17 12.497zM263.253 234.667c8.815 24.981 25.162 46.618 46.788 61.918s47.466 23.518 73.958 23.518c26.492 0 52.331-8.218 73.958-23.518s37.973-36.937 46.788-61.918h305.92c11.315 0 22.17-4.497 30.17-12.497s12.497-18.854 12.497-30.17c0-11.315-4.497-22.17-12.497-30.17-8-8.004-18.854-12.497-30.17-12.497h-305.92c-8.815-24.981-25.161-46.618-46.788-61.918-21.628-15.305-47.466-23.522-73.958-23.522s-52.332 8.218-73.958 23.522c-21.626 15.3-37.973 36.937-46.788 61.918h-49.92c-11.316 0-22.168 4.493-30.17 12.497-8.001 8-12.497 18.854-12.497 30.17s4.495 22.17 12.497 30.17c8.002 8 18.854 12.497 30.17 12.497h49.92z" />
<glyph unicode="&#xe918;" glyph-name="home" d="M927.701 433.877l-384 426.665c-16.171 18.005-47.232 18.005-63.403 0l-384.001-426.665c-5.527-6.127-9.155-13.73-10.443-21.879s-0.18-16.499 3.189-24.030c6.827-15.403 22.101-25.301 38.955-25.301h85.333v-298.667c0-11.315 4.495-22.17 12.497-30.17 8.001-8.004 18.854-12.497 30.17-12.497h128c11.316 0 22.168 4.493 30.17 12.497 8.002 8 12.497 18.854 12.497 30.17v170.667h170.668v-170.667c0-11.315 4.493-22.17 12.497-30.17 8-8.004 18.854-12.497 30.17-12.497h128c11.315 0 22.17 4.493 30.17 12.497 8 8 12.497 18.854 12.497 30.17v298.667h85.333c8.265-0.038 16.358 2.334 23.296 6.818 6.942 4.489 12.425 10.897 15.787 18.445 3.358 7.548 4.45 15.91 3.14 24.068-1.31 8.162-4.966 15.761-10.522 21.879v0z" />
<glyph unicode="&#xe919;" glyph-name="info" d="M512-21.333c-260.267 0-469.333 209.067-469.333 469.333s209.067 469.333 469.333 469.333 469.333-209.067 469.333-469.333c0-260.267-209.067-469.333-469.333-469.333zM512 832c-213.333 0-384-170.667-384-384s170.667-384 384-384c213.333 0 384 170.667 384 384s-170.667 384-384 384zM512 234.667c-25.6 0-42.667 17.067-42.667 42.667v170.667c0 25.6 17.067 42.667 42.667 42.667s42.667-17.067 42.667-42.667v-170.667c0-25.6-17.067-42.667-42.667-42.667zM512 576c-25.6 0-42.667 17.067-42.667 42.667s17.067 42.667 42.667 42.667v0c25.6 0 42.667-17.067 42.667-42.667s-17.067-42.667-42.667-42.667z" />
<glyph unicode="&#xe91a;" glyph-name="logo24" d="M452.267 418.133c0-51.2-38.4-34.133-89.6-34.133s-89.6-17.067-89.6 34.133 38.4 89.6 89.6 89.6c46.933 0 89.6-38.4 89.6-89.6zM750.933 418.133c0-51.2-38.4-34.133-89.6-34.133s-89.6-17.067-89.6 34.133c0 51.2 38.4 89.6 89.6 89.6 46.933 0 89.6-42.667 89.6-89.6zM512-29.867c-29.867 0-59.733 8.533-85.333 21.333l-277.333 157.867c-55.467 29.867-85.333 85.333-85.333 145.067v311.467c0 59.733 34.133 115.2 85.333 145.067l277.333 153.6c51.2 29.867 119.467 29.867 170.667 0l277.333-157.867c51.2-29.867 85.333-85.333 85.333-145.067v-315.733c0-59.733-34.133-115.2-85.333-145.067l-277.333-149.333c-25.6-17.067-55.467-21.333-85.333-21.333zM512 819.2c-12.8 0-21.333-4.267-34.133-8.533l-277.333-153.6c-17.067-12.8-29.867-29.867-29.867-51.2v-315.733c0-21.333 12.8-38.4 29.867-51.2v0l277.333-157.867c21.333-12.8 42.667-12.8 64 0l277.333 157.867c17.067 12.8 29.867 29.867 29.867 51.2v315.733c0 21.333-12.8 38.4-29.867 51.2l-277.333 157.867c-8.533 4.267-17.067 4.267-29.867 4.267z" />
<glyph unicode="&#xe91b;" glyph-name="logo32" d="M451.2 419.2c0-48-41.6-32-89.6-32s-89.6-16-89.6 32c0 48 41.6 89.6 89.6 89.6s89.6-41.6 89.6-89.6zM748.8 416c0-48-41.6-32-89.6-32s-89.6-16-89.6 32c0 48 41.6 89.6 89.6 89.6 51.2 0 89.6-38.4 89.6-89.6zM512-32c-28.8 0-57.6 6.4-86.4 22.4l-275.2 156.8c-54.4 28.8-86.4 83.2-86.4 144v313.6c0 60.8 32 115.2 83.2 144l278.4 156.8c51.2 28.8 118.4 28.8 169.6 0l278.4-156.8c54.4-28.8 86.4-83.2 86.4-144v-313.6c0-57.6-32-115.2-86.4-144l-281.6-160c-25.6-12.8-54.4-19.2-80-19.2zM198.4 656c-19.2-9.6-28.8-28.8-28.8-51.2v-313.6c0-19.2 12.8-41.6 32-51.2v0l275.2-156.8c19.2-12.8 44.8-12.8 67.2 0l278.4 156.8c19.2 9.6 32 32 32 51.2v313.6c0 22.4-12.8 41.6-32 51.2l-278.4 156.8c-19.2 12.8-44.8 12.8-67.2 0l-278.4-156.8z" />
<glyph unicode="&#xe91c;" glyph-name="mail" d="M853.333 64h-682.667c-72.533 0-128 55.467-128 128v512c0 72.533 55.467 128 128 128h682.667c72.533 0 128-55.467 128-128v-512c0-72.533-55.467-128-128-128zM170.667 746.667c-25.6 0-42.667-17.067-42.667-42.667v-512c0-25.6 17.067-42.667 42.667-42.667h682.667c25.6 0 42.667 17.067 42.667 42.667v512c0 25.6-17.067 42.667-42.667 42.667h-682.667zM512 362.667c-8.533 0-17.067 4.267-25.6 8.533l-426.667 298.667c-17.067 12.8-21.333 38.4-8.533 59.733 12.8 17.067 38.4 21.333 59.733 8.533l401.067-281.6 401.067 281.6c21.333 12.8 46.933 8.533 59.733-8.533 12.8-21.333 8.533-46.933-8.533-59.733l-426.667-298.667c-8.533-4.267-17.067-8.533-25.6-8.533z" />
<glyph unicode="&#xe91d;" glyph-name="mark-email-read" d="M853.333 789.333h-682.667c-46.933 0-84.907-38.4-84.907-85.333l-0.427-512c0-46.933 38.4-85.333 85.333-85.333h298.667c23.565 0 42.667 19.102 42.667 42.667v0c0 23.565-19.102 42.667-42.667 42.667h-256c-23.564 0-42.667 19.102-42.667 42.667v376.302c0 3.351 3.686 5.394 6.528 3.618l312.192-195.122c13.837-8.644 31.39-8.644 45.227 0l312.192 195.122c2.842 1.776 6.528-0.267 6.528-3.618v-162.969c0-23.565 19.102-42.667 42.667-42.667v0c23.565 0 42.667 19.102 42.667 42.667v256c0 46.933-38.4 85.333-85.333 85.333zM534.613 504.798c-13.837-8.644-31.39-8.644-45.227 0l-306.104 191.317c-3.635 2.272-2.025 7.885 2.261 7.885h652.912c4.288 0 5.897-5.613 2.261-7.885l-306.103-191.317zM627.413 139.307l90.79-90.79c16.661-16.661 43.678-16.661 60.339 0l180.941 180.941c16.747 16.747 16.525 44.049-0.337 60.676-16.695 16.461-43.674 16.486-60.25-0.090l-120.781-120.781c-16.661-16.661-43.678-16.661-60.339 0l-30.204 30.204c-16.614 16.614-43.546 16.614-60.16 0s-16.614-43.546 0-60.16z" />
<glyph unicode="&#xe91e;" glyph-name="marketing" d="M912 825.6c-11.004 7.118-23.586 11.424-36.642 12.54s-26.189-0.992-38.238-6.14l-394.88-155.52c-9.348-3.805-19.347-5.761-29.44-5.76h-252.8c-21.217 0-41.565-8.429-56.569-23.432s-23.431-35.351-23.431-56.568v-6.4h-80v-192h80v-8.32c0.501-20.881 9.151-40.742 24.099-55.33 14.949-14.592 35.012-22.754 55.901-22.75l96-203.52c6.501-13.705 16.735-25.297 29.527-33.451 12.793-8.149 27.625-12.527 42.793-12.629h40.32c21.106 0.171 41.291 8.674 56.155 23.659s23.205 35.234 23.205 56.341v161.92l389.12-155.52c9.57-3.81 19.78-5.764 30.080-5.76 15.983 0.256 31.543 5.15 44.8 14.080 10.526 7.108 19.209 16.619 25.331 27.75 6.118 11.127 9.502 23.552 9.869 36.25v544.64c-0.060 13.023-3.294 25.835-9.429 37.323s-14.98 21.304-25.771 28.597v0zM368 590.72v-206.72h-208v206.72h208zM368 136.32h-40.32l-78.72 169.6h119.040v-169.6zM471.68 374.4c-7.599 3.883-15.522 7.095-23.68 9.6v211.2c8.081 1.667 16 4.022 23.68 7.040l395.52 157.44v-542.72l-395.52 157.44zM949.12 568.32v-160c21.218 0 41.566 8.427 56.567 23.433 15.006 15.002 23.433 35.349 23.433 56.567s-8.427 41.566-23.433 56.569c-15.002 15.003-35.349 23.432-56.567 23.432v0z" />
<glyph unicode="&#xe91f;" glyph-name="menu" d="M896 405.333h-768c-25.6 0-42.667 17.067-42.667 42.667s17.067 42.667 42.667 42.667h768c25.6 0 42.667-17.067 42.667-42.667s-17.067-42.667-42.667-42.667zM896 661.333h-768c-25.6 0-42.667 17.067-42.667 42.667s17.067 42.667 42.667 42.667h768c25.6 0 42.667-17.067 42.667-42.667s-17.067-42.667-42.667-42.667zM896 149.333h-768c-25.6 0-42.667 17.067-42.667 42.667s17.067 42.667 42.667 42.667h768c25.6 0 42.667-17.067 42.667-42.667s-17.067-42.667-42.667-42.667z" />
<glyph unicode="&#xe920;" glyph-name="message" d="M128 21.333c-4.267 0-12.8 0-17.067 4.267-17.067 4.267-25.6 21.333-25.6 38.4v682.667c0 34.133 12.8 68.267 38.4 89.6 21.333 25.6 55.467 38.4 89.6 38.4h597.333c34.133 0 68.267-12.8 89.6-38.4s38.4-55.467 38.4-89.6v-426.667c0-34.133-12.8-68.267-38.4-89.6s-55.467-38.4-89.6-38.4h-494.933l-157.867-157.867c-8.533-8.533-17.067-12.8-29.867-12.8zM213.333 789.333c-12.8 0-21.333-4.267-29.867-12.8s-12.8-17.067-12.8-29.867v-580.267l98.133 98.133c8.533 8.533 17.067 12.8 29.867 12.8h512c12.8 0 21.333 4.267 29.867 12.8s12.8 17.067 12.8 29.867v426.667c0 12.8-4.267 21.333-12.8 29.867s-17.067 12.8-29.867 12.8h-597.333z" />
<glyph unicode="&#xe921;" glyph-name="messageres" d="M241.323 86.229c-6.126-5.325-13.645-8.794-21.673-9.997s-16.233-0.094-23.652 3.204c-7.418 3.298-13.743 8.64-18.229 15.407s-6.95 14.673-7.101 22.788v95.701c-22.632 0-44.337 8.99-60.34 24.994s-24.994 37.709-24.994 60.339v298.667c0 22.632 8.99 44.337 24.994 60.34s37.708 24.994 60.34 24.994h469.333c22.63 0 44.335-8.99 60.339-24.994s24.994-37.708 24.994-60.34v-298.667c0-22.63-8.99-44.335-24.994-60.339s-37.709-24.994-60.339-24.994h-213.205l-185.472-127.104zM277.333 218.197c3.888 0.021 7.706 1.037 11.093 2.944l100.48 69.888c7.151 4.975 15.653 7.637 24.363 7.637h184.064c11.315 0 22.17 4.497 30.17 12.497s12.497 18.854 12.497 30.17v213.333c0 11.316-4.497 22.168-12.497 30.17s-18.854 12.497-30.17 12.497h-384c-11.316 0-22.168-4.495-30.17-12.497s-12.497-18.854-12.497-30.17v-213.333c0-23.040 18.304-41.899 42.667-42.667 17.493-0.683 30.165-3.541 36.011-9.643 5.461-5.717 5.76-15.36 6.656-33.707 0.128-2.688 0.128-7.552 0-15.787 0-5.658 2.248-11.085 6.249-15.087 4-3.998 9.427-6.246 15.085-6.246v0zM768 425.984c-0.137-5.261-0.137-10.526 0-15.787v15.787c0.853 18.347 1.195 27.989 6.656 33.707 5.845 6.101 18.517 8.96 36.011 9.643 24.363 0.768 42.667 19.627 42.667 42.667v213.333c0 11.316-4.497 22.168-12.497 30.17s-18.854 12.497-30.17 12.497h-384c-11.316 0-22.168-4.495-30.17-12.497s-12.497-18.854-12.497-30.17h-85.333v42.667c0 22.632 8.99 44.337 24.994 60.34s37.708 24.994 60.34 24.994h469.333c22.63 0 44.335-8.99 60.339-24.994s24.994-37.708 24.994-60.34v-298.667c0-22.63-8.99-44.335-24.994-60.339s-37.709-24.994-60.339-24.994v-95.701c-0.149-8.115-2.615-16.021-7.1-22.788-4.489-6.767-10.812-12.109-18.231-15.407s-15.625-4.407-23.65-3.204c-8.030 1.203-15.548 4.672-21.675 9.997l-14.677 10.069v159.019z" />
<glyph unicode="&#xe922;" glyph-name="mobile" d="M744 898h-464c-35.3 0-64-28.7-64-64v-767.999c0-35.302 28.7-64 64-64h464c35.298 0 64 28.698 64 64v767.999c0 35.3-28.702 64-64 64zM736 74.001h-448v751.999h448v-751.999zM472 176c0-10.607 4.215-20.783 11.716-28.284s17.677-11.716 28.284-11.716c10.607 0 20.783 4.215 28.284 11.716s11.716 17.677 11.716 28.284c0 10.607-4.215 20.783-11.716 28.284s-17.677 11.716-28.284 11.716c-10.607 0-20.783-4.215-28.284-11.716s-11.716-17.677-11.716-28.284z" />
<glyph unicode="&#xe923;" glyph-name="os" d="M512 874.667c-235.22 0-426.667-191.446-426.667-426.667s191.446-426.667 426.667-426.667c235.221 0 426.667 191.445 426.667 426.667s-191.445 426.667-426.667 426.667zM512 803.555c196.787 0 355.554-158.767 355.554-355.555s-158.767-355.554-355.554-355.554c-196.789 0-355.555 158.767-355.555 355.554 0 196.789 158.767 355.555 355.555 355.555zM369.778 625.778c-58.488 0-106.667-48.179-106.667-106.665v-142.225c0-58.487 48.179-106.667 106.667-106.667s106.668 48.179 106.668 106.667v142.225c0 58.487-48.179 106.665-106.668 106.665zM648.666 625.778c-55.62 0-101.111-45.489-101.111-101.11 0-38.366 21.248-73.958 55.556-91.11l69.999-34.445c10.394-5.214 16.67-16.226 16.67-27.78 0-17.195-12.804-29.999-30.003-29.999h-11.11c-17.195 0-29.999 12.804-29.999 29.999v5.555h-71.113v-5.555c0-55.62 45.491-101.111 101.111-101.111h11.11c55.625 0 101.111 45.491 101.111 101.111 0 38.366-21.286 73.924-55.556 91.11l-69.999 34.445c-10.351 5.175-16.666 16.226-16.666 27.78 0 17.195 12.804 29.999 29.999 29.999h11.11c17.199 0 30.003-12.804 30.003-29.999v-5.555h71.108v5.555c0 55.621-45.487 101.11-101.111 101.11h-11.11zM369.778 554.667c20.090 0 35.555-15.465 35.555-35.554v-142.225c0-20.087-15.466-35.554-35.555-35.554s-35.556 15.467-35.556 35.554v142.225c0 20.089 15.466 35.554 35.556 35.554z" />
<glyph unicode="&#xe924;" glyph-name="pointer" d="M682.667 38.4h-192c-25.6 0-51.2 8.533-72.533 25.6l-200.533 170.667c-17.067 17.067-29.867 38.4-29.867 64s8.533 46.933 25.6 64c25.6 25.6 68.267 34.133 102.4 17.067l72.533-34.133v298.667c0 46.933 38.4 85.333 85.333 85.333s85.333-38.4 85.333-85.333v-153.6l162.133-25.6c34.133-4.267 68.267-25.6 89.6-55.467s25.6-64 17.067-98.133l-42.667-192c-8.533-46.933-51.2-81.067-102.4-81.067zM277.333 341.333c-8.533 0-21.333-4.267-29.867-12.8s-12.8-17.067-12.8-25.6c0-8.533 4.267-21.333 12.8-25.6l200.533-170.667c8.533-8.533 25.6-12.8 38.4-12.8h196.267c25.6 0 51.2 17.067 55.467 42.667l42.667 192c4.267 21.333 0 38.4-12.8 55.467s-29.867 29.867-55.467 34.133l-183.467 25.6c-12.8 0-21.333 12.8-21.333 25.6v174.933c0 17.067-17.067 34.133-34.133 34.133-21.333 0-34.133-17.067-34.133-34.133v-341.333c0-8.533-4.267-17.067-12.8-21.333s-17.067-4.267-25.6 0l-110.933 55.467c0 0-4.267 4.267-12.8 4.267zM682.667 631.467c-17.067 0-34.133 12.8-34.133 34.133 0 98.133-81.067 179.2-179.2 179.2s-179.2-85.333-179.2-183.467c0-17.067-12.8-34.133-34.133-34.133s-34.133 17.067-34.133 34.133c0 136.533 110.933 247.467 247.467 247.467s247.467-110.933 247.467-247.467c0-17.067-17.067-29.867-34.133-29.867z" />
<glyph unicode="&#xe925;" glyph-name="radio-checked" d="M512 661.333c-117.76 0-213.333-95.573-213.333-213.333s95.573-213.333 213.333-213.333c117.76 0 213.333 95.573 213.333 213.333s-95.573 213.333-213.333 213.333zM512 874.667c-235.52 0-426.667-191.147-426.667-426.667s191.147-426.667 426.667-426.667c235.52 0 426.667 191.147 426.667 426.667s-191.147 426.667-426.667 426.667zM512 106.667c-188.587 0-341.333 152.747-341.333 341.333s152.747 341.333 341.333 341.333c188.587 0 341.333-152.747 341.333-341.333s-152.747-341.333-341.333-341.333z" />
<glyph unicode="&#xe926;" glyph-name="radio-unchecked" d="M512 874.667c-235.52 0-426.667-191.147-426.667-426.667s191.147-426.667 426.667-426.667c235.52 0 426.667 191.147 426.667 426.667s-191.147 426.667-426.667 426.667zM512 106.667c-188.587 0-341.333 152.747-341.333 341.333s152.747 341.333 341.333 341.333c188.587 0 341.333-152.747 341.333-341.333s-152.747-341.333-341.333-341.333z" />
<glyph unicode="&#xe927;" glyph-name="sapr" d="M384 896c-33.948 0-66.505-13.486-90.51-37.49s-37.49-56.562-37.49-90.51v-141.248c20.92 5.922 42.346 9.885 64 11.84v129.408c0 16.974 6.743 33.253 18.745 45.255s28.281 18.745 45.255 18.745h192v-160c0-25.461 10.116-49.879 28.117-67.882 18.005-18.004 42.423-28.118 67.883-28.118h160v-448c0-16.973-6.741-33.254-18.743-45.257s-28.284-18.743-45.257-18.743h-144.448c-20.092-24.311-43.337-45.837-69.12-64h213.568c33.946 0 66.505 13.487 90.509 37.491s37.491 56.563 37.491 90.509v485.504c-0.021 25.452-10.15 49.854-28.16 67.84l-186.496 186.56c-17.997 17.985-42.398 28.090-67.84 28.096h-229.504zM818.752 640h-146.752c-8.486 0-16.627 3.372-22.626 9.373-6.003 6.001-9.374 14.141-9.374 22.627v146.752l178.752-178.752zM341.333 576c9.053 0 17.734-3.702 24.135-10.291s9.997-15.527 9.997-24.846v-74.7c24.605-6.532 46.952-20.002 64.526-38.895s29.675-42.462 34.948-68.049c5.269-25.587 3.499-52.186-5.116-76.791-8.61-24.61-23.723-46.259-43.637-62.507l82.873-191.846c3.674-8.521 3.913-18.189 0.661-26.889s-9.728-15.71-18.001-19.494c-8.273-3.785-17.668-4.028-26.116-0.678-8.452 3.345-15.262 10.010-18.94 18.53l-82.804 191.846c-14.916-2.551-30.139-2.551-45.055 0l-82.805-191.846c-3.675-8.521-10.487-15.185-18.936-18.53-8.45-3.349-17.845-3.106-26.119 0.678s-14.749 10.795-18.001 19.494c-3.252 8.7-3.014 18.368 0.661 26.889l82.806 191.846c-19.913 16.252-35.024 37.905-43.632 62.519s-10.373 51.213-5.095 76.804c5.278 25.587 17.39 49.152 34.971 68.045 17.581 18.889 39.935 32.35 64.545 38.874v74.7c0 9.319 3.596 18.256 9.997 24.846s15.083 10.291 24.135 10.291z" />
<glyph unicode="&#xe928;" glyph-name="search" d="M883.627 136.96l-145.067 144.64c46.805 59.627 72.201 133.261 72.107 209.067 0 67.509-20.019 133.503-57.523 189.635-37.508 56.132-90.816 99.881-153.186 125.716s-131.004 32.594-197.215 19.424c-66.212-13.17-127.032-45.679-174.768-93.416s-80.245-108.556-93.416-174.768c-13.17-66.211-6.411-134.845 19.424-197.215s69.584-115.678 125.716-153.186c56.132-37.504 122.125-57.523 189.635-57.523 75.806-0.094 149.44 25.301 209.067 72.107l144.64-145.067c3.968-3.998 8.687-7.172 13.884-9.34 5.201-2.167 10.778-3.281 16.41-3.281s11.209 1.114 16.41 3.281c5.197 2.167 9.916 5.342 13.884 9.34 3.998 3.968 7.172 8.687 9.34 13.884 2.167 5.201 3.281 10.778 3.281 16.41s-1.114 11.209-3.281 16.41c-2.167 5.197-5.342 9.916-9.34 13.884v0zM213.333 490.667c0 50.632 15.014 100.127 43.144 142.226s68.111 74.911 114.889 94.287c46.778 19.376 98.253 24.446 147.908 14.568 49.66-9.878 95.275-34.26 131.076-70.062 35.806-35.802 60.186-81.417 70.063-131.076 9.877-49.657 4.809-101.13-14.566-147.91s-52.19-86.758-94.289-114.889c-42.099-28.13-91.593-43.145-142.225-43.145-67.895 0-133.010 26.97-181.019 74.982-48.009 48.009-74.981 113.122-74.981 181.018z" />
<glyph unicode="&#xe929;" glyph-name="search-content" d="M938.667 179.2c-8.533 0-17.067 4.267-21.333 8.533l-149.333 153.6c-12.8 12.8-12.8 34.133 0 46.933s34.133 12.8 46.933 0l149.333-149.333c12.8-12.8 12.8-34.133 0-46.933-8.533-8.533-17.067-12.8-25.6-12.8zM298.667 328.533h-234.667c-17.067 0-34.133 12.8-34.133 34.133s12.8 34.133 34.133 34.133h234.667c17.067 0 34.133-12.8 34.133-34.133s-17.067-34.133-34.133-34.133zM448 136.533h-384c-17.067 0-34.133 12.8-34.133 34.133s12.8 34.133 34.133 34.133h384c17.067 0 34.133-12.8 34.133-34.133s-17.067-34.133-34.133-34.133zM448 716.8h-384c-17.067 0-29.867 12.8-29.867 29.867s12.8 34.133 34.133 34.133h384c17.067 0 34.133-12.8 34.133-34.133s-21.333-29.867-38.4-29.867zM298.667 524.8h-234.667c-17.067 0-34.133 12.8-34.133 34.133s12.8 34.133 34.133 34.133h234.667c17.067 0 34.133-12.8 34.133-34.133s-17.067-34.133-34.133-34.133zM661.333 290.133c-51.2 0-102.4 17.067-140.8 55.467s-59.733 85.333-59.733 136.533c0 51.2 21.333 98.133 59.733 136.533 76.8 72.533 204.8 72.533 285.867 0 38.4-38.4 59.733-85.333 59.733-136.533s-21.333-98.133-59.733-136.533c-42.667-38.4-93.867-55.467-145.067-55.467zM661.333 610.133c-34.133 0-72.533-12.8-98.133-38.4s-38.4-55.467-38.4-89.6c0-34.133 12.8-64 38.4-89.6 55.467-51.2 145.067-51.2 196.267 0 25.6 25.6 38.4 55.467 38.4 89.6s-12.8 64-38.4 89.6v0c-25.6 25.6-64 38.4-98.133 38.4z" />
<glyph unicode="&#xe92a;" glyph-name="social-discord" d="M822.191 732.588c-56.747 26.453-118.187 45.653-182.187 56.747-0.559 0.018-1.118-0.087-1.634-0.309s-0.977-0.553-1.353-0.972c-7.68-14.080-16.64-32.426-22.613-46.506-67.883 10.24-136.917 10.24-204.799 0-5.973 14.507-14.933 32.426-23.040 46.506-0.427 0.853-1.707 1.28-2.987 1.28-64-11.093-125.013-30.293-182.187-56.747-0.427 0-0.853-0.427-1.28-0.853-116.053-173.654-148.053-342.614-132.267-509.868 0-0.853 0.427-1.707 1.28-2.133 76.8-56.32 150.613-90.453 223.573-113.067 1.28-0.427 2.56 0 2.987 0.853 17.067 23.467 32.427 48.213 45.653 74.24 0.853 1.707 0 3.413-1.707 3.84-24.32 9.387-47.36 20.48-69.973 33.28-1.707 0.853-1.707 3.413-0.427 4.693 4.693 3.413 9.387 7.253 14.080 10.667 0.853 0.853 2.133 0.853 2.987 0.427 146.772-66.987 305.066-66.987 450.132 0 0.853 0.427 2.133 0.427 2.987-0.427 4.693-3.84 9.387-7.253 14.080-11.093 1.707-1.28 1.707-3.84-0.427-4.693-22.187-13.227-45.653-23.893-69.973-33.28-1.707-0.427-2.133-2.56-1.707-3.84 13.653-26.027 29.013-50.773 45.653-74.24 1.28-0.427 2.56-0.853 3.84-0.427 73.387 22.613 147.2 56.747 224 113.067 0.853 0.427 1.28 1.28 1.28 2.133 18.773 193.28-31.147 360.961-132.267 509.868-0.427 0.427-0.853 0.853-1.707 0.853v0zM363.525 323.84c-43.947 0-80.64 40.533-80.64 90.453s35.84 90.453 80.64 90.453c45.227 0 81.066-40.96 80.639-90.453 0-49.92-35.839-90.453-80.639-90.453zM660.911 323.84c-43.947 0-80.64 40.533-80.64 90.453s35.84 90.453 80.64 90.453c45.227 0 81.067-40.96 80.64-90.453 0-49.92-35.413-90.453-80.64-90.453z" />
<glyph unicode="&#xe92b;" glyph-name="social-telegram" d="M978.701 763.599l-135.202-637.6c-10.197-45.001-36.8-56.201-74.598-34.999l-205.999 151.799-99.401-95.599c-10.999-10.999-20.198-20.203-41.4-20.203l14.802 209.801 381.798 345.001c16.602 14.8-3.601 23-25.801 8.2l-472-297.201-203.2 63.599c-44.2 13.803-45 44.203 9.2 65.404l794.802 306.198c36.8 13.8 68.996-8.2 56.998-64.4v0z" />
<glyph unicode="&#xe92c;" glyph-name="social-vk" d="M1000.661 705.416c7.036 23.762 0 41.251-33.835 41.251h-111.966c-28.514 0-41.634-15.017-48.666-31.746 0 0-57.028-138.959-137.63-229.067-26.044-26.039-38.020-34.406-52.275-34.406-7.036 0-17.869 8.367-17.869 32.128v221.841c0 28.514-7.983 41.251-31.556 41.251h-176.029c-17.869 0-28.514-13.307-28.514-25.663 0-26.994 40.3-33.267 44.483-109.305v-165.004c0-36.117-6.464-42.769-20.721-42.769-38.019 0-130.406 139.529-185.153 299.209-11.025 30.986-21.861 43.532-50.566 43.532h-111.966c-31.936 0-38.399-15.017-38.399-31.746 0-29.655 38.019-176.979 176.979-371.637 92.576-132.877 222.982-204.924 341.6-204.924 71.287 0 80.030 15.97 80.030 43.533 0 126.985-6.46 138.961 29.278 138.961 16.538 0 45.052-8.363 111.586-72.427 76.036-76.036 88.585-110.067 131.166-110.067h111.966c31.936 0 48.094 15.97 38.78 47.526-21.291 66.342-165.193 202.833-171.657 211.955-16.538 21.291-11.789 30.797 0 49.805 0.188 0.192 136.866 192.567 150.933 257.77v0z" />
<glyph unicode="&#xe92d;" glyph-name="social-youtube" d="M941.299 663.9c-5.099 18.996-15.1 36.32-29.001 50.236-13.897 13.917-31.211 23.939-50.197 29.064-69.901 18.8-350.101 18.8-350.101 18.8s-280.2 0-350.1-18.7c-18.998-5.108-36.317-15.124-50.22-29.044s-23.896-31.252-28.98-50.256c-18.7-70-18.7-216-18.7-216s0-146.001 18.7-215.902c10.3-38.596 40.7-68.996 79.2-79.3 69.9-18.799 350.1-18.799 350.1-18.799s280.201 0 350.101 18.799c38.601 10.304 68.898 40.704 79.198 79.3 18.701 69.901 18.701 215.902 18.701 215.902s0 146-18.701 215.9zM423 314.001v267.999l232.002-133.001-232.002-134.997z" />
<glyph unicode="&#xe92e;" glyph-name="star" d="M773.41-7.113c-12.574 0.013-24.853 3.776-35.273 10.812l-212.194 142.221c-1.045 0.721-2.287 1.109-3.558 1.109-1.267 0-2.509-0.388-3.554-1.109l-212.195-142.221c-10.656-7.117-23.223-10.82-36.034-10.624s-25.259 4.284-35.692 11.725c-10.432 7.437-18.355 17.873-22.716 29.918-4.361 12.049-4.954 25.139-1.701 37.53l69.689 245.76c0.329 1.237 0.29 2.543-0.115 3.755-0.404 1.216-1.156 2.283-2.161 3.072l-200.818 157.867c-10.572 7.876-18.414 18.863-22.426 31.42s-3.994 26.057 0.052 38.603c4.046 12.547 11.917 23.512 22.51 31.359s23.376 12.182 36.557 12.397l256 9.671c1.259 0.087 2.465 0.536 3.475 1.293s1.778 1.79 2.214 2.974l88.179 239.787c4.442 12.156 12.514 22.653 23.125 30.069 10.607 7.416 23.236 11.393 36.181 11.393 12.941 0 25.574-3.977 36.181-11.393s18.679-17.913 23.125-30.069l88.175-239.787c0.439-1.184 1.207-2.217 2.214-2.974 1.011-0.757 2.219-1.206 3.477-1.293l256-9.671c13.18-0.215 25.963-4.55 36.557-12.397 10.59-7.847 18.462-18.813 22.511-31.359 4.045-12.547 4.062-26.046 0.051-38.603-4.015-12.557-11.857-23.543-22.426-31.42l-200.819-157.867c-1.037-0.764-1.809-1.83-2.219-3.051-0.405-1.225-0.427-2.539-0.055-3.776l69.687-245.76c2.445-9.425 2.688-19.29 0.708-28.826-1.98-9.532-6.127-18.483-12.122-26.159-5.999-7.676-13.679-13.862-22.455-18.091-8.772-4.228-18.402-6.379-28.139-6.285v0zM522.53 203.947c12.595-0.384 24.785-4.548 34.987-11.947l212.194-142.221c1.075-0.819 2.385-1.267 3.738-1.276 1.348-0.013 2.667 0.414 3.755 1.216 1.088 0.798 1.89 1.929 2.283 3.221s0.354 2.679-0.102 3.947l-69.692 245.76c-3.426 12.058-3.174 24.862 0.73 36.774 3.9 11.913 11.277 22.383 21.175 30.071l200.815 157.867c1.097 0.768 1.916 1.869 2.342 3.14 0.422 1.271 0.427 2.641 0.013 3.915s-1.225 2.38-2.313 3.158c-1.092 0.778-2.402 1.187-3.738 1.165l-256 9.671c-12.535 0.489-24.64 4.699-34.773 12.096s-17.83 17.643-22.118 29.433l-88.175 239.787c-0.397 1.273-1.195 2.386-2.266 3.176-1.075 0.79-2.377 1.216-3.708 1.216-1.335 0-2.633-0.426-3.708-1.216s-1.869-1.903-2.266-3.176l-87.326-239.502c-4.285-11.79-11.984-22.036-22.116-29.433s-22.237-11.607-34.772-12.096l-256-9.671c-1.338 0.021-2.649-0.387-3.738-1.165s-1.9-1.885-2.314-3.158c-0.414-1.273-0.408-2.646 0.015-3.913 0.424-1.271 1.244-2.372 2.339-3.14l201.103-158.153c9.868-7.714 17.22-18.189 21.12-30.089 3.9-11.904 4.172-24.7 0.782-36.757l-69.405-245.76c-0.414-1.229-0.416-2.56-0.006-3.793s1.211-2.295 2.281-3.034c1.030-0.879 2.342-1.365 3.697-1.365s2.668 0.486 3.698 1.365l212.195 142.225c10.372 6.878 22.541 10.539 34.987 10.522l0.286 1.139z" />
<glyph unicode="&#xe92f;" glyph-name="star-bold" d="M776.533 21.333c-8.533 0-12.8 0-21.333 4.267l-243.2 128-243.2-128c-12.8-8.533-29.867-4.267-46.933 4.267-12.8 8.533-21.333 25.6-17.067 42.667l46.933 273.067-196.267 187.733c-12.8 12.8-17.067 29.867-12.8 42.667 4.267 17.067 17.067 25.6 34.133 29.867l273.067 38.4 123.733 247.467c12.8 29.867 64 29.867 76.8 0l123.733-247.467 273.067-38.4c12.8 0 25.6-12.8 34.133-29.867 4.267-17.067 0-34.133-12.8-42.667l-196.267-192 46.933-273.067c4.267-17.067-4.267-34.133-17.067-42.667-8.533-4.267-17.067-4.267-25.6-4.267zM174.933 533.333l149.333-149.333c12.8-8.533 17.067-21.333 17.067-34.133l-34.133-209.067 187.733 98.133c12.8 8.533 25.6 8.533 38.4 0l187.733-98.133-38.4 209.067c-4.267 12.8 4.267 29.867 12.8 38.4l149.333 149.333-209.067 29.867c-12.8 0-25.6 12.8-34.133 21.333l-89.6 187.733-93.867-187.733c-4.267-12.8-17.067-21.333-29.867-21.333l-213.333-34.133z" />
<glyph unicode="&#xe930;" glyph-name="star-filled" d="M967.108 482.701c10.569 7.876 18.411 18.863 22.426 31.42 4.011 12.557 3.994 26.056-0.051 38.602-4.049 12.547-11.921 23.512-22.511 31.359-10.594 7.847-23.377 12.182-36.557 12.397l-256 9.671c-1.259 0.087-2.466 0.536-3.477 1.293-1.007 0.757-1.779 1.79-2.214 2.974l-88.461 238.933c-4.446 12.156-12.518 22.653-23.125 30.069s-23.241 11.393-36.181 11.393c-12.945 0-25.574-3.977-36.181-11.393s-18.679-17.913-23.125-30.069l-88.178-239.787c-0.436-1.184-1.205-2.217-2.214-2.974s-2.216-1.206-3.475-1.293l-256-9.671c-13.181-0.215-25.964-4.55-36.557-12.397s-18.464-18.813-22.511-31.359c-4.046-12.547-4.064-26.045-0.052-38.602s11.855-23.543 22.426-31.42l200.818-157.867c1.005-0.789 1.756-1.86 2.161-3.072s0.445-2.517 0.115-3.755l-69.12-244.907c-3.581-12.471-3.235-25.741 0.994-38.007 4.228-12.271 12.133-22.938 22.639-30.549 10.506-7.616 23.103-11.81 36.076-12.011 12.974-0.205 25.695 3.597 36.433 10.88l212.197 142.221c1.045 0.721 2.283 1.109 3.554 1.109s2.509-0.388 3.554-1.109l212.198-142.221c10.59-7.535 23.266-11.58 36.267-11.58 12.996 0 25.673 4.045 36.267 11.58 10.509 7.543 18.419 18.159 22.647 30.383s4.561 25.459 0.96 37.884l-69.687 245.76c-0.371 1.233-0.35 2.551 0.055 3.772 0.41 1.225 1.182 2.287 2.219 3.055l201.673 159.287z" />
<glyph unicode="&#xe931;" glyph-name="tablet" d="M800 896h-576c-35.3 0-64-28.7-64-64v-768c0-35.298 28.7-64 64-64h576c35.298 0 64 28.702 64 64v768c0 35.3-28.702 64-64 64zM792 72h-560v752h560v-752zM472 176c0-10.607 4.215-20.783 11.716-28.284s17.677-11.716 28.284-11.716c10.607 0 20.783 4.215 28.284 11.716s11.716 17.677 11.716 28.284c0 10.607-4.215 20.783-11.716 28.284s-17.677 11.716-28.284 11.716c-10.607 0-20.783-4.215-28.284-11.716s-11.716-17.677-11.716-28.284z" />
<glyph unicode="&#xe932;" glyph-name="task-tracker" d="M533.333 522.667c0 8.486 3.371 16.626 9.374 22.627 5.999 6.001 14.14 9.373 22.626 9.373h149.333c8.486 0 16.627-3.372 22.626-9.373 6.003-6.001 9.374-14.141 9.374-22.627s-3.371-16.627-9.374-22.626c-5.999-6.003-14.14-9.374-22.626-9.374h-149.333c-8.486 0-16.627 3.371-22.626 9.374-6.003 5.999-9.374 14.14-9.374 22.626v0zM565.333 320c-8.486 0-16.627-3.371-22.626-9.374-6.003-5.999-9.374-14.14-9.374-22.626s3.371-16.627 9.374-22.626c5.999-6.003 14.14-9.374 22.626-9.374h149.333c8.486 0 16.627 3.371 22.626 9.374 6.003 5.999 9.374 14.14 9.374 22.626s-3.371 16.627-9.374 22.626c-5.999 6.003-14.14 9.374-22.626 9.374h-149.333zM459.947 542.72c3.145 2.929 5.666 6.462 7.415 10.388s2.688 8.163 2.765 12.46c0.077 4.297-0.717 8.564-2.325 12.549s-4.002 7.604-7.044 10.643c-3.038 3.039-6.656 5.434-10.641 7.043s-8.252 2.4-12.548 2.324c-4.297-0.076-8.533-1.016-12.46-2.765-3.925-1.749-7.458-4.271-10.388-7.415l-62.72-62.72-20.053 20.053c-6.066 5.652-14.089 8.73-22.38 8.584s-16.2-3.505-22.063-9.368c-5.863-5.863-9.222-13.774-9.367-22.064s2.931-16.311 8.583-22.379l42.667-42.667c6-5.995 14.133-9.357 22.613-9.357s16.613 3.362 22.613 9.357l85.333 85.333zM459.947 353.28c5.995-5.999 9.357-14.131 9.357-22.613s-3.362-16.614-9.357-22.613l-85.333-85.333c-6-5.995-14.133-9.357-22.613-9.357s-16.613 3.362-22.613 9.357l-42.667 42.667c-3.144 2.931-5.666 6.464-7.415 10.389s-2.689 8.162-2.765 12.459c-0.076 4.297 0.715 8.563 2.324 12.548s4.005 7.603 7.043 10.641c3.039 3.042 6.658 5.436 10.643 7.044s8.253 2.402 12.549 2.325c4.297-0.077 8.534-1.015 12.46-2.765s7.458-4.271 10.388-7.415l20.053-20.053 62.72 62.72c6 5.995 14.131 9.357 22.613 9.357s16.614-3.362 22.613-9.357v0zM682.411 785.749c-1.788 24.17-12.651 46.769-30.409 63.261-17.762 16.492-41.101 25.658-65.335 25.656h-149.333c-23.613-0.001-46.398-8.704-63.998-24.447s-28.781-37.42-31.404-60.887h-75.264c-25.461 0-49.879-10.114-67.882-28.118s-28.118-42.421-28.118-67.882v-576c0-25.459 10.114-49.877 28.118-67.883 18.004-18.001 42.421-28.117 67.882-28.117h490.667c12.608 0 25.092 2.483 36.736 7.309 11.648 4.821 22.234 11.895 31.147 20.809s15.987 19.499 20.809 31.147c4.826 11.644 7.309 24.128 7.309 36.736v576c0 12.607-2.483 25.091-7.309 36.738-4.821 11.647-11.895 22.23-20.809 31.145s-19.499 15.986-31.147 20.81c-11.644 4.824-24.128 7.308-36.736 7.308h-75.264l0.341-3.584zM682.411 785.237l0.256-6.571c0 2.219-0.085 4.395-0.213 6.571h-0.043zM437.333 682.667h149.333c33.28 0 62.592 16.939 79.829 42.667h90.837c8.486 0 16.627-3.372 22.626-9.373 6.003-6.001 9.374-14.141 9.374-22.627v-576c0-8.486-3.371-16.627-9.374-22.626-5.999-6.003-14.14-9.374-22.626-9.374h-490.667c-8.487 0-16.626 3.371-22.627 9.374-6.001 5.999-9.373 14.14-9.373 22.626v576c0 8.487 3.372 16.626 9.373 22.627s14.141 9.373 22.627 9.373h90.837c17.237-25.728 46.549-42.667 79.829-42.667zM437.333 810.667h149.333c8.486 0 16.627-3.372 22.626-9.373 6.003-6.001 9.374-14.141 9.374-22.627s-3.371-16.626-9.374-22.627c-5.999-6.001-14.14-9.373-22.626-9.373h-149.333c-8.486 0-16.626 3.372-22.627 9.373s-9.373 14.141-9.373 22.627c0 8.487 3.372 16.626 9.373 22.627s14.141 9.373 22.627 9.373z" />
<glyph unicode="&#xe933;" glyph-name="verify" d="M725.372 827.904l4.928-9.792 36.864-98.112c2.88-7.68 8.96-13.824 16.704-16.704l94.72-35.584c41.6-15.552 63.936-59.968 52.864-102.016l-2.688-8.32-44.032-97.472c-1.694-3.716-2.569-7.753-2.569-11.84 0-4.083 0.875-8.124 2.569-11.84l41.856-92.16c8.759-19.319 10.048-41.195 3.618-61.406-6.43-20.215-20.122-37.325-38.434-48.034l-9.792-4.928-98.112-36.864c-3.797-1.442-7.249-3.678-10.121-6.558-2.867-2.88-5.090-6.34-6.519-10.146l-35.584-94.72c-7.45-19.887-22.012-36.301-40.87-46.067s-40.666-12.186-61.21-6.797l-8.32 2.688-97.472 44.032c-3.716 1.694-7.753 2.573-11.84 2.573-4.083 0-8.119-0.879-11.84-2.573l-92.094-41.856c-19.318-8.755-41.196-10.044-61.408-3.614s-37.324 20.122-48.032 38.43l-4.928 9.792-36.928 98.112c-1.442 3.802-3.678 7.253-6.558 10.121-2.88 2.871-6.339 5.094-10.146 6.519l-94.72 35.584c-19.887 7.45-36.301 22.016-46.067 40.87-9.766 18.859-12.188 40.67-6.797 61.21l2.688 8.32 44.096 97.472c1.69 3.721 2.565 7.757 2.565 11.84s-0.875 8.124-2.565 11.84l-41.92 92.096c-8.763 19.311-10.061 41.183-3.642 61.394s20.096 37.328 38.394 48.046l9.792 4.928 98.176 36.992c3.813 1.434 7.276 3.667 10.156 6.548s5.113 6.343 6.548 10.156l35.584 94.72c7.449 19.873 22.003 36.278 40.846 46.042s40.638 12.195 61.169 6.822l8.32-2.688 97.47-44.096c3.721-1.69 7.757-2.565 11.84-2.565 4.087 0 8.124 0.875 11.84 2.565l92.16 41.856c19.311 8.763 41.186 10.061 61.397 3.643s37.329-20.096 48.043-38.395v-0.064zM345.789 794.624l-35.52-94.72c-4.299-11.459-11.001-21.866-19.655-30.521s-19.061-15.357-30.521-19.655l-94.72-35.52-6.272-3.264c-5.499-3.82-9.485-9.447-11.262-15.902s-1.234-13.33 1.534-19.426l41.856-92.096c10.24-22.528 10.24-48.384 0-70.912l-42.24-93.056-1.728-5.824c-1.174-6.583-0.005-13.367 3.303-19.179s8.549-10.278 14.809-12.629l94.72-35.584c23.168-8.704 41.472-26.944 50.176-50.176l35.52-94.72 3.264-6.272c7.68-11.136 22.528-15.488 35.328-9.664l92.094 41.792c11.14 5.056 23.228 7.671 35.456 7.671 12.233 0 24.32-2.615 35.456-7.671l93.056-42.24 5.824-1.664c6.575-1.178 13.359-0.017 19.166 3.277 5.811 3.298 10.283 8.525 12.642 14.771l35.584 94.72c4.301 11.46 11.004 21.867 19.657 30.519 8.657 8.657 19.063 15.36 30.519 19.657l94.72 35.584 6.272 3.2c5.491 3.827 9.463 9.459 11.23 15.915s1.212 13.325-1.566 19.413l-41.792 92.16c-5.056 11.136-7.671 23.228-7.671 35.456 0 12.233 2.615 24.32 7.671 35.456l42.24 92.992 1.664 5.888c1.182 6.575 0.021 13.355-3.277 19.165-3.294 5.809-8.521 10.283-14.771 12.643l-94.72 35.52c-11.456 4.299-21.862 11.001-30.519 19.655-8.653 8.655-15.356 19.061-19.657 30.521l-35.584 94.72-3.2 6.272c-3.819 5.499-9.446 9.485-15.902 11.263s-13.329 1.234-19.426-1.535l-92.16-41.856c-11.136-5.056-23.223-7.672-35.456-7.672-12.228 0-24.316 2.616-35.456 7.672l-93.886 42.624c-7.104 2.653-14.97 2.377-21.871-0.767s-12.27-8.899-14.929-16.001v0zM446.524 361.856l203.904 232.96c4.681 5.274 11.14 8.636 18.142 9.44 7.006 0.804 14.059-1.006 19.81-5.083s9.792-10.135 11.354-17.009c1.557-6.875 0.525-14.084-2.906-20.244l-3.392-4.672-224-256c-4.51-5.163-10.731-8.533-17.519-9.498-6.788-0.96-13.7 0.546-19.473 4.25l-4.736 3.84-95.998 96c-4.984 5.018-7.934 11.699-8.281 18.765-0.346 7.061 1.935 14.003 6.405 19.482 4.47 5.483 10.81 9.109 17.799 10.193 6.988 1.079 14.129-0.469 20.044-4.343l4.48-3.648 74.366-74.432z" />
<glyph unicode="&#xe934;" glyph-name="video" d="M981.333 192c-8.533 0-17.067 4.267-25.6 8.533l-298.667 213.333c-8.533 8.533-17.067 21.333-17.067 34.133s8.533 25.6 17.067 34.133l298.667 213.333c12.8 8.533 29.867 8.533 42.667 4.267 17.067-8.533 25.6-21.333 25.6-38.4v-426.667c0-17.067-8.533-29.867-21.333-38.4-8.533-4.267-12.8-4.267-21.333-4.267zM755.2 448l183.467-132.267v264.533l-183.467-132.267zM597.333 106.667h-469.333c-72.533 0-128 55.467-128 128v426.667c0 72.533 55.467 128 128 128h469.333c72.533 0 128-55.467 128-128v-426.667c0-72.533-55.467-128-128-128zM128 704c-25.6 0-42.667-17.067-42.667-42.667v-426.667c0-25.6 17.067-42.667 42.667-42.667h469.333c25.6 0 42.667 17.067 42.667 42.667v426.667c0 25.6-17.067 42.667-42.667 42.667h-469.333z" />
<glyph unicode="&#xe935;" glyph-name="video-conference" d="M768.427 437.547l21.504 50.645c10.069 23.723 34.176 36.693 57.856 31.744l5.035-1.323 26.88-8.619c26.709-8.533 47.104-31.36 53.717-60.032 15.659-68.181-3.157-151.168-56.405-249.003-53.205-97.664-111.531-156.373-174.933-176.171-12.096-3.75-24.947-4.378-37.355-1.826-12.403 2.551-23.962 8.201-33.6 16.418l-5.291 4.864-20.395 20.48c-8.58 8.836-14.127 20.169-15.838 32.367-1.711 12.194 0.503 24.619 6.323 35.473l3.029 4.992 30.805 45.227c12.075 17.792 32.853 26.197 52.779 21.973l5.419-1.493 56.832-18.944c23.061 17.587 42.359 39.629 56.747 64.811 12.442 20.924 21.052 43.895 25.429 67.84l1.621 11.52-47.317 44.885c-7.642 7.441-13.073 16.853-15.697 27.196-2.62 10.338-2.325 21.201 0.849 31.386l2.005 5.589zM842.453 789.333c25.459 0 49.877-10.114 67.883-28.118 18.001-18.004 28.117-42.421 28.117-67.882l0.043-169.771c-10.837 10.233-23.484 18.364-37.291 23.979l-8.533 3.115-18.219 5.845v136.832c0 8.487-3.371 16.626-9.374 22.627-5.999 6.001-14.14 9.373-22.626 9.373h-661.12c-8.487 0-16.626-3.372-22.627-9.373s-9.373-14.141-9.373-22.627v-490.88c0-17.664 14.336-32 32-32l117.291 0.043 0.043 117.504c0.001 18.739 7.047 36.791 19.741 50.577s30.106 22.293 48.782 23.834l6.144 0.256h277.12c18.743 0 36.804-7.053 50.59-19.755 13.786-12.706 22.289-30.127 23.821-48.811l0.256-6.101-0.043-52.139-23.637 7.893-7.083 2.048c-10.876 2.697-22.157 3.375-33.28 2.005v40.192c0 2.398-0.811 4.723-2.295 6.605-1.489 1.882-3.563 3.209-5.897 3.763l-2.432 0.299h-277.12c-2.403-0.004-4.734-0.819-6.616-2.313-1.882-1.498-3.204-3.584-3.752-5.922l-0.299-2.432-0.043-117.504h207.104l-6.059-8.96-4.181-6.656c-8.533-15.019-12.885-31.744-13.099-48.384h-365.056c-25.453 0-49.865 10.108-67.867 28.105-18.002 17.993-28.121 42.398-28.133 67.853v490.88c0 25.461 10.114 49.879 28.118 67.882s42.421 28.118 67.882 28.118h661.12zM512 661.333c33.946 0 66.505-13.486 90.509-37.49s37.491-56.562 37.491-90.51c0-33.946-13.487-66.505-37.491-90.509s-56.563-37.491-90.509-37.491c-33.946 0-66.505 13.487-90.51 37.491s-37.49 56.563-37.49 90.509c0 33.948 13.486 66.505 37.49 90.51s56.564 37.49 90.51 37.49v0zM512 597.333c-16.973 0-33.254-6.743-45.257-18.745s-18.743-28.281-18.743-45.255c0-16.973 6.741-33.254 18.743-45.257s28.284-18.743 45.257-18.743c16.973 0 33.254 6.741 45.257 18.743s18.743 28.284 18.743 45.257c0 16.974-6.741 33.253-18.743 45.255s-28.284 18.745-45.257 18.745z" />
<glyph unicode="&#xe936;" glyph-name="virtual-atc" d="M554.667 618.667c33.946 0 66.505-13.486 90.509-37.49s37.491-56.564 37.491-90.51c0-11.315 4.497-22.17 12.497-30.17s18.854-12.497 30.17-12.497c11.315 0 22.17 4.497 30.17 12.497s12.497 18.854 12.497 30.17c0 56.579-22.477 110.842-62.485 150.849-40.004 40.008-94.268 62.484-150.848 62.484-11.315 0-22.17-4.495-30.17-12.497s-12.497-18.854-12.497-30.17c0-11.316 4.497-22.168 12.497-30.17s18.854-12.497 30.17-12.497v0zM554.667 789.333c79.211 0 155.179-31.467 211.187-87.477 56.013-56.011 87.479-131.978 87.479-211.189 0-11.315 4.497-22.17 12.497-30.17s18.854-12.497 30.17-12.497c11.315 0 22.17 4.497 30.17 12.497s12.497 18.854 12.497 30.17c0 101.843-40.457 199.515-112.469 271.529-72.017 72.014-169.69 112.471-271.531 112.471-11.315 0-22.17-4.495-30.17-12.497s-12.497-18.854-12.497-30.17c0-11.316 4.497-22.168 12.497-30.17s18.854-12.497 30.17-12.497v0zM928 281.173c-2.347 6.848-6.4 12.988-11.772 17.839-5.376 4.855-11.895 8.256-18.948 9.894l-256 58.453c-6.95 1.574-14.182 1.387-21.039-0.55-6.857-1.941-13.12-5.564-18.214-10.543-5.973-5.547-6.4-5.973-34.133-58.88-92.023 42.402-165.76 116.442-207.787 208.64 54.187 27.307 54.613 27.307 60.16 33.707 4.98 5.096 8.602 11.358 10.543 18.215 1.937 6.857 2.125 14.089 0.55 21.038l-58.453 253.013c-1.636 7.053-5.041 13.574-9.893 18.948s-10.991 9.425-17.841 11.772c-9.964 3.559-20.253 6.131-30.72 7.68-10.784 2.5-21.789 3.93-32.853 4.267-52.053 0-101.974-20.678-138.781-57.485s-57.485-86.728-57.485-138.781c0.226-174.195 69.525-341.193 192.7-464.367s290.172-192.474 464.367-192.7c25.775 0 51.294 5.077 75.106 14.942 23.812 9.86 45.449 24.32 63.676 42.543 18.223 18.227 32.683 39.863 42.543 63.676 9.865 23.812 14.942 49.331 14.942 75.106 0.013 10.859-0.845 21.705-2.56 32.427-1.792 10.598-4.506 21.018-8.107 31.147v0zM742.4 106.667c-151.599 0.111-296.956 60.386-404.152 167.582s-167.468 252.553-167.581 404.151c0.112 29.387 11.836 57.538 32.616 78.318s48.931 32.503 78.318 32.616h14.080l45.653-197.973-23.040-11.947c-36.693-19.2-65.707-34.56-50.347-67.84 25.012-70.81 65.484-135.155 118.474-188.369 52.99-53.21 117.169-93.952 187.872-119.258 35.84-14.507 49.92 12.373 69.12 49.493l12.373 23.467 197.547-45.227v-14.080c-0.111-29.389-11.836-57.536-32.614-78.319-20.783-20.779-48.93-32.503-78.319-32.614v0z" />
</font>
</defs>
</svg>
