<svg width="24" height="24" viewBox="0 0 24 24" fill="none" xmlns="http://www.w3.org/2000/svg">
<path d="M6.42672 11.6173C5.09341 10.6485 4.22294 9.07145 4.22294 7.30434C4.22294 4.37656 6.61256 1.98694 9.54033 1.98694C12.4681 1.98694 14.8577 4.37656 14.8577 7.30434V7.30443C14.8569 8.17638 14.6422 9.03483 14.2325 9.80452C13.851 10.5212 13.3112 11.1406 12.655 11.6161C12.9433 11.7449 13.2271 11.8876 13.4954 12.0512C14.5166 11.3245 15.739 10.9327 16.9936 10.931H16.9937C20.333 10.931 23.0565 13.6546 23.0565 16.9938C23.0565 20.333 20.333 23.0565 16.9937 23.0565C13.6545 23.0565 10.931 20.333 10.931 16.9938L6.42672 11.6173ZM6.42672 11.6173C3.81945 12.809 1.98691 15.4348 1.98691 18.4845V18.5845H2.08691H3.5776H3.6776V18.4845C3.6776 15.2378 6.2937 12.6217 9.54033 12.6217C10.5056 12.6217 11.4052 12.8622 12.2047 13.2767C11.3797 14.3388 10.9308 15.6465 10.931 16.9938L6.42672 11.6173ZM16.2484 13.9124H16.1484V14.0124V16.1484H14.0124H13.9124V16.2484V17.7391V17.8391H14.0124H16.1484V19.9751V20.0751H16.2484H17.7391H17.8391V19.9751V17.8391H19.9751H20.0751V17.7391V16.2484V16.1484H19.9751H17.8391V14.0124V13.9124H17.7391H16.2484ZM9.54033 3.67763C11.5519 3.67763 13.167 5.29273 13.167 7.30434C13.167 9.31594 11.5519 10.931 9.54033 10.931C7.52873 10.931 5.91362 9.31594 5.91362 7.30434C5.91362 5.29273 7.52873 3.67763 9.54033 3.67763ZM16.9937 12.6217C19.4175 12.6217 21.3658 14.57 21.3658 16.9938C21.3658 19.4176 19.4175 21.3658 16.9937 21.3658C14.57 21.3658 12.6217 19.4176 12.6217 16.9938C12.6217 14.57 14.57 12.6217 16.9937 12.6217Z" fill="black" stroke="black" stroke-width="0.2"/>
</svg>
