<svg width="24" height="24" viewBox="0 0 24 24" fill="none" xmlns="http://www.w3.org/2000/svg">
<path d="M22.5 11.9344C22.5 11.8828 22.5 11.8242 22.4977 11.7563C22.4953 11.5664 22.4906 11.3531 22.4859 11.1258C22.4672 10.4719 22.4344 9.82032 22.3828 9.20626C22.3125 8.36016 22.2094 7.65469 22.0687 7.12501C21.9204 6.57223 21.6295 6.06809 21.2252 5.66297C20.8209 5.25784 20.3173 4.96593 19.7648 4.81641C19.1016 4.63829 17.8031 4.52813 15.975 4.46016C15.1055 4.42735 14.175 4.40626 13.2445 4.39454C12.9187 4.38985 12.6164 4.38751 12.3445 4.38516H11.6555C11.3836 4.38751 11.0813 4.38985 10.7555 4.39454C9.825 4.40626 8.89453 4.42735 8.025 4.46016C6.19687 4.53047 4.89609 4.64063 4.23516 4.81641C3.6825 4.96557 3.17876 5.25735 2.7744 5.66253C2.37004 6.06771 2.07928 6.57205 1.93125 7.12501C1.78828 7.65469 1.6875 8.36016 1.61719 9.20626C1.56562 9.82032 1.53281 10.4719 1.51406 11.1258C1.50703 11.3531 1.50469 11.5664 1.50234 11.7563C1.50234 11.8242 1.5 11.8828 1.5 11.9344V12.0656C1.5 12.1172 1.5 12.1758 1.50234 12.2438C1.50469 12.4336 1.50937 12.6469 1.51406 12.8742C1.53281 13.5281 1.56562 14.1797 1.61719 14.7938C1.6875 15.6398 1.79063 16.3453 1.93125 16.875C2.23125 17.9977 3.1125 18.8836 4.23516 19.1836C4.89609 19.3617 6.19687 19.4719 8.025 19.5398C8.89453 19.5727 9.825 19.5938 10.7555 19.6055C11.0813 19.6102 11.3836 19.6125 11.6555 19.6149H12.3445C12.6164 19.6125 12.9187 19.6102 13.2445 19.6055C14.175 19.5938 15.1055 19.5727 15.975 19.5398C17.8031 19.4695 19.1039 19.3594 19.7648 19.1836C20.8875 18.8836 21.7687 18 22.0687 16.875C22.2117 16.3453 22.3125 15.6398 22.3828 14.7938C22.4344 14.1797 22.4672 13.5281 22.4859 12.8742C22.493 12.6469 22.4953 12.4336 22.4977 12.2438C22.4977 12.1758 22.5 12.1172 22.5 12.0656V11.9344ZM20.8125 12.0563C20.8125 12.1055 20.8125 12.1594 20.8102 12.2227C20.8078 12.4055 20.8031 12.607 20.7984 12.825C20.782 13.4484 20.7492 14.0719 20.7 14.6508C20.6367 15.4055 20.5477 16.0242 20.4375 16.4391C20.2922 16.9805 19.8656 17.4094 19.3266 17.5524C18.8344 17.6836 17.5945 17.7891 15.9094 17.8523C15.0562 17.8852 14.1375 17.9063 13.2211 17.918C12.9 17.9227 12.6023 17.925 12.3352 17.925H11.6648L10.7789 17.918C9.8625 17.9063 8.94609 17.8852 8.09063 17.8523C6.40547 17.7867 5.16328 17.6836 4.67344 17.5524C4.13437 17.407 3.70781 16.9805 3.5625 16.4391C3.45234 16.0242 3.36328 15.4055 3.3 14.6508C3.25078 14.0719 3.22031 13.4484 3.20156 12.825C3.19453 12.607 3.19219 12.4031 3.18984 12.2227C3.18984 12.1594 3.1875 12.1031 3.1875 12.0563V11.9438C3.1875 11.8945 3.1875 11.8406 3.18984 11.7773C3.19219 11.5945 3.19688 11.393 3.20156 11.175C3.21797 10.5516 3.25078 9.92813 3.3 9.34922C3.36328 8.59454 3.45234 7.97579 3.5625 7.56094C3.70781 7.01954 4.13437 6.59063 4.67344 6.44766C5.16562 6.31641 6.40547 6.21094 8.09063 6.14766C8.94375 6.11485 9.8625 6.09376 10.7789 6.08204C11.1 6.07735 11.3977 6.07501 11.6648 6.07501H12.3352L13.2211 6.08204C14.1375 6.09376 15.0539 6.11485 15.9094 6.14766C17.5945 6.21329 18.8367 6.31641 19.3266 6.44766C19.8656 6.59297 20.2922 7.01954 20.4375 7.56094C20.5477 7.97579 20.6367 8.59454 20.7 9.34922C20.7492 9.92813 20.7797 10.5516 20.7984 11.175C20.8055 11.393 20.8078 11.5969 20.8102 11.7773C20.8102 11.8406 20.8125 11.8969 20.8125 11.9438V12.0563ZM9.91406 15.1406L15.3516 11.9766L9.91406 8.85938V15.1406Z" fill="black"/>
</svg>
