<svg width="24" height="24" viewBox="0 0 24 24" fill="none" xmlns="http://www.w3.org/2000/svg">
<path d="M12 1.5C6.20156 1.5 1.5 6.20156 1.5 12C1.5 17.7984 6.20156 22.5 12 22.5C17.7984 22.5 22.5 17.7984 22.5 12C22.5 6.20156 17.7984 1.5 12 1.5ZM12 20.7188C7.18594 20.7188 3.28125 16.8141 3.28125 12C3.28125 9.91406 4.01484 7.99688 5.23828 6.49688L17.5031 18.7617C16.0031 19.9852 14.0859 20.7188 12 20.7188ZM18.7617 17.5031L6.49688 5.23828C7.99688 4.01484 9.91406 3.28125 12 3.28125C16.8141 3.28125 20.7188 7.18594 20.7188 12C20.7188 14.0859 19.9852 16.0031 18.7617 17.5031Z" fill="black"/>
</svg>
