<svg width="24" height="24" viewBox="0 0 24 24" fill="none" xmlns="http://www.w3.org/2000/svg">
<path d="M16.24 11.51L17.81 9.93999L14.06 6.18999L12.49 7.75999L8.35 3.62999C7.57 2.84999 6.3 2.84999 5.52 3.62999L3.62 5.52999C2.84 6.30999 2.84 7.57999 3.62 8.35999L7.75 12.49L3 17.25V21H6.75L11.51 16.24L15.64 20.37C16.59 21.32 17.87 20.97 18.47 20.37L20.37 18.47C21.15 17.69 21.15 16.42 20.37 15.64L16.24 11.51ZM9.18 11.07L5.04 6.93999L6.93 5.03999L8.2 6.30999L7.02 7.49999L8.43 8.90999L9.62 7.71999L11.07 9.16999L9.18 11.07ZM17.06 18.96L12.93 14.83L14.83 12.93L16.28 14.38L15.09 15.57L16.5 16.98L17.69 15.79L18.96 17.06L17.06 18.96ZM20.71 7.03999C20.8027 6.94748 20.8762 6.83759 20.9264 6.71661C20.9766 6.59564 21.0024 6.46596 21.0024 6.33499C21.0024 6.20402 20.9766 6.07434 20.9264 5.95337C20.8762 5.83239 20.8027 5.7225 20.71 5.62999L18.37 3.28999C17.9 2.81999 17.25 2.99999 16.96 3.28999L15.13 5.11999L18.88 8.86999L20.71 7.03999Z" fill="black"/>
</svg>
