<svg width="24" height="24" viewBox="0 0 24 24" fill="none" xmlns="http://www.w3.org/2000/svg">
<path fill-rule="evenodd" clip-rule="evenodd" d="M18.8482 18.8484C18.6232 19.0734 18.318 19.1997 17.9998 19.1997C17.6816 19.1997 17.3765 19.0734 17.1514 18.8484L11.1514 12.8484C10.9265 12.6234 10.8001 12.3182 10.8001 12C10.8001 11.6818 10.9265 11.3766 11.1514 11.1516L17.1514 5.15159C17.2621 5.03698 17.3946 4.94556 17.541 4.88267C17.6874 4.81978 17.8448 4.78668 18.0042 4.78529C18.1635 4.78391 18.3215 4.81427 18.469 4.87461C18.6165 4.93494 18.7504 5.02405 18.8631 5.13672C18.9758 5.24939 19.0649 5.38337 19.1252 5.53085C19.1856 5.67832 19.2159 5.83634 19.2145 5.99568C19.2132 6.15501 19.1801 6.31247 19.1172 6.45888C19.0543 6.60528 18.9629 6.7377 18.8482 6.84839L13.6966 12L18.8482 17.1516C19.0732 17.3766 19.1996 17.6818 19.1996 18C19.1996 18.3182 19.0732 18.6234 18.8482 18.8484V18.8484ZM11.6482 18.8484C11.4232 19.0734 11.118 19.1997 10.7998 19.1997C10.4816 19.1997 10.1765 19.0734 9.95144 18.8484L3.95144 12.8484C3.72648 12.6234 3.6001 12.3182 3.6001 12C3.6001 11.6818 3.72648 11.3766 3.95144 11.1516L9.95144 5.15159C10.1778 4.933 10.4809 4.81205 10.7955 4.81478C11.1102 4.81752 11.4111 4.94372 11.6336 5.16621C11.8561 5.3887 11.9823 5.68968 11.9851 6.00431C11.9878 6.31895 11.8668 6.62207 11.6482 6.84839L6.49664 12L11.6482 17.1516C11.8732 17.3766 11.9996 17.6818 11.9996 18C11.9996 18.3182 11.8732 18.6234 11.6482 18.8484V18.8484Z" fill="black"/>
</svg>
