<svg width="24" height="24" viewBox="0 0 24 24" fill="none" xmlns="http://www.w3.org/2000/svg">
<g clip-path="url(#clip0_1030_12085)">
<path d="M22.6666 11.1867C22.9143 11.0021 23.0981 10.7446 23.1922 10.4503C23.2862 10.1559 23.2858 9.83958 23.191 9.54553C23.0961 9.25147 22.9116 8.99447 22.6634 8.81055C22.4151 8.62664 22.1155 8.52503 21.8066 8.51999L15.8066 8.29332C15.7771 8.29128 15.7488 8.28076 15.7251 8.26302C15.7015 8.24527 15.6834 8.22107 15.6732 8.19332L13.5999 2.59332C13.4957 2.30841 13.3065 2.0624 13.0579 1.88858C12.8093 1.71477 12.5132 1.62155 12.2099 1.62155C11.9065 1.62155 11.6105 1.71477 11.3619 1.88858C11.1133 2.0624 10.9241 2.30841 10.8199 2.59332L8.75323 8.21332C8.74301 8.24107 8.72499 8.26527 8.70133 8.28302C8.67768 8.30076 8.64939 8.31128 8.61989 8.31332L2.61989 8.53999C2.31096 8.54503 2.01136 8.64664 1.76309 8.83055C1.51482 9.01447 1.33033 9.27147 1.2355 9.56553C1.14067 9.85958 1.14024 10.1759 1.23428 10.4703C1.32833 10.7646 1.51212 11.0221 1.75989 11.2067L6.46656 14.9067C6.49012 14.9252 6.50772 14.9502 6.5172 14.9787C6.52668 15.0071 6.52762 15.0377 6.51989 15.0667L4.89989 20.8067C4.81595 21.0989 4.82408 21.41 4.92319 21.6975C5.02229 21.985 5.20756 22.235 5.45379 22.4135C5.70002 22.592 5.99526 22.6903 6.29933 22.695C6.6034 22.6998 6.90156 22.6107 7.15323 22.44L12.1266 19.1067C12.1511 19.0897 12.1801 19.0807 12.2099 19.0807C12.2397 19.0807 12.2687 19.0897 12.2932 19.1067L17.2666 22.44C17.5148 22.6165 17.8119 22.7114 18.1166 22.7114C18.4212 22.7114 18.7183 22.6165 18.9666 22.44C19.2129 22.2632 19.3983 22.0144 19.4974 21.7279C19.5965 21.4414 19.6043 21.1312 19.5199 20.84L17.8866 15.08C17.8779 15.0511 17.8784 15.0202 17.8879 14.9916C17.8975 14.9629 17.9156 14.9379 17.9399 14.92L22.6666 11.1867Z" fill="black"/>
</g>
<defs>
<clipPath id="clip0_1030_12085">
<rect width="24" height="24" fill="white"/>
</clipPath>
</defs>
</svg>
