<svg width="24" height="24" viewBox="0 0 24 24" fill="none" xmlns="http://www.w3.org/2000/svg">
<g clip-path="url(#clip0_1030_12049)">
<path d="M18.1268 22.6667C17.8321 22.6664 17.5443 22.5782 17.3001 22.4133L12.3268 19.08C12.3023 19.0631 12.2732 19.054 12.2434 19.054C12.2137 19.054 12.1846 19.0631 12.1601 19.08L7.18677 22.4133C6.93703 22.5801 6.64248 22.6669 6.34222 22.6623C6.04196 22.6577 5.75021 22.5619 5.5057 22.3875C5.2612 22.2132 5.07551 21.9686 4.9733 21.6863C4.87108 21.4039 4.85718 21.0971 4.93344 20.8067L6.56677 15.0467C6.57449 15.0177 6.57355 14.9871 6.56408 14.9587C6.5546 14.9302 6.53699 14.9052 6.51344 14.8867L1.80677 11.1867C1.55899 11.0021 1.3752 10.7446 1.28116 10.4503C1.18712 10.156 1.18754 9.83959 1.28238 9.54554C1.37721 9.25148 1.56169 8.99448 1.80996 8.81056C2.05824 8.62665 2.35784 8.52504 2.66677 8.52L8.66677 8.29333C8.69627 8.29129 8.72455 8.28077 8.74821 8.26303C8.77187 8.24529 8.78989 8.22108 8.8001 8.19333L10.8668 2.57333C10.9709 2.28842 11.1601 2.04241 11.4088 1.86859C11.6574 1.69478 11.9534 1.60156 12.2568 1.60156C12.5601 1.60156 12.8562 1.69478 13.1048 1.86859C13.3534 2.04241 13.5426 2.28842 13.6468 2.57333L15.7134 8.19333C15.7237 8.22108 15.7417 8.24529 15.7653 8.26303C15.789 8.28077 15.8173 8.29129 15.8468 8.29333L21.8468 8.52C22.1557 8.52504 22.4553 8.62665 22.7036 8.81056C22.9518 8.99448 23.1363 9.25148 23.2312 9.54554C23.326 9.83959 23.3264 10.156 23.2324 10.4503C23.1383 10.7446 22.9545 11.0021 22.7068 11.1867L18.0001 14.8867C17.9758 14.9046 17.9577 14.9296 17.9481 14.9582C17.9386 14.9869 17.9381 15.0177 17.9468 15.0467L19.5801 20.8067C19.6374 21.0276 19.6431 21.2588 19.5967 21.4823C19.5503 21.7057 19.4531 21.9155 19.3126 22.0954C19.172 22.2753 18.992 22.4203 18.7863 22.5194C18.5807 22.6185 18.355 22.6689 18.1268 22.6667ZM12.2468 17.72C12.542 17.729 12.8277 17.8266 13.0668 18L18.0401 21.3333C18.0653 21.3525 18.096 21.363 18.1277 21.3632C18.1593 21.3635 18.1902 21.3535 18.2157 21.3347C18.2412 21.316 18.26 21.2895 18.2692 21.2592C18.2784 21.2289 18.2775 21.1964 18.2668 21.1667L16.6334 15.4067C16.5531 15.1241 16.559 14.824 16.6505 14.5448C16.7419 14.2656 16.9148 14.0202 17.1468 13.84L21.8534 10.14C21.8791 10.122 21.8983 10.0962 21.9083 10.0664C21.9182 10.0366 21.9183 10.0045 21.9086 9.97465C21.8989 9.94481 21.8799 9.91886 21.8544 9.90063C21.8288 9.88239 21.7981 9.87282 21.7668 9.87333L15.7668 9.64666C15.473 9.63521 15.1893 9.53652 14.9518 9.36316C14.7143 9.18981 14.5339 8.94966 14.4334 8.67333L12.3668 3.05333C12.3575 3.02349 12.3388 2.99741 12.3137 2.97889C12.2885 2.96037 12.258 2.95038 12.2268 2.95038C12.1955 2.95038 12.1651 2.96037 12.1399 2.97889C12.1147 2.99741 12.0961 3.02349 12.0868 3.05333L10.0401 8.66666C9.93967 8.94299 9.75922 9.18314 9.52175 9.3565C9.28428 9.52985 9.00056 9.62854 8.70677 9.64L2.70677 9.86666C2.6754 9.86616 2.64469 9.87572 2.61916 9.89396C2.59363 9.9122 2.57462 9.93814 2.56492 9.96798C2.55522 9.99782 2.55535 10.03 2.56528 10.0597C2.57521 10.0895 2.59443 10.1153 2.6201 10.1333L7.33344 13.84C7.56473 14.0208 7.73704 14.2663 7.82844 14.5452C7.91985 14.8242 7.92623 15.1241 7.84677 15.4067L6.2201 21.1667C6.21039 21.1955 6.21035 21.2267 6.21997 21.2556C6.2296 21.2845 6.24836 21.3094 6.27344 21.3267C6.29759 21.3473 6.32832 21.3587 6.3601 21.3587C6.39188 21.3587 6.42262 21.3473 6.44677 21.3267L11.4201 17.9933C11.6632 17.8321 11.9484 17.7463 12.2401 17.7467L12.2468 17.72Z" fill="black"/>
</g>
<defs>
<clipPath id="clip0_1030_12049">
<rect width="24" height="24" fill="white"/>
</clipPath>
</defs>
</svg>
