<svg width="24" height="24" viewBox="0 0 24 24" fill="none" xmlns="http://www.w3.org/2000/svg">
<path d="M7.5 13V7.5C7.5 7.10218 7.65804 6.72064 7.93934 6.43934C8.22064 6.15804 8.60218 6 9 6C9.39782 6 9.77936 6.15804 10.0607 6.43934C10.342 6.72064 10.5 7.10218 10.5 7.5V13" stroke="black" stroke-width="2" stroke-linecap="round" stroke-linejoin="round"/>
<path d="M19.5 12.5V15.75C19.5 18.9255 16.9255 21.5 13.75 21.5H13.25C10.0745 21.5 7.5 18.9255 7.5 15.75V12.5" stroke="black" stroke-width="2" stroke-linecap="round" stroke-linejoin="round"/>
<path d="M10.5 14.5V12C10.5 11.6022 10.658 11.2206 10.9393 10.9393C11.2206 10.658 11.6022 10.5 12 10.5C12.3978 10.5 12.7794 10.658 13.0607 10.9393C13.342 11.2206 13.5 11.6022 13.5 12V14.5M13.5 14.5V12C13.5 11.6022 13.658 11.2206 13.9393 10.9393C14.2206 10.658 14.6022 10.5 15 10.5C15.3978 10.5 15.7794 10.658 16.0607 10.9393C16.342 11.2206 16.5 11.6022 16.5 12V14.5M16.5 14.5V12C16.5 11.6022 16.658 11.2206 16.9393 10.9393C17.2206 10.658 17.6022 10.5 18 10.5C18.3978 10.5 18.7794 10.658 19.0607 10.9393C19.342 11.2206 19.5 11.6022 19.5 12V14.5" stroke="black" stroke-width="2" stroke-linecap="round" stroke-linejoin="round"/>
<path d="M14 7.5C14.0012 6.42969 13.6577 5.38744 13.0205 4.5275C12.556 3.89827 11.9501 3.38697 11.2518 3.0348C10.5534 2.68263 9.78212 2.49945 9 2.5C8.2178 2.49937 7.44639 2.68252 6.74795 3.03469C6.04951 3.38686 5.44358 3.89821 4.979 4.5275C4.34198 5.38752 3.99872 6.42975 4 7.5" stroke="black" stroke-width="2" stroke-linecap="round"/>
</svg>
