<svg width="24" height="24" viewBox="0 0 24 24" fill="none" xmlns="http://www.w3.org/2000/svg">
<path d="M7.5 1.5C6.70435 1.5 5.94129 1.81607 5.37868 2.37868C4.81607 2.94129 4.5 3.70435 4.5 4.5V19.497C4.5 20.2926 4.81607 21.0557 5.37868 21.6183C5.94129 22.1809 6.70435 22.497 7.5 22.497H9.069L9.444 20.997H7.5C7.10218 20.997 6.72064 20.839 6.43934 20.5577C6.15804 20.2764 6 19.8948 6 19.497V4.5C6 4.10218 6.15804 3.72064 6.43934 3.43934C6.72064 3.15804 7.10218 3 7.5 3H12V6.75C12 7.34622 12.2366 7.91806 12.6579 8.33993C13.0793 8.7618 13.6508 8.99921 14.247 9H17.997V11.16C18.4476 10.8522 18.9592 10.645 19.497 10.5525V8.1195C19.4965 7.52296 19.2591 6.95105 18.837 6.5295L14.4675 2.1585C14.0457 1.73697 13.4738 1.50013 12.8775 1.5H7.5ZM17.6865 7.5H14.25C14.0511 7.5 13.8603 7.42098 13.7197 7.28033C13.579 7.13968 13.5 6.94891 13.5 6.75V3.309L17.688 7.497L17.6865 7.5ZM19.497 12.09C19.1218 12.2009 18.7804 12.4041 18.504 12.681L12.075 19.11C11.5534 19.6315 11.1797 20.2822 10.992 20.9955L10.9785 21.045L10.5255 22.8615C10.4873 23.0146 10.4893 23.1749 10.5313 23.3269C10.5733 23.479 10.654 23.6176 10.7654 23.7293C10.8768 23.841 11.0151 23.922 11.1671 23.9644C11.319 24.0069 11.4793 24.0093 11.6325 23.9715L13.449 23.517C14.1813 23.3341 14.8502 22.9556 15.384 22.422L21.816 15.99C22.1845 15.6223 22.4198 15.1422 22.4848 14.6257C22.5498 14.1092 22.4407 13.5858 22.1747 13.1383C21.9088 12.6907 21.5012 12.3447 21.0165 12.1548C20.5318 11.965 19.9976 11.9421 19.4985 12.09H19.497Z" fill="black"/>
</svg>
