<svg width="24" height="24" viewBox="0 0 24 24" fill="none" xmlns="http://www.w3.org/2000/svg">
<path d="M23.453 5.96681C23.6179 5.40989 23.453 5 22.66 5H20.0358C19.3675 5 19.06 5.35197 18.8952 5.74405C18.8952 5.74405 17.5586 9.00091 15.6695 11.1128C15.0591 11.7231 14.7784 11.9192 14.4443 11.9192C14.2794 11.9192 14.0255 11.7231 14.0255 11.1662V5.96681C14.0255 5.29851 13.8384 5 13.2859 5H9.16022C8.74142 5 8.49192 5.31188 8.49192 5.60147C8.49192 6.23414 9.43646 6.38116 9.53448 8.16331V12.0306C9.53448 12.8771 9.38299 13.033 9.04884 13.033C8.15777 13.033 5.99246 9.76278 4.70932 6.02028C4.45091 5.29405 4.19695 5 3.52419 5H0.899983C0.151482 5 0 5.35197 0 5.74405C0 6.43908 0.891072 9.89199 4.14794 14.4543C6.3177 17.5686 9.37408 19.2572 12.1542 19.2572C13.825 19.2572 14.0299 18.8829 14.0299 18.2369C14.0299 15.2607 13.8785 14.98 14.7161 14.98C15.1037 14.98 15.772 15.176 17.3314 16.6775C19.1135 18.4596 19.4076 19.2572 20.4056 19.2572H23.0298C23.7783 19.2572 24.157 18.8829 23.9387 18.1433C23.4397 16.5884 20.067 13.3894 19.9155 13.1756C19.5279 12.6766 19.6392 12.4538 19.9155 12.0083C19.9199 12.0038 23.1233 7.495 23.453 5.96681Z" fill="black"/>
</svg>
