<svg width="24" height="24" viewBox="0 0 24 24" fill="none" xmlns="http://www.w3.org/2000/svg">
<g clip-path="url(#clip0_1030_12054)">
<path d="M7.55259 16.9983C7.14525 16.591 7.35759 16.7058 6.37509 16.4428C5.92931 16.3233 5.53744 16.0936 5.18306 15.8184L3.05634 21.0328C2.85056 21.5377 3.23494 22.0861 3.77962 22.0655L6.24947 21.9713L7.94822 23.7656C8.32322 24.1613 8.98134 24.038 9.18712 23.5331L11.627 17.5509C11.1188 17.8341 10.5549 18 9.97181 18C9.05775 18 8.199 17.6442 7.55259 16.9983ZM20.9438 21.0328L18.8171 15.8184C18.4627 16.0941 18.0709 16.3233 17.6251 16.4428C16.6374 16.7072 16.854 16.5919 16.4476 16.9983C15.8012 17.6442 14.942 18 14.0279 18C13.4448 18 12.8809 17.8336 12.3727 17.5509L14.8126 23.5331C15.0184 24.038 15.677 24.1613 16.0515 23.7656L17.7507 21.9713L20.2206 22.0655C20.7652 22.0861 21.1496 21.5372 20.9438 21.0328ZM15.3282 15.9375C16.0445 15.2086 16.1265 15.2714 17.1465 14.9934C17.7976 14.8158 18.3067 14.2978 18.481 13.635C18.8317 12.3038 18.7407 12.4645 19.6974 11.4905C20.1742 11.0053 20.3602 10.298 20.1859 9.63517C19.8357 8.30486 19.8352 8.49048 20.1859 7.15876C20.3602 6.49595 20.1742 5.78861 19.6974 5.30345C18.7407 4.32939 18.8317 4.4897 18.481 3.15892C18.3067 2.49611 17.7976 1.97814 17.1465 1.80048C15.8396 1.44376 15.9971 1.53704 15.0395 0.562512C14.5627 0.0773555 13.8676 -0.112488 13.2165 0.065168C11.9101 0.421418 12.0924 0.421887 10.7837 0.065168C10.1326 -0.112488 9.43744 0.0768868 8.96072 0.562512C8.004 1.53657 8.1615 1.44376 6.85416 1.80048C6.20306 1.97814 5.694 2.49611 5.51962 3.15892C5.16947 4.4897 5.25994 4.32939 4.30322 5.30345C3.8265 5.78861 3.63994 6.49595 3.81478 7.15876C4.16494 8.48814 4.16541 8.30251 3.81478 9.6347C3.64041 10.2975 3.8265 11.0049 4.30322 11.4905C5.25994 12.4645 5.169 12.3038 5.51962 13.635C5.694 14.2978 6.20306 14.8158 6.85416 14.9934C7.90322 15.2794 7.9815 15.2344 8.67197 15.9375C9.29212 16.5689 10.2582 16.6819 11.0035 16.2103C11.3016 16.0211 11.6473 15.9206 12.0003 15.9206C12.3534 15.9206 12.6991 16.0211 12.9971 16.2103C13.742 16.6819 14.7081 16.5689 15.3282 15.9375ZM7.57791 8.24814C7.57791 5.76236 9.5579 3.7472 12.0001 3.7472C14.4423 3.7472 16.4223 5.76236 16.4223 8.24814C16.4223 10.7339 14.4423 12.7491 12.0001 12.7491C9.5579 12.7491 7.57791 10.7339 7.57791 8.24814Z" fill="black"/>
</g>
<defs>
<clipPath id="clip0_1030_12054">
<rect width="24" height="24" fill="white"/>
</clipPath>
</defs>
</svg>
