<svg width="24" height="24" viewBox="0 0 24 24" fill="none" xmlns="http://www.w3.org/2000/svg">
<path d="M10.5576 12.689C10.5576 13.8497 9.61671 13.4696 8.45554 13.4696C7.29438 13.4696 6.35352 13.8497 6.35352 12.689C6.35352 11.5283 7.29438 10.587 8.45554 10.587C9.61671 10.587 10.5576 11.5278 10.5576 12.689Z" fill="black"/>
<path d="M17.5771 12.724C17.5771 13.8847 16.6362 13.5046 15.4751 13.5046C14.3139 13.5046 13.373 13.8847 13.373 12.724C13.373 11.5632 14.3139 10.6219 15.4751 10.6219C16.6362 10.6219 17.5771 11.5628 17.5771 12.724Z" fill="black"/>
<path d="M4.1391 17.9675L4.13913 17.9674L4.12848 17.9615C3.27722 17.4902 2.75 16.6044 2.75 15.6789V8.32108C2.75 7.38043 3.26453 6.50822 4.09196 6.04389L4.09442 6.0425L10.6158 2.36337L10.6179 2.36219C11.4701 1.87927 12.5126 1.87927 13.3648 2.3622L13.3668 2.36333L19.8848 6.04102L19.8848 6.04106L19.8938 6.04607C20.7351 6.51163 21.25 7.38478 21.25 8.32108V15.6789C21.25 16.5939 20.7428 17.473 19.8865 17.9585C19.8862 17.9586 19.8859 17.9588 19.8856 17.959L13.3669 21.6366L13.3648 21.6378C12.5126 22.1207 11.4701 22.1207 10.6179 21.6378L10.6178 21.6377L4.1391 17.9675ZM10.0017 1.27477L10.0016 1.27467L10.0017 1.27477Z" stroke="black" stroke-width="2.5"/>
</svg>
