<svg width="32" height="32" viewBox="0 0 32 32" fill="none" xmlns="http://www.w3.org/2000/svg">
<path d="M14.0771 16.9187C14.0771 18.4663 12.8226 17.9595 11.2744 17.9595C9.72616 17.9595 8.47168 18.4663 8.47168 16.9187C8.47168 15.371 9.72616 14.116 11.2744 14.116C12.8226 14.116 14.0771 15.3704 14.0771 16.9187Z" fill="black"/>
<path d="M23.4365 16.9653C23.4365 18.513 22.182 18.0062 20.6338 18.0062C19.0855 18.0062 17.8311 18.513 17.8311 16.9653C17.8311 15.4177 19.0855 14.1626 20.6338 14.1626C22.182 14.1626 23.4365 15.4171 23.4365 16.9653Z" fill="black"/>
<path d="M5.51059 23.9712L5.5036 23.9672L5.49657 23.9633C4.35647 23.332 3.65 22.1455 3.65 20.9052V11.0948C3.65 9.83446 4.33937 8.666 5.44778 8.04397L5.44779 8.04398L5.45104 8.04215L14.1463 3.13664L14.149 3.13509C15.2904 2.4883 16.6866 2.4883 17.828 3.13509L17.8306 3.13659L26.5212 8.04018L26.5212 8.04023L26.5332 8.04684C27.6602 8.67048 28.35 9.84022 28.35 11.0948V20.9052C28.35 22.1313 27.6703 23.3089 26.5236 23.9591C26.5232 23.9593 26.5228 23.9596 26.5223 23.9598L17.8307 28.8634L17.828 28.8649C16.6866 29.5117 15.2904 29.5117 14.149 28.8649L14.1488 28.8648L5.51059 23.9712Z" stroke="black" stroke-width="3.3"/>
</svg>
