<svg width="24" height="24" viewBox="0 0 24 24" fill="none" xmlns="http://www.w3.org/2000/svg">
<path d="M20 4H4C2.9 4 2.01 4.9 2.01 6L2 18C2 19.1 2.9 20 4 20H11C11.5523 20 12 19.5523 12 19C12 18.4477 11.5523 18 11 18H5C4.44772 18 4 17.5523 4 17V8.18042C4 8.10188 4.0864 8.054 4.153 8.09562L11.47 12.6688C11.7943 12.8714 12.2057 12.8714 12.53 12.6688L19.847 8.09562C19.9136 8.054 20 8.10188 20 8.18042V12C20 12.5523 20.4477 13 21 13C21.5523 13 22 12.5523 22 12V6C22 4.9 21.1 4 20 4ZM12.53 10.6688C12.2057 10.8714 11.7943 10.8714 11.47 10.6688L4.29568 6.1848C4.21048 6.13155 4.24821 6 4.34868 6H19.6513C19.7518 6 19.7895 6.13155 19.7043 6.1848L12.53 10.6688Z" fill="black"/>
<path d="M14.705 19.235L16.8329 21.3629C17.2234 21.7534 17.8566 21.7534 18.2471 21.3629L22.4879 17.1221C22.8804 16.7296 22.8752 16.0897 22.48 15.7C22.0887 15.3142 21.4564 15.3136 21.0679 15.7021L18.2371 18.5329C17.8466 18.9234 17.2134 18.9234 16.8229 18.5329L16.115 17.825C15.7256 17.4356 15.0944 17.4356 14.705 17.825C14.3156 18.2144 14.3156 18.8456 14.705 19.235Z" fill="black"/>
</svg>
