<svg width="24" height="24" viewBox="0 0 24 24" fill="none" xmlns="http://www.w3.org/2000/svg">
<g clip-path="url(#clip0_1030_12055)">
<path d="M21.375 3.14999C21.1171 2.98317 20.8222 2.88224 20.5162 2.85609C20.2102 2.82993 19.9024 2.87935 19.62 2.99999L10.365 6.64499C10.1459 6.73417 9.91156 6.78002 9.675 6.77999H3.75C3.25272 6.77999 2.77581 6.97754 2.42417 7.32917C2.07254 7.6808 1.875 8.15771 1.875 8.65499V8.80499H0V13.305H1.875V13.5C1.88675 13.9894 2.08947 14.4549 2.43983 14.7968C2.7902 15.1388 3.26042 15.3301 3.75 15.33L6 20.1C6.15236 20.4212 6.39222 20.6929 6.69204 20.884C6.99187 21.075 7.33949 21.1776 7.695 21.18H8.64C9.13468 21.176 9.60775 20.9767 9.95614 20.6255C10.3045 20.2743 10.5 19.7997 10.5 19.305V15.51L19.62 19.155C19.8443 19.2443 20.0836 19.2901 20.325 19.29C20.6996 19.284 21.0643 19.1693 21.375 18.96C21.6217 18.7934 21.8252 18.5705 21.9687 18.3096C22.1121 18.0488 22.1914 17.7576 22.2 17.46V4.69499C22.1986 4.38977 22.1228 4.08949 21.979 3.82024C21.8352 3.551 21.6279 3.32092 21.375 3.14999ZM8.625 8.65499V13.5H3.75V8.65499H8.625ZM8.625 19.305H7.68L5.835 15.33H8.625V19.305ZM11.055 13.725C10.8769 13.634 10.6912 13.5587 10.5 13.5V8.54999C10.6894 8.51092 10.875 8.45572 11.055 8.38499L20.325 4.69499V17.415L11.055 13.725ZM22.245 9.17999V12.93C22.7423 12.93 23.2192 12.7325 23.5708 12.3808C23.9225 12.0292 24.12 11.5523 24.12 11.055C24.12 10.5577 23.9225 10.0808 23.5708 9.72917C23.2192 9.37754 22.7423 9.17999 22.245 9.17999Z" fill="black"/>
</g>
<defs>
<clipPath id="clip0_1030_12055">
<rect width="24" height="24" fill="white"/>
</clipPath>
</defs>
</svg>
