<svg width="24" height="24" viewBox="0 0 24 24" fill="none" xmlns="http://www.w3.org/2000/svg">
<path d="M5.656 20.479C5.51242 20.6038 5.3362 20.6851 5.14803 20.7133C4.95987 20.7415 4.76756 20.7155 4.59369 20.6382C4.41982 20.5609 4.2716 20.4357 4.16644 20.2771C4.06128 20.1185 4.00354 19.9332 4 19.743V17.5C3.46957 17.5 2.96086 17.2893 2.58579 16.9142C2.21071 16.5391 2 16.0304 2 15.5V8.5C2 7.96957 2.21071 7.46086 2.58579 7.08579C2.96086 6.71071 3.46957 6.5 4 6.5H15C15.5304 6.5 16.0391 6.71071 16.4142 7.08579C16.7893 7.46086 17 7.96957 17 8.5V15.5C17 16.0304 16.7893 16.5391 16.4142 16.9142C16.0391 17.2893 15.5304 17.5 15 17.5H10.003L5.656 20.479V20.479ZM6.5 17.386C6.59112 17.3855 6.68061 17.3617 6.76 17.317L9.115 15.679C9.2826 15.5624 9.48186 15.5 9.686 15.5H14C14.2652 15.5 14.5196 15.3946 14.7071 15.2071C14.8946 15.0196 15 14.7652 15 14.5V9.5C15 9.23478 14.8946 8.98043 14.7071 8.79289C14.5196 8.60536 14.2652 8.5 14 8.5H5C4.73478 8.5 4.48043 8.60536 4.29289 8.79289C4.10536 8.98043 4 9.23478 4 9.5V14.5C4 15.04 4.429 15.482 5 15.5C5.41 15.516 5.707 15.583 5.844 15.726C5.972 15.86 5.979 16.086 6 16.516C6.003 16.579 6.003 16.693 6 16.886C6 17.0186 6.05268 17.1458 6.14645 17.2396C6.24021 17.3333 6.36739 17.386 6.5 17.386V17.386ZM18 12.516C17.9968 12.6393 17.9968 12.7627 18 12.886V12.516C18.02 12.086 18.028 11.86 18.156 11.726C18.293 11.583 18.59 11.516 19 11.5C19.571 11.482 20 11.04 20 10.5V5.5C20 5.23478 19.8946 4.98043 19.7071 4.79289C19.5196 4.60536 19.2652 4.5 19 4.5H10C9.73478 4.5 9.48043 4.60536 9.29289 4.79289C9.10536 4.98043 9 5.23478 9 5.5H7V4.5C7 3.96957 7.21071 3.46086 7.58579 3.08579C7.96086 2.71071 8.46957 2.5 9 2.5H20C20.5304 2.5 21.0391 2.71071 21.4142 3.08579C21.7893 3.46086 22 3.96957 22 4.5V11.5C22 12.0304 21.7893 12.5391 21.4142 12.9142C21.0391 13.2893 20.5304 13.5 20 13.5V15.743C19.9965 15.9332 19.9387 16.1185 19.8336 16.2771C19.7284 16.4357 19.5802 16.5609 19.4063 16.6382C19.2324 16.7155 19.0401 16.7415 18.852 16.7133C18.6638 16.6851 18.4876 16.6038 18.344 16.479L18 16.243V12.517V12.516Z" fill="black"/>
</svg>
