<svg width="24" height="24" viewBox="0 0 24 24" fill="none" xmlns="http://www.w3.org/2000/svg">
<path d="M12 2C6.48702 2 2 6.48702 2 12C2 17.513 6.48702 22 12 22C17.513 22 22 17.513 22 12C22 6.48702 17.513 2 12 2ZM12 3.66667C16.6122 3.66667 20.3333 7.38776 20.3333 12C20.3333 16.6122 16.6122 20.3333 12 20.3333C7.38776 20.3333 3.66667 16.6122 3.66667 12C3.66667 7.38776 7.38776 3.66667 12 3.66667ZM8.66667 7.83333C7.29586 7.83333 6.16667 8.96252 6.16667 10.3333V13.6667C6.16667 15.0375 7.29586 16.1667 8.66667 16.1667C10.0375 16.1667 11.1667 15.0375 11.1667 13.6667V10.3333C11.1667 8.96252 10.0375 7.83333 8.66667 7.83333ZM15.2031 7.83333C13.8995 7.83333 12.8333 8.89949 12.8333 10.2031C12.8333 11.1023 13.3313 11.9365 14.1354 12.3385L15.776 13.1458C16.0196 13.268 16.1667 13.5261 16.1667 13.7969C16.1667 14.1999 15.8666 14.5 15.4635 14.5H15.2031C14.8001 14.5 14.5 14.1999 14.5 13.7969V13.6667H12.8333V13.7969C12.8333 15.1005 13.8995 16.1667 15.2031 16.1667H15.4635C16.7672 16.1667 17.8333 15.1005 17.8333 13.7969C17.8333 12.8977 17.3344 12.0643 16.5312 11.6615L14.8906 10.8542C14.648 10.7329 14.5 10.4739 14.5 10.2031C14.5 9.8001 14.8001 9.5 15.2031 9.5H15.4635C15.8666 9.5 16.1667 9.8001 16.1667 10.2031V10.3333H17.8333V10.2031C17.8333 8.89949 16.7672 7.83333 15.4635 7.83333H15.2031ZM8.66667 9.5C9.13752 9.5 9.5 9.86247 9.5 10.3333V13.6667C9.5 14.1375 9.13752 14.5 8.66667 14.5C8.19581 14.5 7.83333 14.1375 7.83333 13.6667V10.3333C7.83333 9.86247 8.19581 9.5 8.66667 9.5Z" fill="black"/>
</svg>
