<svg width="24" height="24" viewBox="0 0 24 24" fill="none" xmlns="http://www.w3.org/2000/svg">
<rect width="24" height="24" rx="1" fill="#9B9B9B"/>
<path d="M6.91113 14.0547V14.5H4.11914V14.1104L5.5166 12.5547C5.68848 12.3633 5.82129 12.2012 5.91504 12.0684C6.01074 11.9336 6.07715 11.8135 6.11426 11.708C6.15332 11.6006 6.17285 11.4912 6.17285 11.3799C6.17285 11.2393 6.14355 11.1123 6.08496 10.999C6.02832 10.8838 5.94434 10.792 5.83301 10.7236C5.72168 10.6553 5.58691 10.6211 5.42871 10.6211C5.23926 10.6211 5.08105 10.6582 4.9541 10.7324C4.8291 10.8047 4.73535 10.9062 4.67285 11.0371C4.61035 11.168 4.5791 11.3184 4.5791 11.4883H4.03711C4.03711 11.248 4.08984 11.0283 4.19531 10.8291C4.30078 10.6299 4.45703 10.4717 4.66406 10.3545C4.87109 10.2354 5.12598 10.1758 5.42871 10.1758C5.69824 10.1758 5.92871 10.2236 6.12012 10.3193C6.31152 10.4131 6.45801 10.5459 6.55957 10.7178C6.66309 10.8877 6.71484 11.0869 6.71484 11.3154C6.71484 11.4404 6.69336 11.5674 6.65039 11.6963C6.60938 11.8232 6.55176 11.9502 6.47754 12.0771C6.40527 12.2041 6.32031 12.3291 6.22266 12.4521C6.12695 12.5752 6.02441 12.6963 5.91504 12.8154L4.77246 14.0547H6.91113ZM10.374 13.0645V13.5098H7.29199V13.1904L9.20215 10.2344H9.64453L9.16992 11.0898L7.90723 13.0645H10.374ZM9.7793 10.2344V14.5H9.2373V10.2344H9.7793ZM11.291 11.3301L11.9854 12.4844L12.6885 11.3301H13.3242L12.2871 12.8945L13.3564 14.5H12.7295L11.9971 13.3105L11.2646 14.5H10.6348L11.7012 12.8945L10.667 11.3301H11.291ZM16.6377 14.0547V14.5H13.8457V14.1104L15.2432 12.5547C15.415 12.3633 15.5479 12.2012 15.6416 12.0684C15.7373 11.9336 15.8037 11.8135 15.8408 11.708C15.8799 11.6006 15.8994 11.4912 15.8994 11.3799C15.8994 11.2393 15.8701 11.1123 15.8115 10.999C15.7549 10.8838 15.6709 10.792 15.5596 10.7236C15.4482 10.6553 15.3135 10.6211 15.1553 10.6211C14.9658 10.6211 14.8076 10.6582 14.6807 10.7324C14.5557 10.8047 14.4619 10.9062 14.3994 11.0371C14.3369 11.168 14.3057 11.3184 14.3057 11.4883H13.7637C13.7637 11.248 13.8164 11.0283 13.9219 10.8291C14.0273 10.6299 14.1836 10.4717 14.3906 10.3545C14.5977 10.2354 14.8525 10.1758 15.1553 10.1758C15.4248 10.1758 15.6553 10.2236 15.8467 10.3193C16.0381 10.4131 16.1846 10.5459 16.2861 10.7178C16.3896 10.8877 16.4414 11.0869 16.4414 11.3154C16.4414 11.4404 16.4199 11.5674 16.377 11.6963C16.3359 11.8232 16.2783 11.9502 16.2041 12.0771C16.1318 12.2041 16.0469 12.3291 15.9492 12.4521C15.8535 12.5752 15.751 12.6963 15.6416 12.8154L14.499 14.0547H16.6377ZM20.1006 13.0645V13.5098H17.0186V13.1904L18.9287 10.2344H19.3711L18.8965 11.0898L17.6338 13.0645H20.1006ZM19.5059 10.2344V14.5H18.9639V10.2344H19.5059Z" fill="white"/>
</svg>
