<svg width="64" height="64" viewBox="0 0 64 64" fill="none" xmlns="http://www.w3.org/2000/svg">
<path d="M33.7415 30.77V19.6925C33.7415 17.6525 32.0274 16 29.9111 16C27.7948 16 26.0805 17.6525 26.0805 19.6925V28.3075V41L19.2182 37.6051C17.6569 36.8326 15.7559 37.1201 14.5162 38.315C12.8745 39.8975 12.9523 42.485 14.6848 43.9751L27.1982 54.7325C28.1501 55.5476 29.3767 56 30.6502 56H42.6657C45.0958 56 47.2017 54.3725 47.7282 52.085L50.511 40.01C51.3228 36.485 48.8771 33.0301 45.1763 32.4775L33.7415 30.77Z" stroke="#E09A30" stroke-width="4" stroke-linecap="round" stroke-linejoin="round"/>
<path d="M16 18.6668C16 11.3042 21.9706 5.3335 29.3332 5.3335C36.696 5.3335 42.6667 11.3042 42.6667 18.6668" stroke="#2755A1" stroke-width="4" stroke-linecap="round" stroke-linejoin="round"/>
</svg>
