<svg width="24" height="24" viewBox="0 0 24 24" fill="none" xmlns="http://www.w3.org/2000/svg">
<path d="M10 21L14 17H20C20.55 17 21.021 17.1957 21.413 17.587C21.8043 17.979 22 18.45 22 19C22 19.55 21.8043 20.021 21.413 20.413C21.021 20.8043 20.55 21 20 21H10ZM18.3 8.925L14.05 4.725L15.45 3.325C15.8333 2.94167 16.3043 2.75 16.863 2.75C17.421 2.75 17.8917 2.94167 18.275 3.325L19.675 4.725C20.0583 5.10833 20.2583 5.571 20.275 6.113C20.2917 6.65433 20.1083 7.11667 19.725 7.5L18.3 8.925ZM3 21C2.71667 21 2.47933 20.904 2.288 20.712C2.096 20.5207 2 20.2833 2 20V17.175C2 17.0417 2.025 16.9127 2.075 16.788C2.125 16.6627 2.2 16.55 2.3 16.45L12.6 6.15L16.85 10.4L6.55 20.7C6.45 20.8 6.33767 20.875 6.213 20.925C6.08767 20.975 5.95833 21 5.825 21H3Z" fill="black"/>
</svg>
