<svg width="24" height="24" viewBox="0 0 24 24" fill="none" xmlns="http://www.w3.org/2000/svg">
<g clip-path="url(#clip0_1030_12059)">
<path d="M11.625 0C5.20467 0 0 5.20467 0 11.625C0 18.0453 5.20467 23.25 11.625 23.25C18.0453 23.25 23.25 18.0453 23.25 11.625C23.25 5.20467 18.0453 0 11.625 0ZM17.0134 7.90594C16.8384 9.74414 16.0815 14.2049 15.6962 16.2638C15.5332 17.1349 15.2123 17.427 14.9017 17.4555C14.2267 17.5177 13.714 17.0094 13.0602 16.5808C12.037 15.9101 11.459 15.4926 10.4658 14.8381C9.31809 14.0818 10.0621 13.6663 10.7162 12.9866C10.8874 12.8088 13.8619 10.1033 13.9194 9.85786C13.9266 9.82716 13.9335 9.71255 13.8653 9.65236C13.7972 9.59217 13.6971 9.61256 13.6246 9.62892C13.522 9.65224 11.8875 10.7326 8.72114 12.87C8.25723 13.1885 7.83702 13.3437 7.46048 13.3356C7.04541 13.3267 6.24698 13.101 5.65341 12.908C4.92539 12.6713 4.34677 12.5462 4.39716 12.1443C4.42341 11.935 4.71169 11.7209 5.262 11.5021C8.65094 10.0256 10.9107 9.0522 12.0414 8.58183C15.2698 7.239 15.9406 7.00575 16.3779 6.99797C16.4741 6.99638 16.6891 7.02019 16.8284 7.1332C16.921 7.21371 16.9801 7.32606 16.9938 7.44802C17.0174 7.59945 17.024 7.75305 17.0134 7.90594Z" fill="black"/>
</g>
<defs>
<clipPath id="clip0_1030_12059">
<rect width="24" height="24" fill="white"/>
</clipPath>
</defs>
</svg>
