<svg width="24" height="24" viewBox="0 0 24 24" fill="none" xmlns="http://www.w3.org/2000/svg">
<path d="M5.4 8C7.0575 8 8.4 6.6575 8.4 5C8.4 3.3425 7.0575 2 5.4 2C3.7425 2 2.4 3.3425 2.4 5C2.4 6.6575 3.7425 8 5.4 8ZM19.2 8C20.8575 8 22.2 6.6575 22.2 5C22.2 3.3425 20.8575 2 19.2 2C17.5425 2 16.2 3.3425 16.2 5C16.2 6.6575 17.5425 8 19.2 8ZM0 13.2013C0 13.64 0.36 14 0.79875 14H8.8275C7.83 13.1188 7.20375 11.8325 7.20375 10.4C7.20375 10.115 7.23 9.8375 7.275 9.56375C6.765 9.3275 6.19875 9.2 5.6025 9.2H4.00125C1.7925 9.2 0 10.9925 0 13.2013ZM12 14C12.9 14 13.7212 13.67 14.3512 13.1263C14.445 12.9875 14.5462 12.8525 14.6512 12.725C14.7525 12.6013 14.865 12.4963 14.9887 12.4138C15.375 11.8363 15.6 11.1463 15.6 10.4C15.6 8.4125 13.9875 6.8 12 6.8C10.0125 6.8 8.4 8.4125 8.4 10.4C8.4 12.3875 10.0125 14 12 14ZM14.4525 16.2575C14.0662 16.0363 13.7737 15.65 13.6725 15.2H9.79875C7.03875 15.2 4.8 17.4388 4.8 20.1987C4.8 20.75 5.24625 21.2 5.80125 21.2H17.07C16.9912 21.005 16.95 20.7913 16.95 20.585V20.4725C16.9012 20.4463 16.8487 20.4163 16.8 20.3862L16.7025 20.4425C16.0725 20.8062 15.1837 20.7425 14.6512 20.0788C14.4825 19.8688 14.3287 19.6475 14.1862 19.4188L14.1825 19.4113L14.1787 19.4038L14.0887 19.25L14.085 19.2425L14.0812 19.235C13.9537 19.0025 13.8412 18.7625 13.7437 18.5112C13.4362 17.7163 13.8262 16.9138 14.4562 16.55L14.5575 16.4938V16.3212L14.4562 16.265L14.4525 16.2575ZM19.9987 9.2H18.4012C17.805 9.2 17.2387 9.33125 16.7287 9.56375C16.7775 9.83375 16.8 10.115 16.8 10.4C16.8 11.0525 16.6687 11.6713 16.4362 12.2375C16.53 12.2713 16.62 12.3125 16.7025 12.3612L16.8 12.4175C16.8487 12.3875 16.8975 12.3575 16.95 12.3313V12.2188C16.95 11.4913 17.4487 10.7525 18.2925 10.6213C18.5887 10.5763 18.8925 10.55 19.2 10.55C19.5075 10.55 19.8112 10.5725 20.1075 10.6213C20.9513 10.7525 21.45 11.4913 21.45 12.2188V12.3313C21.4987 12.3575 21.5512 12.3875 21.6 12.4175L21.6975 12.3612C22.3275 11.9975 23.2162 12.0613 23.7487 12.725C23.835 12.83 23.9175 12.9425 23.9963 13.0513C23.9175 10.91 22.1587 9.2 19.9987 9.2ZM23.4225 15.3463C23.6587 15.2113 23.7787 14.93 23.6775 14.6713C23.5987 14.465 23.505 14.2663 23.4 14.075L23.3137 13.925C23.1975 13.7338 23.07 13.5538 22.9312 13.3813C22.7587 13.1675 22.455 13.13 22.2187 13.2688L21.54 13.6625C21.2062 13.3775 20.8237 13.1525 20.4 13.0025V12.215C20.4 11.9412 20.2162 11.6975 19.9462 11.6562C19.7025 11.6188 19.455 11.6 19.2 11.6C18.945 11.6 18.6975 11.6188 18.4537 11.6562C18.1837 11.6975 18 11.9412 18 12.215V13.0025C17.58 13.1525 17.1937 13.3775 16.86 13.6625L16.1775 13.2688C15.9412 13.1338 15.6375 13.1713 15.465 13.3813C15.3262 13.5538 15.1987 13.7375 15.0825 13.9288L14.9962 14.075C14.8912 14.2663 14.7975 14.465 14.7187 14.6713C14.6212 14.9263 14.7375 15.2075 14.9737 15.3425L15.6562 15.7362C15.6187 15.95 15.5962 16.1713 15.5962 16.3963C15.5962 16.6213 15.6187 16.8425 15.6562 17.0525L14.9737 17.4462C14.7375 17.5813 14.6175 17.8625 14.7187 18.1175C14.7975 18.3237 14.8912 18.5188 14.9962 18.71L15.0862 18.8638C15.1987 19.055 15.3262 19.235 15.465 19.4075C15.6375 19.6213 15.9412 19.6588 16.1775 19.52L16.86 19.1375C17.1937 19.4225 17.58 19.6475 18 19.7975V20.585C18 20.8588 18.1837 21.1025 18.4537 21.1438C18.6975 21.1813 18.945 21.2 19.2 21.2C19.455 21.2 19.7025 21.1813 19.9462 21.1438C20.2162 21.1025 20.4 20.8588 20.4 20.585V19.7975C20.82 19.6475 21.2062 19.4225 21.54 19.1375L22.2225 19.5312C22.4587 19.6663 22.7625 19.6287 22.935 19.4188C23.0737 19.2463 23.2012 19.0662 23.3137 18.875L23.4037 18.7175C23.5087 18.5263 23.6025 18.3313 23.6812 18.125C23.7787 17.87 23.6625 17.5888 23.4262 17.4538L22.7437 17.06C22.7812 16.8463 22.8037 16.625 22.8037 16.4038C22.8037 16.1825 22.7812 15.9575 22.7437 15.7438L23.4262 15.35L23.4225 15.3463ZM20.7 16.4C20.7 17.2288 20.0287 17.9 19.2 17.9C18.3712 17.9 17.7 17.2288 17.7 16.4C17.7 15.5713 18.3712 14.9 19.2 14.9C20.0287 14.9 20.7 15.5713 20.7 16.4Z" fill="black"/>
</svg>
