<svg width="64" height="64" viewBox="0 0 64 64" fill="none" xmlns="http://www.w3.org/2000/svg">
<path d="M53.3335 10.6665H10.6668C7.7335 10.6665 5.36016 13.0665 5.36016 15.9998L5.3335 47.9998C5.3335 50.9332 7.7335 53.3332 10.6668 53.3332H31.0002C31.5524 53.3332 32.0002 52.8855 32.0002 52.3332V48.9998C32.0002 48.4476 31.5524 47.9998 31.0002 47.9998H11.6668C11.1145 47.9998 10.6668 47.5521 10.6668 46.9998V21.5136C10.6668 21.4351 10.7532 21.3872 10.8198 21.4288L31.4702 34.3353C31.7944 34.5379 32.2059 34.5379 32.5302 34.3353L53.1805 21.4288C53.2471 21.3872 53.3335 21.4351 53.3335 21.5136V33.6665C53.3335 34.2188 53.7812 34.6665 54.3335 34.6665H57.6668C58.2191 34.6665 58.6668 34.2188 58.6668 33.6665V15.9998C58.6668 13.0665 56.2668 10.6665 53.3335 10.6665ZM32.5302 29.0019C32.2059 29.2046 31.7944 29.2046 31.4702 29.0019L10.9625 16.1846C10.8773 16.1314 10.915 15.9998 11.0155 15.9998H52.9848C53.0853 15.9998 53.123 16.1314 53.0378 16.1846L32.5302 29.0019Z" fill="#2755A1"/>
<path d="M38.0406 50.1204L46.0664 58.1462C46.4569 58.5368 47.0901 58.5368 47.4806 58.1462L61.1547 44.4721C61.5472 44.0796 61.545 43.4426 61.1497 43.0529L58.7606 40.6972C58.3693 40.3113 57.7399 40.3136 57.3514 40.7021L47.4539 50.5996C47.0634 50.9901 46.4302 50.9901 46.0397 50.5996L41.8006 46.3604C41.4101 45.9699 40.7769 45.9699 40.3864 46.3604L38.0406 48.7062C37.6501 49.0967 37.6501 49.7299 38.0406 50.1204Z" fill="#E09A30"/>
</svg>
