<svg width="281" height="344" viewBox="0 0 281 344" fill="none" xmlns="http://www.w3.org/2000/svg">
<path d="M0 104.022L0 201.978C0 221.749 10.5995 239.947 27.7391 249.608L112.761 298.586C129.9 308.471 150.874 308.471 168.014 298.586L253.261 249.608C270.4 239.722 281 221.524 281 201.978V104.022C281 84.2511 270.4 66.0529 253.261 56.3921L168.014 7.41411C150.874 -2.47135 129.9 -2.47135 112.761 7.41411L27.5136 56.3921C10.5995 66.0529 0 84.2511 0 104.022Z" fill="url(#paint0_linear_1237_11225)"/>
<path d="M17 168.424L17 253.576C17 270.762 26.2038 286.581 41.0867 294.979L114.913 337.555C129.796 346.148 148.008 346.148 162.891 337.555L236.913 294.979C251.796 286.386 261 270.567 261 253.576V168.424C261 151.238 251.796 135.419 236.913 127.021L162.891 84.4449C148.008 75.8517 129.796 75.8517 114.913 84.4449L40.8908 127.021C26.2038 135.419 17 151.238 17 168.424Z" fill="url(#paint1_linear_1237_11225)"/>
<defs>
<linearGradient id="paint0_linear_1237_11225" x1="141" y1="3.5" x2="141" y2="306" gradientUnits="userSpaceOnUse">
<stop stop-color="#E3E3E3"/>
<stop offset="1" stop-color="#E3E3E3" stop-opacity="0"/>
</linearGradient>
<linearGradient id="paint1_linear_1237_11225" x1="139" y1="78" x2="139" y2="344" gradientUnits="userSpaceOnUse">
<stop stop-color="#3B82F6"/>
<stop offset="1" stop-color="#2755A1" stop-opacity="0.5"/>
</linearGradient>
</defs>
</svg>
