<svg width="24" height="15" viewBox="0 0 24 15" fill="none" xmlns="http://www.w3.org/2000/svg">
<path d="M23.453 0.966813C23.6179 0.409893 23.453 0 22.66 0H20.0358C19.3675 0 19.06 0.351973 18.8952 0.744045C18.8952 0.744045 17.5586 4.00091 15.6695 6.11276C15.0591 6.72314 14.7784 6.91918 14.4443 6.91918C14.2794 6.91918 14.0255 6.72314 14.0255 6.16622V0.966813C14.0255 0.298509 13.8384 0 13.2859 0H9.16022C8.74142 0 8.49192 0.311875 8.49192 0.601474C8.49192 1.23414 9.43646 1.38116 9.53448 3.16331V7.03056C9.53448 7.87708 9.38299 8.03302 9.04884 8.03302C8.15777 8.03302 5.99246 4.76278 4.70932 1.02028C4.45091 0.294054 4.19695 0 3.52419 0H0.899983C0.151482 0 0 0.351973 0 0.744045C0 1.43908 0.891072 4.89199 4.14794 9.45428C6.3177 12.5686 9.37408 14.2572 12.1542 14.2572C13.825 14.2572 14.0299 13.8829 14.0299 13.2369C14.0299 10.2607 13.8785 9.98001 14.7161 9.98001C15.1037 9.98001 15.772 10.176 17.3314 11.6775C19.1135 13.4596 19.4076 14.2572 20.4056 14.2572H23.0298C23.7783 14.2572 24.157 13.8829 23.9387 13.1433C23.4397 11.5884 20.067 8.38945 19.9155 8.17559C19.5279 7.67659 19.6392 7.45382 19.9155 7.00828C19.9199 7.00383 23.1233 2.495 23.453 0.966813Z" fill="white"/>
</svg>
