<svg width="16" height="16" viewBox="0 0 16 16" fill="none" xmlns="http://www.w3.org/2000/svg">
<path d="M11.5333 7.59172L12.8417 6.28339L9.71667 3.15839L8.40833 4.46672L4.95833 1.02505C4.30833 0.375053 3.25 0.375053 2.6 1.02505L1.01667 2.60839C0.366667 3.25839 0.366667 4.31672 1.01667 4.96672L4.45833 8.40839L0.5 12.3751V15.5001H3.625L7.59167 11.5334L11.0333 14.9751C11.825 15.7667 12.8917 15.4751 13.3917 14.9751L14.975 13.3917C15.625 12.7417 15.625 11.6834 14.975 11.0334L11.5333 7.59172V7.59172ZM5.65 7.22505L2.2 3.78339L3.775 2.20005L4.83333 3.25839L3.85 4.25005L5.025 5.42505L6.01667 4.43339L7.225 5.64172L5.65 7.22505V7.22505ZM12.2167 13.8001L8.775 10.3584L10.3583 8.77505L11.5667 9.98339L10.575 10.9751L11.75 12.1501L12.7417 11.1584L13.8 12.2167L12.2167 13.8001V13.8001ZM15.2583 3.86672C15.3356 3.78962 15.3969 3.69805 15.4387 3.59724C15.4805 3.49643 15.502 3.38836 15.502 3.27922C15.502 3.17008 15.4805 3.06201 15.4387 2.9612C15.3969 2.86039 15.3356 2.76881 15.2583 2.69172L13.3083 0.741719C12.9167 0.350053 12.375 0.500053 12.1333 0.741719L10.6083 2.26672L13.7333 5.39172L15.2583 3.86672V3.86672Z" fill="white"/>
</svg>
