<svg width="550" height="452" viewBox="0 0 550 452" fill="none" xmlns="http://www.w3.org/2000/svg">
<path d="M416.113 86H336.913C336.405 86 335.919 86.212 335.56 86.5894C335.202 86.9667 335 87.4785 335 88.0122V109.053C335 109.586 335.202 110.098 335.56 110.475C335.919 110.853 336.405 111.065 336.913 111.065H344.041V118L352.329 111.065H416.087C416.595 111.065 417.081 110.853 417.44 110.475C417.798 110.098 418 109.586 418 109.053V88.0189C418.002 87.4887 417.804 86.9792 417.451 86.6011C417.098 86.2231 416.617 86.0071 416.113 86Z" fill="#2F2E41"/>
<path d="M157.001 288C157.001 288 156.898 296.018 159.355 298C161.411 296.209 163.004 293.953 164 291.423C161.589 290.446 159.25 289.303 157.001 288Z" fill="#0071F2"/>
<path d="M326 388L334.53 298C334.53 298 372.777 305.095 389 298L385.707 388H364.112L361.765 327.603L350.683 388H326Z" fill="#3F3D56"/>
<path d="M326 388L334.53 298C334.53 298 372.777 305.095 389 298L385.707 388H364.112L361.765 327.603L350.683 388H326Z" fill="#2F2E41"/>
<path d="M169.109 328.077C169.109 328.077 167.021 302.265 181.097 283C181.097 283 185.968 292.27 207.016 290.088C207.016 290.088 217.402 288.162 222.209 285.308C222.209 285.308 230.5 304.269 229.976 324.622C229.976 324.622 226.821 382.484 225.799 387H205.994C205.994 387 199.212 336.075 198.688 329.686C198.688 329.686 198.688 372.284 200.429 386.974H179.558C179.558 386.974 168.005 345.958 169.109 328.077Z" fill="#2F2E41"/>
<path d="M166.867 277.043L167.744 246.083C168.62 227.868 193.624 224.875 193.624 224.875C193.624 224.875 218.025 222.034 225.396 226.592L255 250.523L252.897 288.705L241.332 300.181C241.332 300.181 231.521 282.342 232.048 278.867L244.312 268.296C244.312 268.296 228.02 257.004 226.444 253.906C226.444 253.906 215.642 275.583 226.095 294.341C226.095 294.341 216.284 302.725 204.369 304C204.369 304 200.925 251.355 208.519 228.224C208.519 228.224 199.858 234.171 192.519 228.224C192.519 228.224 185.802 242.251 187.029 264.285C187.029 264.285 190.009 295.616 187.029 302.903C187.029 302.903 175.369 300.307 173.265 297.215C173.265 297.215 174.898 293.957 176.868 286.148C176.868 286.148 173.691 298.166 159 298.166C158.975 298.173 166.454 291.255 166.867 277.043Z" fill="#0071F2"/>
<path d="M254.56 295L241 387H262.817L276.25 326.742C276.364 326.204 276.652 325.722 277.066 325.376C277.48 325.03 277.996 324.84 278.528 324.838C279.06 324.838 279.577 325.027 279.992 325.373C280.406 325.719 280.694 326.202 280.806 326.742L294.245 387H317L304.053 295H254.56Z" fill="#2F2E41"/>
<path d="M249 288.3V292.684C248.999 293.659 249.345 294.6 249.973 295.33C250.601 296.06 251.467 296.528 252.407 296.646C261.548 297.783 287.438 301.192 302.874 296.873C303.833 296.6 304.669 295.99 305.237 295.149C305.805 294.308 306.069 293.289 305.985 292.268L305.701 288.891L274.972 281L249 288.3Z" fill="#3F3D56"/>
<path d="M249 288.3V292.684C248.999 293.659 249.345 294.6 249.973 295.33C250.601 296.06 251.467 296.528 252.407 296.646C261.548 297.783 287.438 301.192 302.874 296.873C303.833 296.6 304.669 295.99 305.237 295.149C305.805 294.308 306.069 293.289 305.985 292.268L305.701 288.891L274.972 281L249 288.3Z" fill="#0071F2"/>
<path opacity="0.2" d="M249 288.3V292.684C248.999 293.659 249.345 294.6 249.973 295.33C250.601 296.06 251.467 296.528 252.407 296.646C261.548 297.783 287.438 301.192 302.874 296.873C303.833 296.6 304.669 295.99 305.237 295.149C305.805 294.308 306.069 293.289 305.985 292.268L305.701 288.891L274.972 281L249 288.3Z" fill="white"/>
<path d="M306.912 269.963L267.407 262.717L263.071 272.242L261.395 276.49L275.183 282.339C275.183 282.339 314.062 298.041 319.486 284.486C319.486 284.486 322.767 278.736 319.669 266.175C319.556 265.719 319.465 265.258 319.397 264.792C318.765 260.656 314.934 237.926 302.133 232.354C302.133 232.354 292.998 228.481 290.362 228H264.006C264.006 228 244.649 230.845 239.844 246.073C239.844 246.073 232.891 263.804 233.03 276.49C233.03 276.49 231.942 289.169 242.942 289.663C242.942 289.663 265.245 289.564 275.183 282.352L261.395 276.49L263.096 272.222C259.964 271.849 256.802 271.849 253.67 272.222C253.67 272.222 255.82 266.393 255.971 260.742" fill="#0071F2"/>
<path opacity="0.2" d="M306.912 269.963L267.407 262.717L263.071 272.242L261.395 276.49L275.183 282.339C275.183 282.339 314.062 298.041 319.486 284.486C319.486 284.486 322.767 278.736 319.669 266.175C319.556 265.719 319.465 265.258 319.397 264.792C318.765 260.656 314.934 237.926 302.133 232.354C302.133 232.354 292.998 228.481 290.362 228H264.006C264.006 228 244.649 230.845 239.844 246.073C239.844 246.073 232.891 263.804 233.03 276.49C233.03 276.49 231.942 289.169 242.942 289.663C242.942 289.663 265.245 289.564 275.183 282.352L261.395 276.49L263.096 272.222C259.964 271.849 256.802 271.849 253.67 272.222C253.67 272.222 255.82 266.393 255.971 260.742" fill="white"/>
<path opacity="0.2" d="M268.077 263C266.913 264.899 266.232 267.117 265.074 269.471C263.931 271.801 262.905 274.189 262 276.626C265.398 278.135 269 279.585 272.691 281.068C278.59 283.409 285.61 286.011 290.058 287.019C290.058 287.019 306.375 291.695 314.196 289.334C314.196 289.334 322.157 289.477 321.998 276.034L321.584 271.019L307.838 270.174L268.077 263Z" fill="black"/>
<path d="M267 223.692C267 223.692 277.252 220.011 287 223.507C285.948 225.358 284.809 227.254 283.555 229.191C281.471 232.429 279.361 235.363 277.309 238L267 223.692Z" fill="#0071F2"/>
<path opacity="0.2" d="M267 223.692C267 223.692 277.252 220.011 287 223.507C285.948 225.358 284.809 227.254 283.555 229.191C281.471 232.429 279.361 235.363 277.309 238L267 223.692Z" fill="white"/>
<path d="M188.628 288.039C188.628 288.039 192.946 290.298 204.207 289.967L204.271 265.408C204.271 265.408 204.618 240.392 209 228C209 228 200.293 233.769 192.843 228C192.843 228 186.857 240.015 187.165 256.871C187.075 258.937 187.017 261.05 187.005 263.202C186.944 271.512 187.487 279.814 188.628 288.039Z" fill="#CCCCCC"/>
<path d="M186.389 202.271C186.389 202.271 183.249 187.774 189.715 184.52C189.715 184.52 196.779 179.408 203.707 183.746C203.707 183.746 216.19 181.577 217.545 196.312C217.545 196.312 216.794 216.921 221 224.355H209.57L184 227C184 227 188.02 211.815 186.389 202.271Z" fill="#2F2E41"/>
<path opacity="0.2" d="M157.001 288C157.001 288 156.898 296.018 159.355 298C159.355 298 162.563 294.864 164 291.423C164 291.423 159.252 289.957 157.001 288Z" fill="#231F20"/>
<path d="M218.299 288.614C218.299 288.614 213.048 290.962 209.547 291.561C208.856 291.675 208.146 291.582 207.506 291.292C206.865 291.003 206.32 290.529 205.937 289.93L204.521 287.753C204.181 287.226 203.999 286.608 204 285.977V284.734C203.999 284.139 204.159 283.556 204.462 283.049C204.766 282.542 205.2 282.13 205.718 281.86C209.058 280.11 216.472 276.71 220.738 278.512C221.174 278.7 221.563 278.986 221.877 279.347C223.003 280.597 225.97 283.918 226.44 284.852C226.44 284.852 230.983 284.195 233.3 281.998C233.3 281.998 236.337 289.134 237 290.463C237 290.463 228.415 297.763 223.068 293.843C223.068 293.876 219.696 291.351 218.299 288.614Z" fill="#F9B499"/>
<path opacity="0.2" d="M177 276C177 276 178.415 264.774 177.59 258C177.59 258 179.837 269.103 178.658 276H177Z" fill="#231F20"/>
<path d="M174.297 302.991C173.52 302.991 172.746 302.877 172 302.652L172.12 302.276C172.312 302.343 176.835 303.861 178.628 300L179 300.142C178.581 301.044 177.909 301.797 177.071 302.304C176.234 302.812 175.268 303.051 174.297 302.991Z" fill="#3F3D56"/>
<g opacity="0.2">
<path d="M229 308C218.553 306.819 218.006 300.302 218 300.236L218.449 300C218.449 300.066 218.823 306.432 228.926 307.573L229 308Z" fill="#231F20"/>
</g>
<path d="M270.278 241L265 228.23L267.642 224L276 235.661L270.278 241Z" fill="#0071F2"/>
<path d="M280 236.142L285.423 241L291 228.369L287.477 224L280 236.142Z" fill="#0071F2"/>
<path d="M271.325 216L270 227.32L277.616 238L279.644 235.463L285 227L283.33 216H271.325Z" fill="#F9B499"/>
<path d="M256.077 264.008C256.077 264.008 265.021 263.835 267 265.102L263.677 272C263.677 272 255.727 271.405 254 272C253.968 272.019 255.779 266.651 256.077 264.008Z" fill="#F9B499"/>
<path d="M295 267.751C295 267.751 299.05 260.613 305.911 260.02C306.85 259.948 307.794 260.073 308.685 260.388C309.577 260.704 310.398 261.203 311.1 261.856C311.375 262.112 311.597 262.423 311.752 262.771C311.906 263.12 311.991 263.497 311.999 263.881C312.008 264.264 311.941 264.646 311.802 265.001C311.664 265.357 311.456 265.679 311.193 265.947L307.242 270L295 267.751Z" fill="#F9B499"/>
<path d="M357.575 211C357.575 211 357.575 211.172 357.538 211.468C357.335 213.909 356.303 225.163 354 226.463L354.852 232.631C354.852 232.631 365.572 235.711 370 232.631V224.715C370 224.715 368.895 224.8 368.895 223.897L369.068 220.255L357.575 211Z" fill="#F9B499"/>
<path d="M333.476 266.092L335.914 308.132C335.914 308.132 355.419 315.995 358.729 314.894C358.729 314.894 359.771 258.6 357.769 244.339L349.671 228.03C346.45 227.499 333.836 234.262 330.362 236.171C329.765 236.501 329.26 236.987 328.896 237.583C322.485 248.373 317.791 260.188 315 272.563C315 272.563 318.158 297.352 325.447 308.132C325.447 308.132 336.072 305.022 337.809 301.369C337.809 301.369 331.543 279.617 329.799 276.328C329.818 276.328 330.343 275.778 333.476 266.092Z" fill="#0071F2"/>
<path d="M372.221 314.998L371 245.736L373.676 225C373.676 225 394.895 234.266 396.812 247.748L399.254 259.33L401 257.596L397.166 290.477C397.166 290.477 392.282 291.536 391.232 285.52L391.934 311.61C391.934 311.61 384.95 315.084 372.221 314.998Z" fill="#0071F2"/>
<path opacity="0.2" d="M390 264L390.702 284.985C390.702 284.985 391.525 290.841 396.687 289.897L397 287.274C397 287.274 390.823 287.385 390 264Z" fill="black"/>
<path d="M328 307.703C328 307.703 329.149 314.85 333.561 317C333.561 317 340.427 313.544 343.373 310.913C343.373 310.913 345.969 313.661 347.039 313.661C347.395 313.663 347.744 313.568 348.049 313.386C348.354 313.204 348.604 312.942 348.771 312.629C348.938 312.315 349.016 311.961 348.997 311.606C348.978 311.251 348.862 310.908 348.662 310.614C347.429 308.905 345.904 307.427 344.158 306.248C342.349 305.1 340.245 304.506 338.104 304.539C337.425 304.6 336.748 304.408 336.202 304C336.202 304 330.7 307.658 328 307.703Z" fill="#F9B499"/>
<path d="M421 265.123L400.506 263L386 387H407.376L421 265.123Z" fill="#2F2E41"/>
<path opacity="0.2" d="M393.403 383.879L406.293 264L413 264.567L400.375 387H393L393.403 383.879Z" fill="white"/>
<path d="M400.639 256L400 263.785L420.279 266L421 258.747L400.639 256Z" fill="#2F2E41"/>
<path opacity="0.2" d="M400.639 256L400 263.785L420.279 266L421 258.747L400.639 256Z" fill="black"/>
<path d="M401.629 248.158L401 255.412L421.241 258L421.964 250.099C422.062 249.072 421.961 248.034 421.669 247.047C421.376 246.06 420.897 245.141 420.258 244.345C419.62 243.549 418.835 242.891 417.948 242.408C417.062 241.925 416.092 241.627 415.093 241.532L409.92 241.033C408.92 240.938 407.913 241.047 406.955 241.354C405.996 241.661 405.106 242.16 404.336 242.822C403.566 243.484 402.93 244.296 402.465 245.212C402.001 246.127 401.716 247.129 401.629 248.158Z" fill="#2F2E41"/>
<path d="M412.721 242.291C412.721 242.291 408.114 250.047 419.411 252.779C419.411 252.779 424.852 254.645 424.994 247.535C424.994 247.535 425.551 239.28 415.51 238.127C415.51 238.127 406.575 236.967 406.018 241.658C405.977 241.996 406.006 242.339 406.103 242.665C406.2 242.99 406.363 243.291 406.582 243.546C406.8 243.802 407.069 244.007 407.37 244.148C407.671 244.289 407.997 244.362 408.328 244.364C409.37 244.35 410.812 243.877 412.721 242.291Z" fill="#F9B499"/>
<path d="M359.415 299.802C359.415 299.802 359.669 254.52 358.143 243.991C358.143 243.991 355.724 236.965 355 232C355 232 366.77 234.983 370.996 232V245.262L372 300L359.415 299.802Z" fill="#CCCCCC"/>
<path d="M124.17 241.014L157.544 245.021C158.155 245.099 158.73 245.361 159.2 245.777C159.67 246.192 160.014 246.742 160.189 247.358L171 286L161.767 284.917L131.239 279.444L122.069 243.569C121.985 243.248 121.978 242.91 122.048 242.586C122.118 242.261 122.263 241.959 122.47 241.707C122.678 241.455 122.941 241.26 123.238 241.139C123.534 241.018 123.854 240.975 124.17 241.014Z" fill="#2F2E41"/>
<path d="M156 245.035H160.378C160.873 245.033 161.356 245.198 161.753 245.505C162.151 245.812 162.442 246.243 162.583 246.736L173.239 283.333L198.353 279.529C198.557 279.498 198.765 279.513 198.963 279.573C199.161 279.632 199.344 279.735 199.501 279.875C199.657 280.015 199.782 280.187 199.868 280.382C199.955 280.576 199.999 280.787 200 281.001C199.999 281.365 199.87 281.717 199.637 281.989C199.403 282.261 199.082 282.436 198.733 282.479L171.129 286L160.251 247.551C160.251 247.551 159.668 244.654 156 245.035Z" fill="#2F2E41"/>
<path opacity="0.2" d="M156 245.035H160.378C160.873 245.033 161.356 245.198 161.753 245.505C162.151 245.812 162.442 246.243 162.583 246.736L173.239 283.333L198.353 279.529C198.557 279.498 198.765 279.513 198.963 279.573C199.161 279.632 199.344 279.735 199.501 279.875C199.657 280.015 199.782 280.187 199.868 280.382C199.955 280.576 199.999 280.787 200 281.001C199.999 281.365 199.87 281.717 199.637 281.989C199.403 282.261 199.082 282.436 198.733 282.479L171.129 286L160.251 247.551C160.251 247.551 159.668 244.654 156 245.035Z" fill="#231F20"/>
<path d="M171 276L197 280.218L173.21 284L171 276Z" fill="#2F2E41"/>
<path d="M193 228.068C193 228.068 194.768 224.77 194.742 219.252L204.933 213.512L207.891 209L210 224.77L209.19 228.068C209.19 228.068 199.391 234.665 193 228.068Z" fill="#F9B499"/>
<path d="M145.7 276.143C144.901 275.938 144.062 275.954 143.271 276.19C142.481 276.426 141.768 276.873 141.209 277.485C140.651 278.096 140.266 278.848 140.097 279.661C139.928 280.475 139.98 281.319 140.249 282.105C141.079 284.7 143.467 287.516 149.903 287.516C149.903 287.516 154.518 287.412 156.88 287.516C156.88 287.516 161.166 290.449 163.902 291C164.75 289.192 165.452 287.317 166 285.395C166 285.395 155.953 285.55 152.928 281.204C152.909 281.204 149.478 277.142 145.7 276.143Z" fill="#F9B499"/>
<path d="M256 259L256.39 264.817C256.39 264.817 265.226 264.707 267.341 266L269 262.5L256 259Z" fill="#0071F2"/>
<path opacity="0.2" d="M256 259L256.39 264.817C256.39 264.817 265.226 264.707 267.341 266L269 262.5L256 259Z" fill="white"/>
<path opacity="0.2" d="M334 270.927L339 260L334.413 278L334 270.927Z" fill="black"/>
<path opacity="0.2" d="M343.228 305.242C343.228 305.242 346.813 307.459 348.175 310.006C348.175 310.006 348.859 311.486 348.264 312.138L351 313V312.342C350.506 309.529 349.228 306.928 347.324 304.863C345.419 302.799 342.973 301.36 340.289 300.727L335 286L335.253 290.284L338.192 301.03C337.691 301.984 336.934 302.766 336.013 303.281C336.574 303.631 337.215 303.82 337.869 303.827C339.731 303.88 341.56 304.354 343.228 305.215" fill="black"/>
<path d="M347 235.276L352.557 236.523L351.707 240.452L358 244C356.123 237.848 355.135 231.447 355.067 225C355.067 225 347.73 225.653 347 235.276Z" fill="#0071F2"/>
<path opacity="0.2" d="M347 235.276L352.557 236.523L351.707 240.452L358 244C356.123 237.848 355.135 231.447 355.067 225C355.067 225 347.73 225.653 347 235.276Z" fill="white"/>
<path d="M371 245V224.092C371 224.092 375.481 222.295 381 234.549L376.096 235.982C375.975 236.017 375.862 236.078 375.766 236.161C375.669 236.243 375.591 236.346 375.537 236.462C375.483 236.578 375.455 236.705 375.453 236.833C375.451 236.961 375.476 237.088 375.526 237.206L376.883 240.338L371 245Z" fill="#0071F2"/>
<path opacity="0.2" d="M371 245V224.092C371 224.092 375.481 222.295 381 234.549L376.096 235.982C375.975 236.017 375.862 236.078 375.766 236.161C375.669 236.243 375.591 236.346 375.537 236.462C375.483 236.578 375.455 236.705 375.453 236.833C375.451 236.961 375.476 237.088 375.526 237.206L376.883 240.338L371 245Z" fill="white"/>
<path d="M84 164H473" stroke="#CCCCCC" stroke-width="1.97" stroke-miterlimit="10"/>
<path d="M468.862 137H88.1377C85.8525 137 84 138.932 84 141.315V383.685C84 386.068 85.8525 388 88.1377 388H468.862C471.147 388 473 386.068 473 383.685V141.315C473 138.932 471.147 137 468.862 137Z" stroke="#CCCCCC" stroke-width="1.97" stroke-miterlimit="10"/>
<path d="M110 150.5C110 151.192 109.795 151.869 109.41 152.444C109.026 153.02 108.479 153.469 107.839 153.734C107.2 153.998 106.496 154.068 105.817 153.933C105.138 153.798 104.515 153.464 104.025 152.975C103.536 152.485 103.202 151.862 103.067 151.183C102.932 150.504 103.002 149.8 103.266 149.161C103.531 148.521 103.98 147.974 104.556 147.59C105.131 147.205 105.808 147 106.5 147C107.428 147 108.318 147.369 108.975 148.025C109.631 148.682 110 149.572 110 150.5Z" fill="#2F2E41"/>
<path opacity="0.2" d="M110 150.5C110 151.192 109.795 151.869 109.41 152.444C109.026 153.02 108.479 153.469 107.839 153.734C107.2 153.998 106.496 154.068 105.817 153.933C105.138 153.798 104.515 153.464 104.025 152.975C103.536 152.485 103.202 151.862 103.067 151.183C102.932 150.504 103.002 149.8 103.266 149.161C103.531 148.521 103.98 147.974 104.556 147.59C105.131 147.205 105.808 147 106.5 147C107.428 147 108.318 147.369 108.975 148.025C109.631 148.682 110 149.572 110 150.5Z" fill="white"/>
<path d="M124 150.5C124 151.192 123.795 151.869 123.41 152.444C123.026 153.02 122.479 153.469 121.839 153.734C121.2 153.998 120.496 154.068 119.817 153.933C119.138 153.798 118.515 153.464 118.025 152.975C117.536 152.485 117.202 151.862 117.067 151.183C116.932 150.504 117.002 149.8 117.266 149.161C117.531 148.521 117.98 147.974 118.556 147.59C119.131 147.205 119.808 147 120.5 147C121.428 147 122.318 147.369 122.975 148.025C123.631 148.682 124 149.572 124 150.5Z" fill="#CCCCCC"/>
<path d="M137 150.5C137 151.192 136.795 151.869 136.41 152.444C136.026 153.02 135.479 153.469 134.839 153.734C134.2 153.998 133.496 154.068 132.817 153.933C132.138 153.798 131.515 153.464 131.025 152.975C130.536 152.485 130.202 151.862 130.067 151.183C129.932 150.504 130.002 149.8 130.266 149.161C130.531 148.521 130.98 147.974 131.556 147.59C132.131 147.205 132.808 147 133.5 147C134.428 147 135.318 147.369 135.975 148.025C136.631 148.682 137 149.572 137 150.5Z" fill="#2F2E41"/>
<path d="M525.19 155H431.81C429.706 155 428 156.777 428 158.968V249.032C428 251.223 429.706 253 431.81 253H525.19C527.294 253 529 251.223 529 249.032V158.968C529 156.777 527.294 155 525.19 155Z" fill="#EDEDED"/>
<path d="M525.19 155H431.81C429.706 155 428 156.777 428 158.968V249.032C428 251.223 429.706 253 431.81 253H525.19C527.294 253 529 251.223 529 249.032V158.968C529 156.777 527.294 155 525.19 155Z" stroke="#CCCCCC" stroke-width="1.97" stroke-miterlimit="10"/>
<path d="M453.827 228H503.173C505.287 228 507 226.23 507 224.047V181.953C507 179.77 505.287 178 503.173 178H453.827C451.713 178 450 179.77 450 181.953V224.047C450 226.23 451.713 228 453.827 228Z" fill="#CCCCCC"/>
<path d="M491 211H468.977H465V193H491V197.497V211Z" stroke="white" stroke-width="1.65" stroke-linecap="round" stroke-linejoin="round"/>
<path d="M465 193L478 204L491 193" stroke="white" stroke-width="1.65" stroke-linecap="round" stroke-linejoin="round"/>
<path d="M106.38 237H17.6204C15.6209 237 14 238.7 14 240.798V322.202C14 324.3 15.6209 326 17.6204 326H106.38C108.379 326 110 324.3 110 322.202V240.798C110 238.7 108.379 237 106.38 237Z" fill="#EDEDED"/>
<path d="M106.38 237H17.6204C15.6209 237 14 238.7 14 240.798V322.202C14 324.3 15.6209 326 17.6204 326H106.38C108.379 326 110 324.3 110 322.202V240.798C110 238.7 108.379 237 106.38 237Z" stroke="#CCCCCC" stroke-width="1.97" stroke-miterlimit="10"/>
<path d="M85.7528 252H38.2472C35.9015 252 34 253.956 34 256.369V303.631C34 306.044 35.9015 308 38.2472 308H85.7528C88.0985 308 90 306.044 90 303.631V256.369C90 253.956 88.0985 252 85.7528 252Z" fill="#CCCCCC"/>
<path d="M51.5448 269.804C49.3757 272.113 47.8981 275.055 47.2989 278.259C46.6997 281.463 47.0058 284.784 48.1785 287.802C49.3513 290.821 51.3379 293.401 53.8872 295.216C56.4365 297.031 59.4338 298 62.5 298C65.5662 298 68.5635 297.031 71.1128 295.216C73.6621 293.401 75.6487 290.821 76.8215 287.802C77.9942 284.784 78.3003 281.463 77.7011 278.259C77.1019 275.055 75.6243 272.113 73.4552 269.804C70.5407 266.727 66.6034 265 62.5 265C58.3966 265 54.4593 266.727 51.5448 269.804ZM73.4552 272.178H68.5222C68.0029 270.476 67.3604 268.819 66.6004 267.223C69.2922 268.103 71.671 269.831 73.4239 272.178H73.4552ZM56.8158 280.529C56.8154 278.373 57.0614 276.225 57.5483 274.133H67.458C67.9575 276.223 68.2161 278.371 68.228 280.529H56.8158ZM68.1341 282.463C67.9867 284.63 67.6301 286.776 67.0699 288.865H57.9427C57.3774 286.777 57.0187 284.631 56.8722 282.463H68.1341ZM62.5 266.603C63.2316 266.602 63.9621 266.662 64.6848 266.783C65.5996 268.505 66.3524 270.319 66.9321 272.198H58.0679C58.6476 270.319 59.4004 268.505 60.3152 266.783C61.0395 266.655 61.7721 266.588 62.5063 266.583L62.5 266.603ZM58.4372 267.27C57.6719 268.863 57.0292 270.521 56.5154 272.225H51.5824C53.3398 269.854 55.7329 268.11 58.4435 267.223L58.4372 267.27ZM50.3492 274.113H55.9832C55.5016 276.214 55.2433 278.366 55.2133 280.529H48.5525C48.683 278.272 49.2977 276.077 50.3492 274.113ZM50.3492 288.845C49.3013 286.884 48.6869 284.695 48.5525 282.443H55.2446C55.3459 284.606 55.6606 286.752 56.1836 288.845H50.3492ZM51.6012 290.773H56.7407C57.2603 292.488 57.8878 294.163 58.6187 295.788C55.8429 294.932 53.3846 293.18 51.5824 290.773H51.6012ZM62.525 296.369C61.9117 296.37 61.2989 296.328 60.6908 296.242C59.8554 294.472 59.1318 292.645 58.5248 290.773H66.519C65.9148 292.646 65.1911 294.474 64.353 296.242C63.7409 296.329 63.1238 296.371 62.5063 296.369H62.525ZM66.3938 295.788C67.1401 294.166 67.7801 292.49 68.3094 290.773H73.4426C71.6268 293.191 69.147 294.945 66.35 295.788H66.3938ZM74.6759 288.845H68.854C69.3759 286.752 69.6927 284.606 69.7993 282.443H76.4851C76.3411 284.697 75.7159 286.887 74.6571 288.845H74.6759ZM76.4725 280.509H69.793C69.7555 278.352 69.491 276.206 69.0042 274.113H74.6383C75.6964 276.075 76.3175 278.27 76.4538 280.529L76.4725 280.509Z" fill="white"/>
<path d="M116.039 114H36.9608C36.5723 114.001 36.1874 113.924 35.8283 113.774C35.4691 113.624 35.1426 113.403 34.8676 113.125C34.5926 112.846 34.3744 112.516 34.2255 112.152C34.0766 111.788 34 111.397 34 111.003C33.9992 110.609 34.0752 110.218 34.2237 109.853C34.3722 109.488 34.5902 109.157 34.8653 108.878C35.1405 108.599 35.4672 108.378 35.8268 108.227C36.1864 108.076 36.5718 107.999 36.9608 108H116.039C116.824 108 117.578 108.316 118.133 108.88C118.688 109.443 119 110.207 119 111.003C118.998 111.799 118.686 112.561 118.131 113.123C117.575 113.684 116.823 114 116.039 114Z" fill="#CCCCCC"/>
<path d="M527.059 315H488.935C488.156 315 487.41 314.684 486.86 314.122C486.309 313.56 486 312.798 486 312.003C485.999 311.609 486.074 311.219 486.222 310.854C486.369 310.49 486.585 310.159 486.857 309.88C487.13 309.601 487.454 309.38 487.81 309.229C488.167 309.078 488.549 309 488.935 309H527.059C527.839 309 528.587 309.316 529.139 309.88C529.69 310.443 530 311.207 530 312.003C529.998 312.799 529.688 313.561 529.136 314.123C528.585 314.684 527.838 315 527.059 315Z" fill="#CCCCCC"/>
<path d="M501.214 341H495.786C494.8 341 494 341.826 494 342.845V348.155C494 349.174 494.8 350 495.786 350H501.214C502.2 350 503 349.174 503 348.155V342.845C503 341.826 502.2 341 501.214 341Z" fill="#2F2E41"/>
<path d="M56.2137 363H50.7863C49.7997 363 49 363.826 49 364.845V370.155C49 371.174 49.7997 372 50.7863 372H56.2137C57.2003 372 58 371.174 58 370.155V364.845C58 363.826 57.2003 363 56.2137 363Z" fill="#2F2E41"/>
<path d="M346 95H402" stroke="white" stroke-width="1.18" stroke-miterlimit="10"/>
<path d="M346 101H369" stroke="white" stroke-width="1.18" stroke-miterlimit="10"/>
<path d="M183.065 63H223.935C225.013 63 226.047 63.4526 226.809 64.2583C227.572 65.064 228 66.1567 228 67.2961V107.704C228 108.268 227.895 108.827 227.691 109.348C227.486 109.869 227.187 110.343 226.809 110.742C226.432 111.141 225.984 111.457 225.49 111.673C224.997 111.889 224.468 112 223.935 112H184.362C182.94 112 181.576 111.403 180.57 110.34C179.565 109.278 179 107.837 179 106.334V67.2961C179 66.1567 179.428 65.064 180.191 64.2583C180.953 63.4526 181.987 63 183.065 63Z" fill="#CCCCCC"/>
<path d="M215.228 91.1624L212.402 88.2293C212.176 87.9583 211.897 87.7396 211.584 87.5871C211.271 87.4346 210.93 87.3519 210.584 87.3441C209.896 87.363 209.243 87.662 208.766 88.1765L207.152 89.8412L206.846 89.6826C206.674 89.604 206.506 89.5157 206.342 89.4184C204.746 88.3424 203.331 87.0035 202.151 85.4548C201.624 84.8023 201.182 84.0804 200.837 83.3078C201.246 82.9445 201.596 82.5217 201.947 82.1584L202.407 81.6894C202.675 81.4494 202.891 81.1523 203.038 80.8183C203.186 80.4842 203.262 80.1212 203.262 79.7538C203.262 79.3865 203.186 79.0234 203.038 78.6894C202.891 78.3554 202.675 78.0583 202.407 77.8183L200.99 76.3517C200.827 76.1899 200.675 76.0154 200.537 75.8299L199.574 74.839C199.339 74.5822 199.058 74.3759 198.746 74.2319C198.434 74.0879 198.098 74.0091 197.756 74C197.414 74.0039 197.076 74.0803 196.763 74.2246C196.451 74.3689 196.17 74.578 195.938 74.839L194.171 76.6688C193.51 77.3584 193.099 78.2642 193.01 79.2319C192.949 80.5851 193.166 81.9363 193.648 83.1955C194.537 85.7143 195.874 88.038 197.59 90.046C199.807 92.791 202.559 95.0197 205.666 96.5859C207.09 97.3322 208.629 97.8108 210.214 97.9996H210.565C211.135 98.008 211.699 97.891 212.222 97.6564C212.744 97.4218 213.212 97.0749 213.595 96.6387L213.646 96.5859C213.924 96.245 214.229 95.929 214.559 95.6412L215.196 94.9806C215.447 94.7362 215.648 94.4416 215.786 94.1147C215.924 93.7878 215.997 93.4354 216 93.0786C216.003 92.7218 215.936 92.368 215.803 92.0387C215.671 91.7094 215.475 91.4113 215.228 91.1624ZM214.067 93.8774L213.461 94.538C213.11 94.8551 212.823 95.1986 212.453 95.5884C212.221 95.844 211.939 96.0457 211.625 96.1801C211.312 96.3145 210.974 96.3785 210.635 96.3679H210.387C209.006 96.219 207.667 95.7926 206.444 95.1128C203.548 93.6436 200.984 91.5594 198.917 88.9956C197.363 87.1097 196.12 84.9715 195.237 82.6671C194.764 81.6593 194.555 80.541 194.631 79.4235C194.645 79.1358 194.714 78.8539 194.835 78.5942C194.955 78.3345 195.124 78.1022 195.332 77.9108L197.055 76.1337C197.233 75.9199 197.485 75.7871 197.756 75.7638C197.893 75.769 198.027 75.8048 198.149 75.8686C198.272 75.9325 198.379 76.0229 198.464 76.1337L199.376 77.0718C199.528 77.2619 199.697 77.4366 199.88 77.5937L201.297 79.0602C201.489 79.2572 201.613 79.5153 201.647 79.7935C201.623 80.0747 201.498 80.3363 201.297 80.5267L200.837 80.9957L199.561 82.3169L199.51 82.3698C199.331 82.5279 199.205 82.7415 199.151 82.9793C199.097 83.2171 199.118 83.4665 199.211 83.691V83.7372C199.635 84.7559 200.195 85.7077 200.876 86.5646C202.163 88.2675 203.718 89.7346 205.475 90.9047C205.675 91.0488 205.888 91.1705 206.113 91.2681C206.285 91.3467 206.453 91.4349 206.617 91.5323L206.668 91.5852C206.897 91.7131 207.161 91.7567 207.417 91.7087C207.673 91.6606 207.906 91.5239 208.077 91.3209L209.844 89.4911C210.028 89.2826 210.281 89.1529 210.553 89.1277C210.8 89.168 211.025 89.2966 211.19 89.4911L214.016 92.4241C214.117 92.512 214.199 92.6207 214.256 92.7433C214.314 92.8658 214.346 92.9995 214.351 93.1358C214.356 93.272 214.333 93.4078 214.284 93.5344C214.235 93.661 214.161 93.7756 214.067 93.8708V93.8774Z" fill="white"/>
<path d="M195.075 219.409L195 221.865C196.498 222.165 198.036 221.963 199.446 221.282C200.856 220.6 202.085 219.465 203 218L195.075 219.409Z" fill="#F4A48E"/>
<path d="M212.902 205.684C212.432 208.326 210.461 210.123 208.52 209.707C207.902 209.571 207.338 209.234 206.905 208.742C205.785 215.219 201.822 220 197.109 220C191.526 220 187 213.295 187 205C187 196.705 191.526 190 197.109 190C201.891 190 205.872 194.915 206.949 201.527C207.326 201.004 207.827 200.601 208.4 200.358C208.972 200.115 209.596 200.041 210.204 200.145C212.144 200.568 213.365 203.042 212.902 205.684Z" fill="#F9B499"/>
<path d="M187.409 203.112C187.409 203.112 188.111 196.483 192.096 195.035C192.096 195.035 199.078 192.412 199.569 189.993C199.569 189.993 206.978 196.359 206.978 201.663C206.978 201.663 210.013 197.27 212.946 200.915C212.946 200.915 215.783 205.813 211.205 208.783C211.205 208.783 209.095 209.911 207.685 208.075C207.685 208.075 208.827 221.994 209.777 224L216 199.952L213.915 193.081L203.93 186H192.332C192.332 186 185.994 194.621 186 195.074C186.006 195.526 187.409 203.112 187.409 203.112Z" fill="#2F2E41"/>
<path d="M271 219.476L271.431 216C271.431 216 276.248 218.793 280 219.049C279.969 219.067 278.485 220.86 271 219.476Z" fill="#F4A48E"/>
<path d="M277.5 220C283.851 220 289 213.06 289 204.5C289 195.94 283.851 189 277.5 189C271.149 189 266 195.94 266 204.5C266 213.06 271.149 220 277.5 220Z" fill="#F9B499"/>
<path d="M290 209C291.657 209 293 206.985 293 204.5C293 202.015 291.657 200 290 200C288.343 200 287 202.015 287 204.5C287 206.985 288.343 209 290 209Z" fill="#F9B499"/>
<path d="M264 209C265.657 209 267 206.985 267 204.5C267 202.015 265.657 200 264 200C262.343 200 261 202.015 261 204.5C261 206.985 262.343 209 264 209Z" fill="#F9B499"/>
<path d="M266.287 202C266.287 202 258.891 194.706 266.287 189.084C266.287 189.084 268.265 178.797 280.841 181.432C280.841 181.432 293.053 181.497 290.699 199.579C289.871 200.464 288.972 201.274 288.011 202C288.011 202 287.076 196.02 282.461 196.261C282.461 196.261 272.415 196.736 270.456 192.194C268.319 195.064 266.888 198.429 266.287 202Z" fill="#2F2E41"/>
<path d="M368.938 222.999L369 221.647C369 221.647 361.047 221.931 359 217C359 217 360.294 223.083 368.938 222.999Z" fill="#F4A48E"/>
<path d="M379 208.487C379 216.503 374.101 223 368.027 223C362.928 223 358.635 218.355 357.415 212.137C356.901 212.585 356.25 212.834 355.576 212.84C353.601 212.84 352 210.657 352 207.956C352 205.255 353.601 203.078 355.576 203.078C356.34 203.092 357.069 203.406 357.616 203.954C359.055 198.161 363.173 194 368.027 194C374.101 193.98 379 200.477 379 208.487Z" fill="#F9B499"/>
<path d="M358.87 203.559L359.823 197.14C359.823 197.14 365.222 198.166 368.305 196.285C368.305 196.285 375.589 201.698 381.381 196.285C381.381 196.285 385.024 192.562 381.381 187.492C381.381 187.492 380.055 183.256 372.443 185.966C372.443 185.966 364.334 178.186 357.545 187.827C357.545 187.827 349.282 187.347 351.251 195.101C351.251 195.101 345.781 199.797 351.895 204.381C351.895 204.381 347.39 214.351 357.004 212.845L356.631 211.319C356.631 211.319 353.555 213.516 351.721 209.609C351.721 209.609 350.035 205.42 352.931 203.065C353.332 202.688 353.834 202.442 354.372 202.357C354.911 202.273 355.462 202.355 355.955 202.592C356.792 203.027 357.684 203.34 358.607 203.519L358.87 203.559Z" fill="#2F2E41"/>
</svg>
