<svg width="930" height="524" viewBox="0 0 930 524" fill="none" xmlns="http://www.w3.org/2000/svg">
<path d="M718.867 502C712.275 511.026 704.628 518.077 706.21 521.179C706.21 521.179 709.638 524 719.395 524C736.007 524 752.356 522.59 749.719 520.897C746.027 518.359 735.216 517.513 724.932 513.564C722.295 512.718 730.47 507.359 728.36 506.513C723.614 504.538 720.186 503.128 718.867 502Z" fill="#252438"/>
<path d="M891.84 520.647C891.84 520.647 893.963 524 902.457 524C917.056 524 931.92 522.044 929.796 520.368C926.611 518.132 901.13 512.544 901.13 512.544L895.556 505L886 510.588L891.84 520.647Z" fill="#252438"/>
<path d="M846.253 294C835.925 294 827.98 291.733 827.45 291.733C822.154 290.033 818.976 284.083 820.3 278.416C821.889 272.75 827.45 269.35 832.747 270.766C833.012 270.766 855.787 277 869.293 264.816C878.297 256.599 881.475 241.299 879.356 218.915L878.562 211.832L898.953 199.365C903.72 196.532 910.076 198.232 912.724 203.332C915.372 208.432 913.784 215.232 909.017 218.065L900.013 223.449C901.337 249.516 895.511 268.783 882.269 280.966C871.147 291.45 857.111 294 846.253 294Z" fill="#F9B499"/>
<path d="M880.952 234C880.686 249.855 876.688 261.18 869.226 267.976C854.567 281.283 829.515 274.488 828.982 274.488C823.119 272.789 816.989 276.469 815.39 282.981C813.791 289.21 817.256 295.722 823.119 297.704C823.918 297.987 832.447 302.517 843.907 301.951C887.349 300.252 913.467 260.614 914 237.398L880.952 234Z" fill="#BFBFBF"/>
<path d="M820.664 179.399L820.667 179.401C825.328 181.678 830.051 183.597 834.761 185.44C835.843 185.864 836.924 186.283 838.004 186.702C841.362 188.004 844.704 189.301 848.016 190.698C845.348 192.748 842.615 194.848 839.836 196.984C821.629 210.978 801.47 226.472 784.946 238.993C775.316 246.291 766.924 252.576 760.874 256.966C757.848 259.162 755.413 260.879 753.704 262.011C752.848 262.579 752.184 262.992 751.723 263.245C751.574 263.326 751.454 263.387 751.36 263.429C751.128 263.081 750.714 262.424 750.143 261.498C749.393 260.284 748.395 258.64 747.232 256.714C744.908 252.863 741.933 247.886 739 242.962C736.066 238.038 733.174 233.167 731.015 229.527C729.935 227.707 729.039 226.194 728.413 225.137L727.687 223.911L727.656 223.858C727.748 223.793 727.858 223.717 727.988 223.63C728.384 223.362 728.942 222.998 729.65 222.543C731.066 221.634 733.073 220.372 735.565 218.821C740.548 215.717 747.468 211.458 755.474 206.551C769.779 197.784 787.551 186.952 803.944 176.962C805.816 175.821 807.67 174.69 809.499 173.576C813.128 175.514 816.768 177.457 820.664 179.399Z" fill="#004FAA" stroke="#013DBD"/>
<path d="M812.005 171.94C822.977 165.172 832.897 159.104 840.123 154.699C843.818 152.447 846.808 150.629 848.875 149.374C849.908 148.747 850.711 148.26 851.255 147.93L851.874 147.555L851.895 147.542L888.923 158.553L888.91 158.563C888.395 158.961 887.635 159.55 886.653 160.311C884.69 161.832 881.84 164.04 878.294 166.789C871.252 172.25 861.463 179.844 850.423 188.427C846.947 186.986 843.456 185.662 839.976 184.342C833.929 182.048 827.918 179.768 822.09 176.916C821.011 176.383 819.91 175.852 818.794 175.313C816.575 174.243 814.296 173.143 812.005 171.94Z" fill="#65A9F8" stroke="#013DBD"/>
<path d="M779.085 191.697L756.535 127.24L766.993 102.18L821.951 208.064L779.085 191.697Z" fill="#004FAA" stroke="#013DBD"/>
<path d="M863.845 297.931L821.191 278.691L792.833 225.5H824.236L863.845 297.931Z" fill="#004FAA" stroke="#013DBD"/>
<path d="M721.293 45.368L770.552 14.703L860.059 176.989L860.314 177.452L860.762 177.172L890.59 158.521L915.333 203.135L885.46 221.814L885.059 222.065L885.288 222.48L911.084 269.25L865.992 297.259L840.221 250.534L839.966 250.072L839.518 250.351L728.96 319.296L707.508 280.328L721.293 45.368ZM765.597 115.194L765.35 114.746L764.908 115.002L761.987 116.698L761.755 116.832L761.739 117.1L754.037 242.834L753.978 243.804L754.802 243.288L814.819 205.709L815.22 205.458L814.992 205.044L765.597 115.194Z" fill="#2768D1" stroke="#013DBD"/>
<path d="M690.102 310.181L670.955 271.795L706.772 282.098L727.991 320.216L690.102 310.181Z" fill="#004FAA" stroke="#013DBD"/>
<path d="M687.278 37.6329L720.477 46.1367L706.653 280.346L670.528 269.901L687.278 37.6329Z" fill="#65A9F8" stroke="#013DBD"/>
<path d="M769.814 14.9361L721.05 45.4622L688.206 36.9971L736.679 4.54877L769.814 14.9361Z" fill="#65A9F8" stroke="#013DBD"/>
<path d="M760.735 364C760.735 364 766.039 426.243 766.039 448.028C766.039 448.028 723.608 483.393 713 501.783C717.508 505.461 726.26 510.271 732.094 509.988C760.47 481.13 791.497 460.477 791.497 460.477C791.497 460.477 805.022 418.887 809 383.805L760.735 364Z" fill="#252438"/>
<path d="M791.697 367C801.214 367 810.996 365.311 819.191 360.524C816.547 348.134 822.363 311.529 829.765 292.1C829.765 292.1 835.581 278.584 831.616 274.361C816.547 258.874 803.594 260.282 799.628 260C785.881 272.389 759.974 309.276 761.031 357.708C768.169 365.592 782.445 367 791.697 367Z" fill="#BFBFBF"/>
<path d="M884.676 511.87C890.246 510.174 895.552 507.631 899 502.545C882.553 474.288 822.338 370.02 819.155 361.826C819.155 361.543 818.889 361.261 818.889 361.261C810.136 366.347 799.525 368.042 789.179 367.76C780.16 367.477 767.427 366.064 760 359C760 359.565 760 360.13 760 360.413C761.326 387.539 845.947 478.244 879.37 513C881.492 513 883.084 512.435 884.676 511.87Z" fill="#2F2E41"/>
<path d="M710.583 339C708.194 339 706.071 338.718 703.682 337.872C699.17 336.179 693.331 332.231 690.411 322.359C688.819 316.718 692.004 310.513 697.312 308.82C702.621 307.128 708.46 310.513 710.052 316.154C710.318 316.718 710.318 317.282 710.583 317.564C711.645 317.564 715.626 317.282 725.447 311.077C734.206 305.718 744.557 297.538 754.643 289.641C771.63 276.384 787.555 263.692 800.826 259.461C806.134 257.769 811.973 260.871 813.566 266.513C815.159 272.154 812.239 278.359 806.931 280.051C796.845 283.436 781.716 295.564 766.852 307.128C745.088 324.051 725.978 339 710.583 339Z" fill="#F9B499"/>
<path d="M729.734 331.004C728.406 324.435 727.077 317.581 723.358 312.155C715.121 317.01 711.667 317.296 710.604 317.296C710.604 317.01 710.339 316.725 710.073 315.868C708.479 310.156 702.899 306.729 697.32 308.443C692.006 310.156 688.818 316.153 690.412 322.151C693.334 332.432 699.18 336.43 703.696 337.858C705.822 338.714 708.213 339 710.604 339C716.45 339 723.092 336.715 730 333.003C730 332.146 729.734 331.575 729.734 331.004Z" fill="#F9B499"/>
<path d="M813.529 265.531C811.93 259.876 806.068 256.766 800.739 258.462C787.416 262.986 771.429 275.426 754.376 288.715C744.251 296.631 733.859 304.831 725.066 310.203C724.533 310.485 724.266 310.768 724 310.768C727.73 316.14 734.392 342.435 734.658 343C745.583 337.063 797.275 295.218 808.466 282.495C812.463 278.536 815.128 271.185 813.529 265.531Z" fill="#BFBFBF"/>
<path d="M696.175 330C695.646 330 694.853 329.718 694.324 329.436C686.393 323.519 682.163 311.683 682.163 311.119C681.634 309.428 682.427 307.737 684.014 307.174C685.6 306.61 687.186 307.456 687.715 309.147C687.715 309.147 691.416 319.573 697.761 324.364C699.083 325.491 699.347 327.464 698.554 328.873C698.025 329.718 697.232 330 696.175 330Z" fill="#F9B499"/>
<path d="M695.737 322C694.661 322 693.854 321.442 693.315 320.605C689.549 315.025 686.32 301.354 686.051 299.959C685.782 298.285 686.589 296.611 688.203 296.053C689.818 295.774 691.432 296.611 691.97 298.285C692.777 302.191 695.737 312.793 698.427 316.699C699.504 318.094 698.966 320.047 697.62 321.163C697.082 321.721 696.544 322 695.737 322Z" fill="#F9B499"/>
<path d="M699.993 320C698.874 320 697.476 319.161 697.196 318.042C694.399 311.051 693.28 296.23 693 295.392C693 293.714 694.119 292.036 695.797 292.036C697.476 291.756 699.154 293.154 699.154 294.832C699.434 298.747 700.552 310.213 702.79 315.526C703.35 317.204 702.79 318.881 701.112 319.72C700.832 320 700.273 320 699.993 320Z" fill="#F9B499"/>
<path d="M704.882 318.718C703.529 318.718 702.176 317.873 701.905 316.464C700.011 308.573 701.635 300.683 701.905 300.401C702.176 298.71 704.07 297.583 705.694 298.147C707.318 298.428 708.4 300.119 707.859 302.092C707.859 302.374 706.506 308.855 707.859 315.055C708.4 316.746 707.318 318.436 705.694 319C705.424 318.718 705.153 318.718 704.882 318.718Z" fill="#F9B499"/>
<path d="M824.465 283C823.14 283 821.815 282.72 820.49 282.16C815.72 279.921 813.599 273.764 815.985 268.727C818.37 263.409 822.61 258.092 823.14 257.532C826.585 253.334 832.68 252.774 836.656 256.413C840.631 260.051 841.161 266.488 837.716 270.686C836.39 272.085 834.27 275.444 833.21 277.683C831.62 281.041 828.175 283 824.465 283Z" fill="#F9B499"/>
<path d="M825.843 278.346C826.919 279.751 828.264 280.876 829.34 282C830.955 280.876 832.3 279.47 833.107 277.784C834.183 275.535 836.336 272.444 837.681 270.757C841.178 266.541 840.64 260.077 836.605 256.423C832.569 252.769 826.381 253.331 822.883 257.547C822.614 257.828 821.807 258.671 821 260.077C821 266.822 821.807 273.568 825.843 278.346Z" fill="#E0967E"/>
<path d="M857.867 267.092C854.142 277.004 843.5 281.535 834.188 277.57C824.876 273.606 820.619 262.278 824.343 252.367L829.133 239.907C832.858 229.996 843.5 225.465 852.812 229.43C862.124 233.394 866.381 244.722 862.657 254.633L857.867 267.092Z" fill="#F9B499"/>
<path d="M825.86 250.267C824.272 256.723 815.541 254.758 812.101 251.39C807.603 246.618 804.693 233.425 815.012 233.986C807.603 222.197 832.475 209.565 835.12 223.039C836.973 219.67 839.089 216.302 843.323 216.021C846.498 215.74 851.79 218.267 851.525 222.477C856.288 218.547 862.902 218.828 867.4 222.758C868.988 223.881 871.634 226.688 870.311 228.934C869.517 230.056 865.813 230.337 864.49 230.898C866.607 229.776 875.603 232.021 873.75 235.951C872.957 237.916 868.723 236.232 867.4 235.67C867.4 235.67 867.4 236.232 867.4 235.951C872.163 238.758 874.015 241.565 873.486 247.741C873.221 250.548 871.898 256.162 868.723 256.442C867.136 256.723 865.284 255.6 865.284 253.635C869.252 257.846 863.696 269.074 858.669 263.46C856.817 261.214 857.611 257.565 859.463 255.881C856.552 254.197 850.202 244.653 854.7 241.846C852.583 241.846 842.794 238.477 845.704 235.39C846.498 238.758 842.529 243.53 839.089 241.565C841.206 246.337 835.12 249.706 831.416 249.986C833.533 253.074 826.654 256.442 824.537 252.232L825.86 250.267Z" fill="#2F2E41"/>
<path d="M485.492 211C485.492 211 479.547 187.577 509 182L506.838 210.163L485.492 211Z" fill="#BFBFBF"/>
<path d="M368.796 272C362.416 272 356.568 270.583 351.252 268.033C325.202 254.716 322.278 215.331 322.013 213.631C321.747 207.68 325.734 202.58 331.316 202.013C336.898 201.73 341.683 205.98 342.214 211.931C342.746 219.864 346.999 241.965 359.758 248.482C370.391 253.866 386.605 248.482 407.073 232.898C411.592 229.498 417.972 230.631 421.161 235.448C424.351 240.265 423.288 247.065 418.769 250.466C400.162 264.633 383.416 272 368.796 272Z" fill="#848485"/>
<path d="M422.857 291.703L422.853 291.715C420.279 299.233 417.359 306.565 414.507 313.726C413.882 315.295 413.26 316.857 412.646 318.41C396.669 314.457 383.042 307.741 371.237 297.992C358.522 287.301 348.191 274.079 340.773 258.604L340.77 258.598C333.088 243.125 328.577 225.669 326.453 205.937C324.596 186.207 325.392 165.63 329.374 144.204C333.358 122.768 339.464 103.319 348.218 85.8522L348.221 85.8467C356.709 68.381 367.315 54.0234 379.77 42.485C392.225 30.9464 406.261 22.5114 421.612 17.7327C436.958 12.956 453.632 12.1108 471.111 15.767L471.113 15.7676C483.408 18.2678 494.411 22.6887 504.379 28.4901C503.932 29.6383 503.517 30.748 503.11 31.834C502.362 33.8313 501.644 35.7487 500.818 37.6789C500.039 39.4024 499.26 41.1413 498.479 42.8879C496.053 48.3064 493.595 53.7984 490.984 59.1315C489.84 61.4507 488.65 63.7795 487.45 66.129C485.683 69.5872 483.894 73.0904 482.193 76.6743C476.137 72.3042 469.319 69.2874 461.743 67.6227L461.734 67.621C451.812 65.6274 442.401 66.1927 433.785 69.6236C424.92 73.0475 417.141 78.7501 410.18 86.7117C403.222 94.6689 397.344 104.321 392.273 115.942C387.2 127.568 383.466 140.602 380.801 155.039C378.133 169.205 377.332 182.804 377.866 195.554C378.4 208.308 380.535 219.946 384.282 229.894C388.03 240.128 393.39 248.388 400.367 254.944C407.095 261.516 415.698 265.793 425.622 267.787L425.634 267.789L425.645 267.791C427.332 268.047 429.235 268.302 431.154 268.558C429.768 272.321 428.439 276.084 427.112 279.843L427.111 279.844C425.714 283.8 424.319 287.752 422.857 291.703Z" fill="#65A9F8" stroke="#013DBD"/>
<path d="M546.153 76.6352L546.156 76.6414C553.827 92.1003 558.33 109.54 560.45 129.255C562.569 148.957 561.51 169.227 557.005 190.914L557.003 190.924C553.025 212.339 546.929 231.769 538.188 249.219L538.186 249.224C529.711 266.673 519.122 281.016 506.688 292.544C494.252 304.071 480.239 312.497 464.912 317.271C449.6 322.04 432.964 322.887 415.525 319.242C415.098 319.095 414.677 319.02 414.298 318.953L414.282 318.95C414.077 318.914 413.883 318.879 413.695 318.837C417.327 310.806 420.7 302.508 423.564 294.207C424.76 290.924 425.877 287.654 426.988 284.404C428.81 279.069 430.613 273.789 432.715 268.598C439.572 269.101 446.167 267.953 452.494 265.432C461.343 262.012 469.107 256.317 476.318 248.371C483.541 240.694 489.411 230.76 494.471 219.159C499.536 207.544 503.264 194.523 505.925 180.382L505.925 180.38C508.589 165.947 509.388 152.362 508.855 139.624L508.855 139.623C508.322 127.163 506.19 115.818 502.183 105.597C498.442 95.378 493.094 87.1293 486.132 80.5814C485.388 79.7927 484.429 79.0105 483.477 78.2505C485.414 74.1481 487.461 70.0514 489.469 66.0328C490.439 64.0907 491.401 62.1668 492.336 60.2693L492.337 60.268C495.794 53.2026 498.985 46.1388 502.174 38.7959L502.175 38.7934C503.422 35.8788 504.669 32.7146 505.699 29.764C509.439 32.178 512.72 34.6035 516.003 37.2865C528.433 47.9674 538.747 61.1769 546.153 76.6352Z" fill="#004FAA" stroke="#013DBD"/>
<path d="M371.902 269.807L371.9 269.804C364.475 254.374 359.696 236.689 357.572 217.305C355.448 197.648 356.509 177.421 360.495 155.778C364.481 134.412 370.59 115.027 379.35 97.6166C388.112 80.2 398.46 65.8892 410.919 54.3909C423.379 42.8928 437.157 34.7643 452.79 29.7183C468.144 24.9577 484.828 24.1154 502.316 27.7597C519.814 31.4057 534.909 38.4133 547.617 49.0561C560.338 59.7106 570.411 72.608 578.101 88.3169C585.525 103.747 590.304 121.431 592.428 140.815C594.552 160.472 593.491 180.698 589.505 202.342C585.519 223.708 579.41 243.093 570.65 260.503C561.888 277.919 551.54 292.23 539.081 303.729C526.622 315.226 512.844 323.354 497.212 328.401C481.328 333.161 464.908 333.724 447.413 330.359C429.918 326.713 414.823 319.705 402.117 309.063C389.395 298.408 379.324 285.512 371.902 269.807ZM484.496 276.401L484.501 276.399C493.099 272.989 501.146 267.309 508.378 259.375C515.611 251.44 521.494 241.815 526.568 230.232C531.644 218.644 535.38 205.652 538.048 191.544L538.048 191.542C540.717 177.141 541.518 163.586 540.984 150.877C540.449 138.154 538.044 126.837 534.297 116.928L534.295 116.922C530.279 106.726 524.918 98.4972 518.206 91.9645L518.199 91.9578C511.209 85.4156 502.872 81.1498 493.202 79.1605L493.2 79.16C483.271 77.1728 473.854 77.7365 465.233 81.1568C456.636 84.5674 448.585 90.2481 441.616 98.1885C434.654 106.12 428.772 115.741 423.698 127.324C418.622 138.913 414.886 151.905 412.219 166.295C409.549 180.415 408.748 193.97 409.282 206.679C409.816 219.395 411.954 230.712 415.701 240.906L415.703 240.91C419.45 250.821 424.81 259.336 431.793 265.873C438.26 272.427 446.605 276.69 456.8 278.678C466.478 280.668 475.625 279.814 484.496 276.401Z" fill="#2768D1" stroke="#013DBD"/>
<path d="M627.211 172.04L628 211.52C628 211.52 617.474 221.6 608 211.52L611.421 167L627.211 172.04Z" fill="#2F2E41"/>
<path d="M582.74 489.131C582.209 488.562 577.96 486.569 577.429 486C575.305 489.7 573.712 491.692 571.056 494.538C577.695 500.8 575.836 508.2 575.836 508.2C575.836 508.2 571.056 512.469 569.463 513.323C563.621 516.454 553 520.723 553 520.723L580.085 523L600 501.085C592.831 496.815 587.254 493.115 582.74 489.131Z" fill="#252438"/>
<path d="M477 491.13C472.723 490.285 467.109 493.948 463.634 491.13C462.832 499.02 463.099 503.529 463.099 503.529L423 521H474.327C474.861 515.364 473.792 509.728 474.594 504.374C474.861 501.274 476.465 493.666 477 491.13Z" fill="#252438"/>
<path d="M523.076 298L478 389.02C478 389.02 496.295 405.364 514.326 411L548 303.636L523.076 298Z" fill="#848485"/>
<path d="M572.849 496.759C575.497 493.94 577.881 490.274 580 486.609C568.346 475.895 562.784 464.9 546.893 446.292C540.271 438.397 557.752 393.851 561.99 386.238C569.671 372.705 570.73 363.119 576.557 340L532.59 357.48C521.996 397.516 509.813 437.269 522.261 456.441C535.239 476.459 558.017 492.812 569.141 500.988C569.406 501.27 572.584 496.477 572.849 496.759Z" fill="#252438"/>
<path d="M499.227 207C498.675 207 497.846 206.722 497.294 206.444C495.914 205.332 495.638 203.386 496.466 201.996C500.055 196.714 500.884 192.544 500.884 192.544C501.16 190.877 502.816 189.765 504.473 190.043C506.129 190.321 507.234 191.989 506.958 193.656C506.958 193.934 505.853 199.216 501.436 205.61C501.16 206.444 500.055 207 499.227 207Z" fill="#F9B499"/>
<path d="M574.312 350C587.449 311.455 598.978 251.086 603 226.995C600.587 225.862 598.442 225.295 596.565 224.728C592.543 223.594 587.985 222.177 583.964 223.594C581.819 224.161 580.21 225.295 578.333 226.429C576.725 231.53 575.92 236.065 575.92 236.065C575.92 236.065 547.5 293.599 529 332.711C544.819 336.679 560.101 342.064 574.312 350Z" fill="white"/>
<path d="M528.347 334C526.745 337.389 525.143 340.779 523.808 343.886C520.07 350.665 516.333 356.879 512.595 363.093C476.019 421.279 462.403 467.602 460 489.633C463.471 492.458 476.553 494.153 481.091 495C487.766 458.563 505.386 435.402 536.623 408.004C547.035 398.965 555.044 387.102 561.986 377.498C565.991 371.849 570.262 362.528 574 351.23C559.316 343.039 544.098 337.672 528.347 334Z" fill="#2F2E41"/>
<path d="M492.154 350C487.891 350 483.895 347.179 482.563 342.666C480.698 337.025 483.629 330.82 488.957 328.845C501.212 324.332 520.393 306.28 533.181 287.1C559.022 248.175 577.405 226.457 578.204 225.61C581.934 221.097 588.327 220.815 592.59 224.764C596.853 228.713 597.119 235.483 593.389 239.996C593.123 240.278 575.007 261.714 549.965 299.511C537.443 318.409 515.065 342.102 495.883 349.154C494.551 349.718 493.486 350 492.154 350Z" fill="#F9B499"/>
<path d="M595.448 231C595.187 231 594.926 231 594.664 231C589.442 230.719 585.524 225.657 586.047 220.033C586.569 214.127 588.658 207.659 588.658 206.816C590.225 201.473 595.709 198.661 600.671 200.629C605.632 202.316 608.244 208.222 606.416 213.565C605.893 215.533 604.849 219.189 604.588 221.72C604.327 227.063 600.148 231 595.448 231Z" fill="#F9B499"/>
<path d="M597.877 220.334C599.453 222.317 601.291 224.3 603.391 226C604.179 224.583 604.441 223.167 604.704 221.75C604.967 219.2 605.754 215.517 606.542 213.534C608.117 208.151 605.492 202.484 600.765 200.501C596.564 199.084 592.363 200.784 590 204.184C590.525 210.134 594.989 216.65 597.877 220.334Z" fill="#E0967E"/>
<path d="M622.732 198.065C622.464 208.804 614.152 217 603.964 217C593.775 216.717 586 207.957 586 197.217L586.268 183.935C586.536 173.196 594.848 165 605.036 165C615.225 165.283 623 174.043 623 184.783L622.732 198.065Z" fill="#F9B499"/>
<path d="M478.339 347C474.036 347 469.195 345.849 463.815 343.259C462.202 342.683 461.664 340.669 462.202 338.942C462.74 337.216 464.622 336.64 466.236 337.216C474.305 340.669 480.491 341.245 484.525 338.655C485.87 337.791 487.753 338.079 488.559 339.806C489.366 341.245 489.097 343.259 487.484 344.122C485.063 346.137 482.104 347 478.339 347Z" fill="#F9B499"/>
<path d="M481.806 352C476.968 352 473.204 351.115 468.634 349.936L467.29 349.641C465.677 349.346 464.602 347.282 465.14 345.512C465.409 343.743 467.29 342.564 468.903 343.153L470.247 343.448C477.505 345.512 482.344 346.692 493.097 343.743C494.71 343.153 496.323 344.333 496.86 346.102C497.398 347.872 496.322 349.641 494.71 350.231C489.333 351.41 485.301 352 481.806 352Z" fill="#F9B499"/>
<path d="M478.003 341C468.831 341 462.28 334.844 462.018 334.564C460.708 333.445 460.708 331.486 461.756 330.087C462.804 328.688 464.639 328.688 465.949 329.807C466.211 330.087 473.024 336.523 482.195 334.005C483.767 333.445 485.34 334.564 485.864 336.243C486.388 337.922 485.34 339.601 483.767 340.161C481.671 340.72 479.575 341 478.003 341Z" fill="#F9B499"/>
<path d="M484.301 338H484.034C473.906 336.867 469.642 328.933 469.376 328.65C468.576 327.233 469.109 325.249 470.442 324.399C471.774 323.549 473.64 324.116 474.44 325.533C474.706 325.816 477.371 330.916 484.301 331.766C485.9 332.05 487.232 333.466 486.966 335.167C487.232 336.583 485.9 338 484.301 338Z" fill="#F9B499"/>
<path d="M520.03 211C519.764 211 519.764 211 519.498 211C514.438 210.182 500.858 208 497.929 208C496.331 208 495 206.636 495 205C495 203.364 496.331 202 497.929 202C502.19 202 518.699 204.727 520.563 205C522.16 205.273 523.226 206.909 522.959 208.545C522.693 209.909 521.362 211 520.03 211Z" fill="#F9B499"/>
<path d="M517.914 219C517.646 219 517.378 219 517.11 219C516.842 219 502.644 214.769 495.947 214.487C494.339 214.487 493 212.795 493 211.103C493 209.41 494.607 208 496.215 208C503.448 208.564 517.914 212.513 518.717 212.795C520.325 213.359 521.396 215.051 520.861 216.744C520.593 217.872 519.253 219 517.914 219Z" fill="#F9B499"/>
<path d="M516.929 225C516.665 225 516.4 225 516.136 224.718C502.654 220.202 499.482 219.92 497.631 219.638C496.838 219.638 496.045 219.638 495.252 219.356C493.666 218.791 492.609 217.098 493.138 215.405C493.666 213.711 495.252 212.582 496.838 213.147C497.367 213.147 497.631 213.429 498.16 213.429C500.275 213.711 503.976 213.993 517.986 218.791C519.573 219.356 520.366 221.049 519.837 222.742C519.308 224.153 518.251 225 516.929 225Z" fill="#F9B499"/>
<path d="M511.095 230C510.834 230 510.834 230 511.095 230C497.522 228.889 497 221.389 497 220.556L503.004 220.278C503.004 220.278 503.004 220.278 503.004 220C503.004 220 503.526 223.056 511.356 223.611C512.922 223.611 514.228 225.278 513.967 226.944C513.967 228.889 512.661 230 511.095 230Z" fill="#F9B499"/>
<path d="M499.614 227C499.614 227 496.963 225.599 492.987 225.599C489.541 225.599 485.034 219.437 485.034 213.274C485.034 213.274 483.443 194.787 502 203.19L499.614 227Z" fill="#F9B499"/>
<path d="M558.133 282.662L532 419.504C532 419.504 572.533 429.965 597.6 414.697L604 224.42C603.733 224.703 576 214.242 558.133 282.662Z" fill="#848485"/>
<path d="M564.706 357.407L589.998 356C589.998 356 590.536 396.525 575.468 394.837C575.468 394.837 554.751 399.621 564.706 357.407Z" fill="#BFBFBF"/>
<path d="M596 220.939C593.331 218.407 589.595 217 585.858 217C581.588 217 577.584 218.969 574.648 222.345C573.847 223.189 555.431 244.852 529.274 284.24C527.673 286.772 525.537 289.304 523.669 292.117L521 295.493L523.936 298.588C527.139 301.964 530.342 305.34 533.545 308.716C535.146 310.404 537.014 312.373 538.616 314.061L542.352 318L545.822 313.78C548.758 310.123 551.694 306.184 554.096 302.526C579.185 265.109 597.068 243.727 597.335 243.727C602.673 236.975 602.139 226.847 596 220.939Z" fill="#BFBFBF"/>
<path d="M527.356 282.804L517 295L543.094 319.801L553.45 307.605L527.356 282.804Z" fill="#DDDDDD"/>
<path d="M568 205.431L591.61 215C591.61 215 601.651 164.62 594.324 157.021C594.052 157.021 568 154.488 568 205.431Z" fill="#2F2E41"/>
<path d="M595.386 166.014C596.182 167.42 613.947 179.794 628 176.419C628 176.419 625.614 154.202 593 157.295L595.386 166.014Z" fill="#2F2E41"/>
<path d="M609 189.5C609 195.303 604.526 200 599 200C593.474 200 589 195.303 589 189.5C589 183.697 593.474 179 599 179C604.526 179 609 183.697 609 189.5Z" stroke="#131313" stroke-width="0.8679" stroke-miterlimit="10"/>
<path d="M632 192.5C632 197.682 627.909 202 623 202C618.091 202 614 197.682 614 192.5C614 187.318 618.091 183 623 183C627.909 183 632 187.318 632 192.5Z" stroke="#131313" stroke-width="0.755" stroke-miterlimit="10"/>
<path d="M609 190.34C609 190.34 612 189.239 614 191" stroke="#131313" stroke-width="0.8679" stroke-miterlimit="10"/>
<path d="M317.448 208C317.187 208 316.926 208 316.664 208C311.442 207.719 307.524 202.657 308.047 197.033C308.569 191.127 310.658 184.659 310.658 183.816C312.225 178.473 317.709 175.661 322.671 177.629C327.632 179.316 330.244 185.222 328.416 190.565C327.893 192.533 326.849 196.189 326.588 198.72C326.327 203.782 322.41 208 317.448 208Z" fill="#E0967E"/>
<path d="M312 491.073C328.021 499 341.106 498.717 342.174 499C352.588 479.467 383.829 426.245 355.258 382.932L314.937 360.001C314.937 359.718 355.258 404.447 312 491.073Z" fill="#252438"/>
<path d="M332.867 508.4C332.867 508.4 336.591 500.56 339.517 495.24C337.389 494.96 327.547 494.68 323.557 493C319.832 501.12 311.586 512.88 306 521H360L332.867 508.4Z" fill="#252438"/>
<path d="M399.553 385.241C392.893 371.34 344.143 329.638 339.615 305.525C339.348 303.539 338.816 301.27 338.549 299C330.824 303.539 320.434 304.674 312.443 304.957C303.385 305.525 297.791 306.092 289 301.553C289.799 316.305 287.402 330.773 295.66 345.809C311.91 375.879 365.721 401.411 371.582 411.34C383.303 430.915 387.566 473.184 391.561 499C397.955 499 412.873 498.716 419 496.447C417.135 483.397 420.598 428.929 399.553 385.241Z" fill="#2F2E41"/>
<path d="M415.667 505.833C415.667 505.833 413.8 498.333 413.267 495C407.133 497.222 403.4 495 397 495C398.067 501.389 397.267 513.056 397.8 520H449L415.667 505.833Z" fill="#252438"/>
<path d="M312.535 312.9C320.217 312.618 336.642 310.355 343 303.286C341.675 291.975 336.907 273.595 338.496 258.89C344.06 209.122 321.277 194.135 321.277 194.135C321.277 194.135 310.68 186.217 302.203 195.549C289.487 209.687 276.771 249.559 278.095 308.376C287.367 313.183 303.262 313.183 312.535 312.9Z" fill="#848485"/>
<path d="M430.938 329C430.139 329 429.339 329 428.54 328.716C391.504 319.644 360.33 296.114 337.949 260.676C321.163 234.026 315.567 210.212 315.301 209.361C313.969 203.691 317.166 197.738 322.761 196.32C328.09 194.903 333.686 198.305 335.018 204.258C335.018 204.825 340.347 226.088 355.268 249.619C374.718 280.521 401.096 300.083 433.069 308.021C438.665 309.438 441.862 315.108 440.796 321.062C439.731 325.598 435.467 329 430.938 329Z" fill="#F9B499"/>
<path d="M408.102 296.952C387.878 286.742 370.58 270.292 356.743 248.454C342.107 225.198 336.784 203.926 336.784 203.643C335.454 197.971 330.664 194 325.076 194C324.011 194 323.213 194 322.148 194.284C318.955 195.134 316.56 197.12 314.697 200.24C313.101 203.076 312.568 206.479 313.367 209.882V210.166C314.963 217.54 321.35 243.065 336.252 267.172C354.082 295.817 378.564 317.088 406.505 329C406.771 329 407.037 329 407.037 329C407.304 329 407.836 329 408.102 328.716C408.634 328.433 408.9 327.866 408.9 327.015V298.37C409.166 298.086 408.9 297.235 408.102 296.952Z" fill="#BFBFBF"/>
<path d="M437.837 330C434.638 330 431.172 329.709 427.44 328.836C425.841 328.546 424.774 326.8 425.041 325.055C425.307 323.31 426.907 322.146 428.506 322.437C437.571 324.473 444.769 323.601 450.634 320.401C451.967 319.528 453.833 320.11 454.633 321.855C455.432 323.31 454.899 325.346 453.3 326.219C449.034 328.546 443.702 330 437.837 330Z" fill="#F9B499"/>
<path d="M438.8 322C437.492 322 435.923 322 434.615 321.721C433.046 321.442 432 319.767 432 318.092C432.262 316.418 433.831 315.301 435.4 315.301C444.816 316.697 453.447 311.673 453.708 311.393C455.016 310.556 456.847 311.114 457.631 312.51C458.416 313.906 457.893 315.859 456.585 316.697C456.062 317.255 448.216 322 438.8 322Z" fill="#F9B499"/>
<path d="M436.356 316C435.811 316 435.267 316 434.995 316C433.361 316 432 314.305 432 312.609C432 310.914 433.633 309.501 435.267 309.501C442.617 310.066 446.428 305.263 446.428 305.263C447.517 303.85 449.422 303.567 450.784 304.697C452.145 305.828 452.417 307.806 451.328 309.218C450.784 309.501 445.884 316 436.356 316Z" fill="#F9B499"/>
<path d="M424.925 311C423.33 311 422 309.577 422 307.87C422 306.163 423.33 304.74 424.925 304.74C425.191 304.74 431.042 304.456 434.499 299.334C435.562 297.911 437.424 297.627 438.753 298.48C440.083 299.618 440.349 301.61 439.551 303.033C434.233 310.715 425.191 311 424.925 311Z" fill="#F9B499"/>
<path d="M415.961 239C414.869 239 414.05 238.444 413.503 237.61C408.861 231.216 408.042 225.656 408.042 225.656C407.769 223.989 408.861 222.321 410.5 222.043C412.138 221.765 413.777 222.877 414.05 224.545C414.05 224.545 414.869 228.714 418.419 233.996C419.511 235.386 418.965 237.332 417.6 238.444C417.327 238.722 416.507 239 415.961 239Z" fill="#F9B499"/>
<path d="M416.046 241C415.781 241 415.781 241 415.516 241C408.894 239.519 396.179 239.519 395.914 239.519C394.324 239.519 393 238.037 393 236.259C393 234.482 394.324 233 395.914 233C396.444 233 409.423 233 416.575 234.481C418.165 234.778 419.224 236.556 418.959 238.333C418.695 240.111 417.635 241 416.046 241Z" fill="#F9B499"/>
<path d="M393.926 247C392.349 247 391.297 245.901 391.034 244.252C390.771 242.603 392.086 240.954 393.663 240.68C395.504 240.405 412.071 238.206 417.593 239.306C419.171 239.58 420.223 241.229 419.96 242.878C419.697 244.527 418.119 245.626 416.541 245.351C413.123 244.802 401.289 245.901 394.452 246.725C394.189 247 394.189 247 393.926 247Z" fill="#F9B499"/>
<path d="M398 253.724C396.655 253.724 395.31 252.621 395.041 251.243C394.772 249.588 395.848 247.934 397.462 247.658C404.723 246.279 406.875 245.452 410.371 244.349C411.985 243.798 414.136 243.246 417.095 242.143C418.709 241.592 420.322 242.695 420.86 244.349C421.398 246.004 420.322 247.658 418.708 248.21C415.75 249.037 413.867 249.864 411.985 250.415C408.22 251.518 406.068 252.346 398.538 254C398.269 253.724 398 253.724 398 253.724Z" fill="#F9B499"/>
<path d="M404.983 259C403.646 259 402.308 257.871 402.041 256.461C401.773 254.768 402.843 253.075 404.448 252.792C414.078 251.099 416.218 247.149 416.218 247.149C416.753 245.456 418.358 244.61 419.963 245.174C421.567 245.738 422.37 247.431 421.835 249.124C421.567 250.253 418.893 256.743 405.518 259C405.251 259 405.251 259 404.983 259Z" fill="#F9B499"/>
<path d="M416.467 256L414 230C414 230 424.963 230.848 424.963 242.717C425.237 246.674 424.141 251.196 416.467 256Z" fill="#F9B499"/>
<path d="M349.373 170.549C352.053 181.255 345.888 192.524 335.702 195.341C325.515 198.158 314.793 191.679 312.112 180.973L308.627 167.451C305.947 156.745 312.112 145.476 322.298 142.659C332.485 139.842 343.207 146.321 345.888 157.027L349.373 170.549Z" fill="#F9B499"/>
<path d="M346.774 164C345.439 168.255 343.303 172.51 340.099 175.63C332.357 182.721 320.611 184.707 311 180.452L311.267 181.87C313.937 192.649 324.615 199.173 334.76 196.336C344.905 193.5 351.045 182.154 348.375 171.375L346.774 164Z" fill="#2F2E41"/>
<path d="M311.004 181C304.09 176.177 296.664 157.453 307.419 153.197C314.077 150.644 311.516 173.624 311.516 180.149L311.004 181Z" fill="#2F2E41"/>
<path d="M306.024 154.863C297.307 148.042 308.137 129 329.533 129C342.741 129 342.741 139.8 333.495 145.768C325.835 150.6 314.212 147.758 308.401 156L306.024 154.863Z" fill="#2F2E41"/>
<path d="M346.983 168C344.051 163.228 337.92 153.404 335.52 147.79C333.921 144.141 332.055 138.246 338.719 142.457C344.318 146.106 347.25 158.737 346.983 164.912V168Z" fill="#2F2E41"/>
<path d="M144.421 314.831L185.37 223.668C187.452 221.06 189.927 218.752 192.349 216.494C193.28 215.625 194.203 214.764 195.093 213.897C198.918 210.306 202.551 206.514 206.308 202.529L173.638 274.757L144.421 314.831Z" fill="#004FAA" stroke="#013DBD"/>
<path d="M169.708 197.502L169.706 197.505C167.057 201.295 164.145 204.936 161.334 208.45C160.274 209.775 159.228 211.083 158.216 212.374L33.7904 151.918L104.034 144.513L179.237 183.316C177.5 185.587 175.935 187.968 174.437 190.305C174.146 190.758 173.858 191.209 173.573 191.657C172.275 193.69 171.014 195.666 169.708 197.502Z" fill="#004FAA" stroke="#013DBD"/>
<path d="M169.776 201L169.778 200.999C171.792 198.43 173.601 195.58 175.396 192.718C175.508 192.54 175.619 192.363 175.731 192.185C177.342 189.614 178.952 187.046 180.713 184.64L236.256 213.32L216.076 241.365L159.785 213.818C163.118 209.71 166.45 205.352 169.776 201Z" fill="#65A9F8" stroke="#013DBD"/>
<path d="M217.223 239.064L196.276 285.292L164.968 269.438L164.501 269.202L164.286 269.679L142.339 318.32L95.1733 294.774L117.137 246.097L117.334 245.661L116.907 245.445L0.653309 186.666L19.0832 146.028L210.692 26.5734L262.348 52.7635L185.647 222.539L185.45 222.975L185.877 223.191L217.223 239.064ZM181.406 103.984L181.012 103.757L178.075 102.063L177.817 101.914L177.563 102.071L74.7656 165.582L74.007 166.051L74.8026 166.454L137.816 198.351L138.281 198.586L138.497 198.112L181.217 104.397L181.406 103.984Z" fill="#2768D1" stroke="#013DBD"/>
<path d="M198.887 282.847L218.778 239.013L235.938 216.526L222.213 248.419L198.887 282.847Z" fill="#004FAA" stroke="#013DBD"/>
<path d="M187.671 219.524L263.435 52.2949L284.028 26.2953L209.642 198.041C209.158 198.533 206.978 200.649 204.107 203.434C202.262 205.224 200.132 207.29 197.984 209.38C195.16 212.129 192.309 214.913 190.047 217.152C189.154 218.037 188.348 218.84 187.671 219.524Z" fill="#004FAA" stroke="#013DBD"/>
<path d="M211.049 25.2173L23.3011 141.742L53.7632 113.868L236.192 3.49319L211.049 25.2173Z" fill="#65A9F8" stroke="#013DBD"/>
<path d="M285.229 23.2183L262.989 51.3691L211.89 25.4689L240.595 0.59783L285.229 23.2183Z" fill="#65A9F8" stroke="#013DBD"/>
<path d="M146.866 154.138C140.475 149.349 135.948 151.321 133.018 151.884C129.556 152.447 127.16 150.475 127.16 150.475C125.828 149.63 123.964 149.912 122.899 151.321C122.1 152.729 122.366 154.701 123.698 155.828C123.964 155.828 126.361 157.8 131.154 158.927C126.094 163.716 121.035 169.632 120.768 169.914C119.703 171.323 119.703 173.295 121.035 174.422C121.567 174.985 122.366 175.267 123.165 175.267C123.964 175.267 124.763 174.985 125.296 174.14C125.296 174.14 129.024 169.914 132.752 165.97C129.024 170.759 125.562 175.83 125.029 176.957C123.964 178.366 124.497 180.338 125.828 181.465C126.361 181.746 126.893 182.028 127.692 182.028C128.491 182.028 129.556 181.465 130.089 180.619C131.953 177.802 134.883 173.858 137.546 170.196C136.48 172.168 135.415 174.703 132.752 178.929C131.953 180.338 132.219 182.31 133.817 183.437C134.35 183.718 134.883 184 135.415 184C136.48 184 137.279 183.437 138.078 182.591C139.143 180.901 139.942 179.492 140.741 178.084C140.209 179.492 140.741 181.183 141.806 182.028C142.339 182.31 142.872 182.591 143.404 182.591C144.469 182.591 145.268 182.028 145.801 181.183C148.73 176.675 150.062 173.013 150.594 169.914C151.926 160.899 149.796 156.673 146.866 154.138ZM140.741 176.675C141.806 174.703 142.339 173.576 143.138 172.168C142.605 173.295 141.806 174.703 140.741 176.675Z" fill="#F9B499"/>
<path d="M54.3367 189.793C44.7114 189.227 31.0755 209.06 45.2461 214.443C32.4124 214.16 29.2039 233.426 40.9682 238.526C20.3807 234.276 22.787 262.609 32.4123 272.809C25.7281 271.675 19.0438 278.475 20.1133 285.559C21.1828 292.925 23.8565 303.125 40.9682 308.508C58.0799 313.892 68.5073 303.692 77.0632 294.058C82.4106 305.958 109.415 289.809 106.474 275.925C116.634 279.609 125.725 267.426 125.992 257.792C126.259 248.159 119.842 241.076 113.96 234.843C118.238 230.876 119.04 223.226 117.971 217.276C116.099 207.643 104.87 206.793 104.87 199.143C104.87 196.593 105.404 188.093 103.265 184.41C99.7896 178.46 93.9075 172.793 86.4211 175.627C54.3367 159.76 54.3367 189.793 54.3367 189.793Z" fill="#2F2E41"/>
<path d="M72.5 498.429C63.9444 496.714 62.3403 497.286 53.7847 495L34 521H111L66.3507 508.143L72.5 498.429Z" fill="#252438"/>
<path d="M215.579 506.16L211.051 500C207.056 502.8 202.794 505.04 198 506.72L209.986 521H255L215.579 506.16Z" fill="#252438"/>
<path d="M46 498.777C54.5015 501.04 63.2687 503.303 71.7702 505L135 422.122L124.107 389.31L79.7403 335L92.4925 411.938L46 498.777Z" fill="#252438"/>
<path d="M131.839 312.702C114.514 307.893 90.7921 314.116 74 320.905C74 320.905 84.3951 364.752 91.3251 377.764C111.049 415.953 197.142 511 197.142 511C201.94 509.303 211.002 502.231 215 499.402L131.839 312.702Z" fill="#2F2E41"/>
<path d="M71.9797 338C88.8508 331.19 122.593 319.84 140 324.664C140 324.664 116.969 267.347 106.525 254.862C99.5627 246.35 61 222.232 61 253.727C61.2678 296.573 71.9797 338 71.9797 338Z" fill="#848485"/>
<path d="M86.8121 250.38C86.5515 250.38 86.2909 250.661 86.0303 250.661C81.0788 252.068 75.8667 248.973 74.5636 243.629C73.2606 238.003 73 230.971 73 230.127C73 224.501 77.1697 220 82.3818 220C87.5939 220 91.7636 224.501 91.7636 230.127C91.7636 232.096 92.0242 236.034 92.5454 238.565C94.109 243.347 91.503 248.692 86.8121 250.38Z" fill="#F9B499"/>
<path d="M93 241C93 240.149 93 239.581 92.7368 238.73C92.2105 236.459 91.9474 232.487 91.9474 230.216C91.9474 224.541 87.7368 220 82.4737 220C77.2105 220 73 224.541 73 230.216C73 230.216 73 230.784 73 231.068C77.7368 237.311 85.3684 239.865 93 241Z" fill="#E0967E"/>
<path d="M103.059 209.92C106.296 220.01 100.901 230.659 91.1886 234.022C81.4767 237.385 71.2251 231.78 67.9878 221.691L63.9412 209.08C60.7038 198.99 66.0994 188.341 75.8114 184.978C85.5233 181.615 95.7749 187.22 99.0122 197.309L103.059 209.92Z" fill="#F9B499"/>
<path d="M210.052 199.677C209.785 199.396 209.251 199.114 208.716 199.114C209.251 198.551 209.518 197.988 210.052 197.425C211.121 196.017 211.121 194.046 209.785 192.92C209.518 192.638 209.518 192.638 209.25 192.638C210.052 191.23 210.052 189.541 208.716 188.415C207.914 187.57 206.578 187.288 205.509 187.852C206.845 186.444 207.647 185.317 207.914 185.317C208.983 183.91 208.983 181.939 207.647 180.812C206.311 179.686 204.44 179.686 203.371 181.094C203.371 181.094 196.69 188.978 190.009 192.92C187.069 188.133 183.06 186.725 183.06 186.444C181.457 185.881 179.853 186.725 179.319 188.133C178.784 189.822 179.586 191.512 180.922 192.357C180.922 192.357 183.327 193.483 185.198 196.298C184.931 197.143 184.664 197.988 184.396 199.114C140.033 262.184 81.5057 239.941 78.8332 238.815C73.4883 236.562 67.6088 239.378 65.7381 245.009C63.6001 250.64 66.2726 256.835 71.6175 259.087C72.4193 259.369 86.5834 265 107.162 265C111.17 265 115.714 264.718 120.257 264.155C142.438 261.34 175.043 248.106 201.233 212.629C201.768 212.348 202.302 212.066 203.104 211.221C203.638 210.94 204.173 210.377 204.707 210.095C206.311 208.687 208.181 206.716 210.319 204.182C211.388 202.774 211.121 200.803 210.052 199.677Z" fill="#F9B499"/>
<path d="M128.61 239.797L126.219 240.356C120.11 241.754 114.001 242.314 107.626 242.314C92.221 242.314 81.5966 238.119 80.2686 237.839C78.9405 237.28 77.3469 237 76.0188 237C70.9723 237 66.7225 240.076 64.8632 245.11C63.8008 248.186 63.5352 251.822 65.1288 254.619C70.9722 265.525 86.9088 270 107.626 270C112.142 270 116.391 269.72 120.907 269.161C123.563 268.881 126.219 268.322 129.141 267.763L131 267.203C131 267.203 128.61 259.373 128.078 251.263C127.547 248.466 128.61 239.797 128.61 239.797Z" fill="#BFBFBF"/>
<path d="M63.9863 220C70.4601 215.731 72.618 207.763 71.8088 199.795C77.4733 203.779 81.7892 201.217 85.2958 194.387C95.8157 210.04 112 186.704 90.1511 178.451C72.618 171.621 55.3546 190.119 59.6704 208.617L63.9863 220Z" fill="#2F2E41"/>
</svg>
