<svg width="332" height="380" viewBox="0 0 332 380" fill="none" xmlns="http://www.w3.org/2000/svg">
<path d="M63.9184 226.31L124.11 276.591C136.258 286.739 152.871 289.557 167.588 283.969L241.242 256.79C256.097 251.317 266.842 238.411 269.549 222.79L283.127 145.192C285.834 129.571 280.082 113.707 268.071 103.674L207.88 53.3938C195.731 43.2455 179.118 40.4271 164.401 46.0153L90.6319 73.3331C75.7766 78.806 65.0315 91.7123 62.3249 107.334L48.7469 184.931C46.0178 200.299 51.7698 216.162 63.9184 226.31Z" fill="url(#paint0_linear_1237_20537)"/>
<path d="M89.1944 294.083L139.067 335.744C149.133 344.152 162.912 346.471 175.128 341.814L236.266 319.161C248.597 314.6 257.528 303.873 259.793 290.903L271.154 226.475C273.419 213.505 268.667 200.344 258.715 192.031L208.842 150.37C198.776 141.962 184.998 139.643 172.781 144.3L111.547 167.068C99.2161 171.629 90.2857 182.356 88.0208 195.326L76.6595 259.755C74.3762 272.514 79.1284 285.675 89.1944 294.083Z" fill="url(#paint1_linear_1237_20537)"/>
<defs>
<linearGradient id="paint0_linear_1237_20537" x1="89.4249" y1="91.5759" x2="209.056" y2="218.51" gradientUnits="userSpaceOnUse">
<stop stop-color="#E3E3E3"/>
<stop offset="1" stop-color="#E3E3E3" stop-opacity="0.2"/>
</linearGradient>
<linearGradient id="paint1_linear_1237_20537" x1="100.827" y1="178.358" x2="159.179" y2="332.247" gradientUnits="userSpaceOnUse">
<stop stop-color="#3B82F6"/>
<stop offset="1" stop-color="#2755A1" stop-opacity="0.5"/>
</linearGradient>
</defs>
</svg>
