<svg width="234" height="308" viewBox="0 0 234 308" fill="none" xmlns="http://www.w3.org/2000/svg">
<path d="M0 85.9798L0 166.945C0 183.287 8.82662 198.329 23.0995 206.314L93.9005 246.797C108.173 254.968 125.639 254.968 139.912 246.797L210.9 206.314C225.173 198.143 234 183.101 234 166.945L234 85.9798C234 69.6381 225.173 54.5963 210.9 46.6112L139.912 6.1284C125.639 -2.04243 108.173 -2.04243 93.9005 6.1284L22.9117 46.6112C8.82661 54.5963 0 69.6381 0 85.9798Z" fill="url(#paint0_linear_1266_15622)"/>
<path d="M24 162.136L24 232.624C24 246.851 31.6573 259.946 44.0393 266.898L105.461 302.141C117.843 309.255 132.994 309.255 145.376 302.141L206.961 266.898C219.343 259.784 227 246.689 227 232.624L227 162.136C227 147.909 219.343 134.814 206.961 127.862L145.376 92.6185C132.994 85.5051 117.843 85.5051 105.461 92.6185L43.8764 127.862C31.6573 134.814 24 147.909 24 162.136Z" fill="url(#paint1_linear_1266_15622)"/>
<defs>
<linearGradient id="paint0_linear_1266_15622" x1="117.416" y1="2.8932" x2="117.416" y2="185.974" gradientUnits="userSpaceOnUse">
<stop stop-color="#E3E3E3"/>
<stop offset="1" stop-color="#E3E3E3"/>
</linearGradient>
<linearGradient id="paint1_linear_1266_15622" x1="125.5" y1="87.2834" x2="125.5" y2="307.477" gradientUnits="userSpaceOnUse">
<stop stop-color="#3B82F6"/>
<stop offset="1" stop-color="#2755A1" stop-opacity="0.5"/>
</linearGradient>
</defs>
</svg>
