<svg width="332" height="380" viewBox="0 0 332 380" fill="none" xmlns="http://www.w3.org/2000/svg">
<path d="M268.071 226.31L207.88 276.591C195.731 286.739 179.119 289.557 164.402 283.969L90.7478 256.79C75.8925 251.317 65.1474 238.411 62.4408 222.79L48.8628 145.192C46.1562 129.571 51.9082 113.707 63.9188 103.674L124.11 53.3938C136.259 43.2455 152.871 40.4271 167.589 46.0153L241.358 73.3331C256.213 78.806 266.958 91.7123 269.665 107.334L283.243 184.931C285.972 200.299 280.22 216.162 268.071 226.31Z" fill="url(#paint0_linear_1237_20537)"/>
<path d="M242.795 294.083L192.923 335.744C182.857 344.152 169.078 346.471 156.861 341.814L95.7234 319.161C83.3925 314.6 74.4621 303.873 72.1972 290.903L60.8359 226.475C58.571 213.505 63.3231 200.344 73.2748 192.031L123.148 150.37C133.214 141.962 146.992 139.643 159.209 144.3L220.443 167.068C232.774 171.629 241.704 182.356 243.969 195.326L255.33 259.755C257.614 272.514 252.861 285.675 242.795 294.083Z" fill="url(#paint1_linear_1237_20537)"/>
<defs>
<linearGradient id="paint0_linear_1237_20537" x1="242.565" y1="91.5759" x2="122.933" y2="218.51" gradientUnits="userSpaceOnUse">
<stop stop-color="#E3E3E3"/>
<stop offset="1" stop-color="#E3E3E3" stop-opacity="0.2"/>
</linearGradient>
<linearGradient id="paint1_linear_1237_20537" x1="231.163" y1="178.358" x2="172.811" y2="332.247" gradientUnits="userSpaceOnUse">
<stop stop-color="#3B82F6"/>
<stop offset="1" stop-color="#2755A1" stop-opacity="0.5"/>
</linearGradient>
</defs>
</svg>
