<svg width="380" height="429" viewBox="0 0 380 429" fill="none" xmlns="http://www.w3.org/2000/svg">
<path d="M73.2459 258.262L142.101 315.647C155.998 327.229 175.001 330.447 191.835 324.071L276.083 293.06C293.075 286.815 305.365 272.087 308.46 254.261L323.985 165.706C327.08 147.879 320.499 129.775 306.76 118.324L237.905 60.9391C224.008 49.3568 205.005 46.139 188.171 52.5152L103.79 83.6846C86.7983 89.9292 74.5083 104.657 71.4136 122.484L55.8882 211.039C52.7677 228.576 59.3485 246.68 73.2459 258.262Z" fill="url(#paint0_linear_1269_21573)"/>
<path d="M60.5842 330.544L117.635 378.092C129.15 387.689 144.921 390.324 158.911 384.992L228.921 359.051C243.042 353.827 253.276 341.564 255.881 326.743L268.95 253.123C271.556 238.303 266.129 223.272 254.745 213.784L197.693 166.236C186.178 156.64 170.408 154.004 156.418 159.337L86.2975 185.409C72.1771 190.633 61.9434 202.896 59.3378 217.717L46.2685 291.337C43.6422 305.916 49.0693 320.947 60.5842 330.544Z" fill="url(#paint1_linear_1269_21573)"/>
<defs>
<linearGradient id="paint0_linear_1269_21573" x1="203.506" y1="54.8059" x2="172.897" y2="317.318" gradientUnits="userSpaceOnUse">
<stop stop-color="#E3E3E3"/>
<stop offset="1" stop-color="#E3E3E3" stop-opacity="0.2"/>
</linearGradient>
<linearGradient id="paint1_linear_1269_21573" x1="183.923" y1="167.113" x2="149.537" y2="379.68" gradientUnits="userSpaceOnUse">
<stop stop-color="#3B82F6"/>
<stop offset="1" stop-color="#2755A1" stop-opacity="0.5"/>
</linearGradient>
</defs>
</svg>
