<svg width="360" height="394" viewBox="0 0 360 394" fill="none" xmlns="http://www.w3.org/2000/svg">
<path d="M69.2106 244.983L134.385 299.284C147.54 310.243 165.546 313.266 181.511 307.196L261.407 277.67C277.521 271.724 289.192 257.743 292.152 240.837L306.999 156.86C309.959 139.955 303.749 122.801 290.744 111.966L225.569 57.6646C212.415 46.7047 194.409 43.6825 178.444 49.7526L98.4218 79.4289C82.3075 85.3745 70.6371 99.3557 67.6772 116.261L52.8298 200.238C49.8459 216.869 56.0561 234.023 69.2106 244.983Z" fill="url(#paint0_linear_1269_21584)"/>
<path d="M72.0307 300.995L126.138 346.076C137.059 355.174 151.993 357.7 165.225 352.687L231.444 328.306C244.8 323.397 254.462 311.822 256.897 297.814L269.113 228.229C271.548 214.221 266.379 199.996 255.582 191.001L201.475 145.921C190.554 136.822 175.62 134.297 162.388 139.309L96.0647 163.814C82.7088 168.724 73.0473 180.299 70.6121 194.307L58.396 263.892C55.9407 277.672 61.11 291.897 72.0307 300.995Z" fill="url(#paint1_linear_1269_21584)"/>
<defs>
<linearGradient id="paint0_linear_1269_21584" x1="189.76" y1="63.3038" x2="180.301" y2="268.011" gradientUnits="userSpaceOnUse">
<stop stop-color="#E3E3E3"/>
<stop offset="1" stop-color="#E3E3E3" stop-opacity="0.2"/>
</linearGradient>
<linearGradient id="paint1_linear_1269_21584" x1="174.904" y1="148.892" x2="147.429" y2="342.644" gradientUnits="userSpaceOnUse">
<stop stop-color="#3B82F6"/>
<stop offset="1" stop-color="#2755A1" stop-opacity="0.5"/>
</linearGradient>
</defs>
</svg>
