<svg width="281" height="372" viewBox="0 0 281 372" fill="none" xmlns="http://www.w3.org/2000/svg">
<path d="M0 104.022L0 201.978C0 221.749 10.5995 239.947 27.7391 249.608L112.761 298.586C129.9 308.471 150.874 308.471 168.014 298.586L253.261 249.608C270.4 239.722 281 221.524 281 201.978V104.022C281 84.2511 270.4 66.0529 253.261 56.3921L168.014 7.41412C150.874 -2.47134 129.9 -2.47134 112.761 7.41412L27.5136 56.3921C10.5995 66.0529 0 84.2511 0 104.022Z" fill="url(#paint0_linear_1269_19684)"/>
<path d="M29 196.424L29 281.576C29 298.762 38.2038 314.581 53.0866 322.979L126.913 365.555C141.796 374.148 160.008 374.148 174.891 365.555L248.913 322.979C263.796 314.386 273 298.567 273 281.576V196.424C273 179.238 263.796 163.419 248.913 155.021L174.891 112.445C160.008 103.852 141.796 103.852 126.913 112.445L52.8908 155.021C38.2038 163.419 29 179.238 29 196.424Z" fill="url(#paint1_linear_1269_19684)"/>
<defs>
<linearGradient id="paint0_linear_1269_19684" x1="141" y1="3.5" x2="141" y2="225" gradientUnits="userSpaceOnUse">
<stop stop-color="#E3E3E3"/>
<stop offset="1" stop-color="#E3E3E3" stop-opacity="0"/>
</linearGradient>
<linearGradient id="paint1_linear_1269_19684" x1="151" y1="106" x2="151" y2="372" gradientUnits="userSpaceOnUse">
<stop stop-color="#3B82F6"/>
<stop offset="1" stop-color="#2755A1" stop-opacity="0.5"/>
</linearGradient>
</defs>
</svg>
