<svg width="24" height="24" viewBox="0 0 24 24" fill="none" xmlns="http://www.w3.org/2000/svg">
<path d="M5.5802 6.96001C6.13524 6.96001 6.5852 6.54363 6.5852 6.03001C6.5852 5.51638 6.13524 5.10001 5.5802 5.10001C5.02515 5.10001 4.5752 5.51638 4.5752 6.03001C4.5752 6.54363 5.02515 6.96001 5.5802 6.96001Z" fill="black"/>
<path d="M9.43518 6.975C9.57057 6.98755 9.7071 6.97164 9.83598 6.9283C9.96487 6.88495 10.0833 6.81513 10.1836 6.72331C10.2839 6.63149 10.3638 6.5197 10.4184 6.39514C10.4729 6.27057 10.5008 6.13597 10.5002 6C10.5002 5.7255 10.3911 5.46224 10.197 5.26814C10.0029 5.07404 9.73968 4.965 9.46518 4.965C9.19068 4.965 8.92742 5.07404 8.73332 5.26814C8.53922 5.46224 8.43018 5.7255 8.43018 6C8.43011 6.1306 8.45629 6.25988 8.50716 6.38017C8.55802 6.50047 8.63253 6.60931 8.72627 6.70025C8.82001 6.79119 8.93106 6.86237 9.05284 6.90957C9.17462 6.95677 9.30464 6.97902 9.43518 6.975V6.975Z" fill="black"/>
<path d="M13.3048 6.97499C13.8599 6.97499 14.3098 6.5519 14.3098 6.02999C14.3098 5.50808 13.8599 5.08499 13.3048 5.08499C12.7498 5.08499 12.2998 5.50808 12.2998 6.02999C12.2998 6.5519 12.7498 6.97499 13.3048 6.97499Z" fill="black"/>
<path d="M21.375 2.25H2.625C2.12772 2.25 1.65081 2.44754 1.29917 2.79917C0.947544 3.15081 0.75 3.62772 0.75 4.125V19.875C0.75 20.3723 0.947544 20.8492 1.29917 21.2008C1.65081 21.5525 2.12772 21.75 2.625 21.75H21.375C21.8723 21.75 22.3492 21.5525 22.7008 21.2008C23.0525 20.8492 23.25 20.3723 23.25 19.875V4.125C23.25 3.62772 23.0525 3.15081 22.7008 2.79917C22.3492 2.44754 21.8723 2.25 21.375 2.25ZM2.625 4.125H21.375V7.875H2.625V4.125ZM2.625 19.875V9.75H21.375V19.875H2.625Z" fill="black"/>
</svg>
