<svg width="24" height="24" viewBox="0 0 24 24" fill="none" xmlns="http://www.w3.org/2000/svg">
<path fill-rule="evenodd" clip-rule="evenodd" d="M8.75173 17.6484C8.52677 17.4234 8.40039 17.1182 8.40039 16.8C8.40039 16.4818 8.52677 16.1766 8.75173 15.9516L12.7033 12L8.75173 8.04839C8.53314 7.82207 8.41219 7.51895 8.41493 7.20431C8.41766 6.88968 8.54386 6.5887 8.76635 6.36621C8.98884 6.14372 9.28982 6.01752 9.60445 6.01479C9.91909 6.01205 10.2222 6.13301 10.4485 6.35159L15.2485 11.1516C15.4735 11.3766 15.5999 11.6818 15.5999 12C15.5999 12.3182 15.4735 12.6234 15.2485 12.8484L10.4485 17.6484C10.2235 17.8734 9.91833 17.9997 9.60013 17.9997C9.28194 17.9997 8.97677 17.8734 8.75173 17.6484Z" fill="black"/>
</svg>
