<svg width="24" height="24" viewBox="0 0 24 24" fill="none" xmlns="http://www.w3.org/2000/svg">
<path d="M7.27463 10.4064L5.59463 10.7904C5.36183 9.99839 4.82423 9.57839 3.98423 9.53039C2.79383 9.59999 2.16503 10.428 2.09303 12.0144C2.16263 13.6008 2.79383 14.4528 3.98423 14.5704C4.94183 14.5464 5.50103 13.9752 5.66423 12.8544L7.34423 13.38C6.94823 15.108 5.82743 15.9696 3.98423 15.9696C1.60343 15.852 0.355434 14.5344 0.240234 12.0144C0.357834 9.49439 1.60583 8.16479 3.98423 8.02319C5.66423 8.09759 6.76103 8.89199 7.27463 10.4064Z" fill="black"/>
<path d="M15.0457 15.8328H12.8401L10.9489 12.8568H9.93608V15.8664H8.18408V8.13361H11.7193C13.6081 8.18161 14.5897 8.94961 14.6593 10.4424C14.6833 11.7264 14.0521 12.4968 12.7681 12.7536L15.0457 15.8328ZM11.4409 9.49681H9.93608V11.5608H11.4409C12.3745 11.5608 12.8281 11.2224 12.8065 10.5456C12.8521 9.82561 12.3961 9.47521 11.4409 9.49681Z" fill="black"/>
<path d="M23.7602 15.8664H22.0802V11.2824C22.0802 10.7928 22.1042 10.2096 22.1498 9.5328H22.1138C22.0442 10.0008 21.9506 10.4424 21.833 10.8624L20.4002 15.8664H18.9314L17.4962 10.7232C17.4266 10.4424 17.333 10.0464 17.2154 9.5328H17.1794C17.1794 9.672 17.1914 9.8712 17.2154 10.128C17.2394 10.8288 17.2514 11.3304 17.2514 11.6328V15.8688H15.6074V8.1336H18.197L19.5602 13.2072C19.5842 13.3464 19.6178 13.6272 19.6658 14.0472C19.6658 13.9776 19.6778 13.884 19.7018 13.7664C19.7018 13.464 19.7258 13.2768 19.7714 13.2072L21.137 8.1312H23.7602V15.8664Z" fill="black"/>
</svg>
