<svg width="24" height="24" viewBox="0 0 24 24" fill="none" xmlns="http://www.w3.org/2000/svg">
<path d="M17.0009 3.09599L17.1164 3.32549L17.9804 5.62499C18.0479 5.80499 18.1904 5.94899 18.3719 6.01649L20.5919 6.85049C21.5669 7.21499 22.0904 8.25599 21.8309 9.24149L21.7679 9.43649L20.7359 11.721C20.6962 11.8081 20.6757 11.9027 20.6757 11.9985C20.6757 12.0942 20.6962 12.1889 20.7359 12.276L21.7169 14.436C21.9222 14.8888 21.9524 15.4015 21.8017 15.8752C21.651 16.349 21.3301 16.75 20.9009 17.001L20.6714 17.1165L18.3719 17.9805C18.2829 18.0143 18.202 18.0667 18.1347 18.1342C18.0675 18.2017 18.0154 18.2828 17.9819 18.372L17.1479 20.592C16.9733 21.0581 16.632 21.4428 16.19 21.6717C15.748 21.9006 15.2369 21.9573 14.7554 21.831L14.5604 21.768L12.2759 20.736C12.1888 20.6963 12.0942 20.6757 11.9984 20.6757C11.9027 20.6757 11.8081 20.6963 11.7209 20.736L9.56245 21.717C9.10968 21.9222 8.59691 21.9524 8.12319 21.8017C7.64947 21.651 7.2484 21.3301 6.99745 20.901L6.88194 20.6715L6.01645 18.372C5.98265 18.2829 5.93025 18.202 5.86274 18.1348C5.79523 18.0675 5.71417 18.0154 5.62495 17.982L3.40494 17.148C2.93885 16.9734 2.55413 16.632 2.32524 16.1901C2.09635 15.7481 2.03959 15.2369 2.16594 14.7555L2.22894 14.5605L3.26244 12.276C3.30206 12.1888 3.32256 12.0942 3.32256 11.9985C3.32256 11.9028 3.30206 11.8081 3.26244 11.721L2.27994 9.56249C2.07456 9.1099 2.04414 8.59726 2.19457 8.12356C2.34499 7.64985 2.66558 7.24868 3.09444 6.99749L3.32394 6.88199L5.62495 6.01499C5.71432 5.98137 5.79547 5.92905 5.86299 5.86153C5.93051 5.79402 5.98283 5.71286 6.01645 5.62349L6.85045 3.40349C7.02504 2.93772 7.36614 2.55323 7.80778 2.32438C8.24942 2.09552 8.76023 2.03855 9.24144 2.16449L9.43644 2.22749L11.7209 3.26099C11.8081 3.30061 11.9027 3.32111 11.9984 3.32111C12.0942 3.32111 12.1888 3.30061 12.2759 3.26099L14.4359 2.27999C14.8885 2.07461 15.4012 2.04419 15.8749 2.19461C16.3486 2.34503 16.7498 2.66562 17.0009 3.09449V3.09599ZM8.10444 3.87599L7.27195 6.09599C7.17119 6.36457 7.01412 6.60848 6.81128 6.81132C6.60844 7.01416 6.36453 7.17124 6.09595 7.27199L3.87594 8.10449L3.72894 8.18099C3.60005 8.27051 3.50664 8.4024 3.46498 8.55369C3.42332 8.70499 3.43605 8.86611 3.50094 9.00899L4.48194 11.1675C4.72194 11.6955 4.72194 12.3015 4.48194 12.8295L3.49194 15.0105L3.45144 15.147C3.42392 15.3013 3.45132 15.4603 3.52886 15.5965C3.60641 15.7327 3.72922 15.8374 3.87594 15.8925L6.09595 16.7265C6.63895 16.9305 7.06795 17.358 7.27195 17.9025L8.10444 20.1225L8.18094 20.2695C8.36094 20.5305 8.70895 20.6325 9.00895 20.496L11.1674 19.5165C11.4285 19.398 11.7118 19.3367 11.9984 19.3367C12.2851 19.3367 12.5684 19.398 12.8294 19.5165L15.0104 20.5065L15.1469 20.5455C15.301 20.5731 15.46 20.5459 15.5961 20.4687C15.7323 20.3914 15.8371 20.2689 15.8924 20.1225L16.7264 17.9025C16.8272 17.6339 16.9843 17.39 17.1871 17.1872C17.39 16.9843 17.6339 16.8272 17.9024 16.7265L20.1224 15.8925L20.2694 15.8175C20.3981 15.7278 20.4912 15.5958 20.5326 15.4445C20.574 15.2932 20.561 15.1322 20.4959 14.9895L19.5164 12.8295C19.3979 12.5685 19.3366 12.2851 19.3366 11.9985C19.3366 11.7118 19.3979 11.4285 19.5164 11.1675L20.5064 8.98799L20.5454 8.84999C20.5731 8.69589 20.5459 8.53698 20.4686 8.40082C20.3914 8.26466 20.2689 8.15982 20.1224 8.10449L17.9024 7.27199C17.6339 7.17124 17.39 7.01416 17.1871 6.81132C16.9843 6.60848 16.8272 6.36457 16.7264 6.09599L15.8924 3.87599L15.8174 3.72899C15.7279 3.6001 15.596 3.50669 15.4447 3.46502C15.2934 3.42336 15.1323 3.43609 14.9894 3.50099L12.8294 4.48199C12.5684 4.6005 12.2851 4.66181 11.9984 4.66181C11.7118 4.66181 11.4285 4.6005 11.1674 4.48199L9.00745 3.50099L8.96695 3.48299C8.80045 3.42081 8.61608 3.42728 8.45435 3.50097C8.29262 3.57466 8.16677 3.70955 8.10444 3.87599V3.87599ZM10.4654 14.019L15.2444 8.55899C15.3541 8.43537 15.5055 8.35658 15.6696 8.33773C15.8338 8.31889 15.9991 8.36131 16.1339 8.45687C16.2687 8.55243 16.3634 8.6944 16.4 8.85553C16.4365 9.01667 16.4123 9.18562 16.3319 9.32999L16.2524 9.43949L11.0024 15.4395C10.8967 15.5605 10.7509 15.6395 10.5918 15.6621C10.4327 15.6846 10.2707 15.6493 10.1354 15.5625L10.0244 15.4725L7.77445 13.2225C7.65763 13.1049 7.58849 12.9483 7.58037 12.7827C7.57225 12.6172 7.62573 12.4545 7.73049 12.3261C7.83525 12.1976 7.98386 12.1126 8.14765 12.0872C8.31144 12.0619 8.4788 12.0982 8.61744 12.189L8.72245 12.2745L10.4654 14.019L15.2444 8.55899L10.4654 14.019V14.019Z" fill="black"/>
</svg>
