<svg width="332" height="363" viewBox="0 0 332 363" fill="none" xmlns="http://www.w3.org/2000/svg">
<path d="M63.9181 226.312L124.109 276.592C136.258 286.74 152.87 289.559 167.587 283.971L241.241 256.792C256.096 251.319 266.841 238.412 269.547 222.791L283.125 145.193C285.832 129.571 280.08 113.708 268.069 103.675L207.878 53.394C195.73 43.2456 179.117 40.4271 164.4 46.0154L90.6313 73.3333C75.7761 78.8062 65.0311 91.7126 62.3245 107.334L48.7466 184.932C46.0175 200.3 51.7695 216.163 63.9181 226.312Z" fill="url(#paint0_linear_1237_11231)"/>
<path d="M65.194 277.084L115.066 318.745C125.132 327.154 138.911 329.473 151.127 324.816L212.265 302.163C224.596 297.602 233.526 286.875 235.791 273.905L247.152 209.476C249.417 196.506 244.665 183.345 234.713 175.032L184.841 133.371C174.775 124.962 160.996 122.643 148.78 127.3L87.5463 150.068C75.2155 154.63 66.2852 165.357 64.0203 178.327L52.6591 242.756C50.3759 255.515 55.128 268.676 65.194 277.084Z" fill="url(#paint1_linear_1237_11231)"/>
<defs>
<linearGradient id="paint0_linear_1237_11231" x1="177.807" y1="48.0218" x2="150.938" y2="278.043" gradientUnits="userSpaceOnUse">
<stop stop-color="#E3E3E3"/>
<stop offset="1" stop-color="#E3E3E3" stop-opacity="0.2"/>
</linearGradient>
<linearGradient id="paint1_linear_1237_11231" x1="172.812" y1="134.127" x2="142.513" y2="320.091" gradientUnits="userSpaceOnUse">
<stop stop-color="#3B82F6"/>
<stop offset="1" stop-color="#2755A1" stop-opacity="0.5"/>
</linearGradient>
</defs>
</svg>
